<svg xmlns="http://www.w3.org/2000/svg" version="1.1" xmlns:xlink="http://www.w3.org/1999/xlink" width="1000" height="1000"><g clip-path="url(#SvgjsClipPath1128)"><rect width="1000" height="1000" fill="#0b0316"></rect><g transform="matrix(0.8902077151335311,0,0,0.8902077151335311,58.902077151335334,50)"><svg xmlns="http://www.w3.org/2000/svg" version="1.1" xmlns:xlink="http://www.w3.org/1999/xlink" width="991" height="1011"><svg width="991" height="1011" viewBox="0 0 991 1011" fill="none" xmlns="http://www.w3.org/2000/svg">
<path d="M547.155 70.1537C565.767 60.9203 584.059 50.9609 603.056 42.6026C644.502 24.367 687.751 11.8471 732.597 5.40403C748.647 3.09803 764.911 2.09578 781.114 1.08714C794.193 0.272962 807.345 -0.257587 820.434 0.128796C868.335 1.54304 915.378 7.84459 960.305 25.7916C972.677 30.734 983.556 37.1033 989.995 49.314C990.308 60.0849 989.995 50.0936 989.995 60.5C989.995 64.5 986.693 85.0639 986.5 86C969.283 169.286 934.182 242.847 882.882 310.116C853.842 348.197 820.311 381.91 783.192 413.014C755.963 435.271 727.334 454.407 697.027 470.882C676.755 481.904 655.804 491.677 635.156 502.008C620.78 507.694 606.579 513.884 591.992 518.964C558.527 530.619 524.817 541.568 491.32 553.131C472.221 559.724 453.866 568.018 437.632 580.333C408.966 602.076 393.524 631.83 386.407 666.338C381.065 692.238 377.23 718.474 371.207 744.206C350.94 830.779 303.186 899.067 231.508 951.055C229.896 952.225 228.15 953.211 226.01 954.262C225.553 954.24 225.303 954.061 225.303 954.061C243.796 923.911 260.167 892.74 271.712 859.172C279.152 837.539 285.13 815.516 287.873 792.833C289.742 777.37 289.896 761.699 290.759 746.118C290.84 744.662 290.505 743.183 290.286 740.917C289.264 742.277 288.578 742.94 288.185 743.746C261.824 797.875 224.085 843.284 180.106 883.74C126.904 932.68 68.6563 974.662 4.8316 1008.77C3.40985 1009.53 1.94009 1010.2 0 1010.36C3.47657 1006.28 7.04866 1002.29 10.4148 998.128C41.4748 959.733 65.6789 917.291 83.0048 871.161C94.23 841.274 103.522 810.664 113.792 780.416C127.626 739.675 146.833 701.558 170.173 665.468C174.151 659.317 177.909 653.024 181.748 646.784C182.089 646.23 182.278 645.583 183.12 643.624C148.458 659.844 119.152 681.523 92.864 707.374C66.5317 733.269 44.1134 762.276 26.2448 794.745C25.7514 794.569 25.258 794.393 24.7646 794.216C27.1082 780.038 28.8989 765.742 31.8902 751.702C45.6338 687.195 81.9403 637.514 133.853 598.354C161.732 577.324 192.412 561.513 225.47 550.292C226.852 549.823 228.191 549.23 229.788 548.602C228.561 542.84 220.168 537.438 220.168 537.438C210.515 531.704 199.673 529.757 188.783 528.129C182.222 527.148 175.625 526.415 168.231 525.467C169.477 523.687 170.374 522.215 171.453 520.891C197.886 488.445 229.928 462.728 266.267 442.243C269.581 440.374 271.347 438.073 272.609 434.546C287.356 393.301 303.731 352.724 322.941 313.328C324.453 310.229 325.876 307.086 327.686 303.454C328.84 301.494 329.698 300.07 330.452 298.592C369.821 221.395 424.642 157.229 494.144 105.684C511.21 93.0265 529.453 81.9545 547.155 70.1537ZM514.674 316.931C536.34 292.199 558.007 267.466 579.673 242.734C576.171 242.764 573.131 243.49 570.187 244.495C519.342 261.854 476.241 291.245 438.616 329.167C394.893 373.234 360.553 423.896 332.787 479.222C310.737 523.16 293.33 568.805 283.136 616.954C279.571 633.791 277.539 650.983 275.471 668.093C274.248 678.203 274.324 688.47 273.791 699.175C274.876 698.552 275.253 698.469 275.362 698.252C276.334 696.32 277.322 694.393 278.188 692.413C300.185 642.143 328.255 595.771 365.732 555.376C396.479 522.235 430.866 493.264 468.107 467.848C502.768 444.193 538.413 421.984 573.342 398.715C583.696 391.817 593.439 383.877 602.799 375.659C608.146 370.965 612.157 364.748 616.769 359.217C616.352 358.577 615.934 357.938 615.516 357.298C561.689 386.241 505.03 403.992 443.598 402.88C443.296 402.414 442.995 401.949 442.693 401.483C466.533 373.479 490.372 345.475 514.674 316.931ZM689.255 173.553C678.243 140.52 678.763 106.658 682.404 72.5072C681.246 73.2323 680.636 73.9845 680.056 74.7598C646.976 119.037 643.874 179.476 672.871 226.575C697.595 266.734 733.86 290.398 780.039 298.898C790.825 300.884 801.828 301.692 812.731 303.042C812.82 302.501 812.909 301.961 812.998 301.42C803.71 296.355 794.222 291.622 785.168 286.167C740.909 259.501 706.692 224.154 689.255 173.553ZM850.231 120.362C855.53 112.601 855.438 103.728 853.662 95.3437C850.581 80.7984 834.853 71.2376 819.053 73.1389C805.079 74.8206 792.502 88.9454 792.382 103.091C792.267 116.848 801.29 129.396 814.456 133.789C827.352 138.092 840.868 133.198 850.231 120.362Z" fill="url(#paint0_linear_239_2431)"></path>
<path d="M546.765 70.0761C529.453 81.9545 511.211 93.0265 494.144 105.684C424.642 157.229 369.821 221.395 330.452 298.592C329.698 300.07 328.84 301.494 327.716 303.095C329.51 294.23 331.716 285.236 333.705 276.194C337.325 259.744 339.985 243.115 339.264 226.238C338.533 209.108 337.523 191.941 331.098 175.67C321.27 150.777 301.99 135.709 278.445 125.282C268.358 120.814 257.888 117.209 247.076 113.011C248.444 112.005 249.803 110.928 251.238 109.961C275.078 93.8936 301.35 83.2087 329.042 76.2382C347.04 71.7077 365.395 68.534 383.669 65.1873C390.781 63.8848 398.103 63.3722 405.346 63.1994C428.784 62.6404 452.287 61.2299 475.656 62.3756C499.297 63.5346 522.807 67.3479 546.765 70.0761Z" fill="url(#paint1_linear_239_2431)"></path>
<path d="M635.257 502.365C655.804 491.677 676.755 481.903 697.028 470.882C727.334 454.406 755.963 435.271 783 413.292C773.314 475.648 745.818 529.015 700.618 573.278C679.095 594.355 655.149 612.173 629.135 627.276C628.774 627.486 628.307 627.513 628.854 627.366C633.088 614.426 638.385 601.329 641.562 587.735C645.386 571.37 646.239 554.624 644.534 537.661C643.3 525.382 640.315 513.871 635.257 502.365Z" fill="url(#paint2_linear_239_2431)"></path>
<defs>
<linearGradient id="paint0_linear_239_2431" x1="831" y1="-102.5" x2="237.5" y2="1010" gradientUnits="userSpaceOnUse">
<stop stop-color="#066EFF"></stop>
<stop offset="0.216346" stop-color="#067AFF"></stop>
<stop offset="0.576923" stop-color="#233AFF"></stop>
<stop offset="1" stop-color="#D901F5"></stop>
</linearGradient>
<linearGradient id="paint1_linear_239_2431" x1="274" y1="99.5" x2="427.201" y2="257.789" gradientUnits="userSpaceOnUse">
<stop stop-color="#1F17D5"></stop>
<stop offset="1" stop-color="#590CE7"></stop>
</linearGradient>
<linearGradient id="paint2_linear_239_2431" x1="666.5" y1="465.5" x2="706" y2="627" gradientUnits="userSpaceOnUse">
<stop stop-color="#1F17D5"></stop>
<stop offset="1" stop-color="#590CE7"></stop>
</linearGradient>
<clipPath id="SvgjsClipPath1128"><rect width="1000" height="1000" x="0" y="0" rx="150" ry="150"></rect></clipPath></defs>
</svg></svg></g></g></svg>