<svg width="1920" height="760" viewBox="0 0 1920 760" fill="none" xmlns="http://www.w3.org/2000/svg">
<g clip-path="url(#clip0_174_2660)">
<mask id="mask0_174_2660" style="mask-type:luminance" maskUnits="userSpaceOnUse" x="-34" y="0" width="1954" height="760">
<path d="M1920 0H-34V760H1920V0Z" fill="white"/>
</mask>
<g mask="url(#mask0_174_2660)">
<path d="M-123.572 489.576L111.288 496.389" stroke="#4A86E8" stroke-opacity="0.1" stroke-width="1.5"/>
<path d="M-167.116 752.359L113.5 756.824" stroke="#4A86E8" stroke-opacity="0.1" stroke-width="1.5"/>
<path d="M-167.116 752.359L60.0498 966.53" stroke="#4A86E8" stroke-opacity="0.1" stroke-width="1.5"/>
<path d="M-167.116 752.359L111.288 496.389" stroke="#4A86E8" stroke-opacity="0.1" stroke-width="1.5"/>
<path d="M-167.116 752.359L221.174 897.465" stroke="#4A86E8" stroke-opacity="0.1" stroke-width="1.5"/>
<path d="M-167.116 752.359L247.104 684.638" stroke="#4A86E8" stroke-opacity="0.1" stroke-width="1.5"/>
<path d="M111.288 496.388L267.242 477.022" stroke="#4A86E8" stroke-opacity="0.1" stroke-width="1.5"/>
<path d="M111.288 496.389L247.105 684.638" stroke="#4A86E8" stroke-opacity="0.1" stroke-width="1.5"/>
<path d="M113.499 756.824L247.104 684.638" stroke="#4A86E8" stroke-opacity="0.1" stroke-width="1.5"/>
<path d="M113.499 756.824L221.173 897.465" stroke="#4A86E8" stroke-opacity="0.1" stroke-width="1.5"/>
<path d="M113.499 756.824L60.0488 966.53" stroke="#4A86E8" stroke-opacity="0.1" stroke-width="1.5"/>
<path d="M113.5 756.824L111.288 496.389" stroke="#4A86E8" stroke-opacity="0.1" stroke-width="1.5"/>
<path d="M60.0488 966.53L247.104 684.638" stroke="#4A86E8" stroke-opacity="0.1" stroke-width="1.5"/>
<path d="M267.241 477.022L428.65 546.386" stroke="#4A86E8" stroke-opacity="0.1" stroke-width="1.5"/>
<path d="M267.242 477.022L247.104 684.638" stroke="#4A86E8" stroke-opacity="0.1" stroke-width="1.5"/>
<path d="M267.241 477.022L113.499 756.824" stroke="#4A86E8" stroke-opacity="0.1" stroke-width="1.5"/>
<path d="M247.104 684.638L221.173 897.465" stroke="#4A86E8" stroke-opacity="0.1" stroke-width="1.5"/>
<path d="M247.104 684.638L428.65 546.386" stroke="#4A86E8" stroke-opacity="0.1" stroke-width="1.5"/>
<path d="M247.104 684.638L515.725 705.402" stroke="#4A86E8" stroke-opacity="0.1" stroke-width="1.5"/>
<path d="M428.649 546.386L515.725 705.402" stroke="#4A86E8" stroke-opacity="0.1" stroke-width="1.5"/>
<path d="M428.649 546.386L654.241 490.173" stroke="#4A86E8" stroke-opacity="0.1" stroke-width="1.5"/>
<path d="M428.649 546.386L672.56 685.371" stroke="#4A86E8" stroke-opacity="0.1" stroke-width="1.5"/>
<path d="M515.725 705.402L672.56 685.371" stroke="#4A86E8" stroke-opacity="0.1" stroke-width="1.5"/>
<path d="M515.725 705.402L447.321 881.003" stroke="#4A86E8" stroke-opacity="0.1" stroke-width="1.5"/>
<path d="M515.725 705.403L654.242 490.173" stroke="#4A86E8" stroke-opacity="0.1" stroke-width="1.5"/>
<path d="M447.322 881.003L247.104 684.638" stroke="#4A86E8" stroke-opacity="0.1" stroke-width="1.5"/>
<path d="M447.321 881.003L672.56 685.371" stroke="#4A86E8" stroke-opacity="0.1" stroke-width="1.5"/>
<path d="M447.321 881.003L428.649 546.386" stroke="#4A86E8" stroke-opacity="0.1" stroke-width="1.5"/>
<path d="M654.242 490.173L672.561 685.371" stroke="#4A86E8" stroke-opacity="0.1" stroke-width="1.5"/>
<path d="M654.242 490.173L875.831 493.077" stroke="#4A86E8" stroke-opacity="0.1" stroke-width="1.5"/>
<path d="M654.242 490.173L860.253 306.348" stroke="#4A86E8" stroke-opacity="0.1" stroke-width="1.5"/>
<path d="M695.492 926.291L672.56 685.371" stroke="#4A86E8" stroke-opacity="0.1" stroke-width="1.5"/>
<path d="M695.493 926.291L885.438 733.794" stroke="#4A86E8" stroke-opacity="0.1" stroke-width="1.5"/>
<path d="M695.492 926.291L515.725 705.402" stroke="#4A86E8" stroke-opacity="0.1" stroke-width="1.5"/>
<path d="M860.253 306.348L875.831 493.077" stroke="#4A86E8" stroke-opacity="0.1" stroke-width="1.5"/>
<path d="M875.831 493.077L1084.22 528.905" stroke="#4A86E8" stroke-opacity="0.1" stroke-width="1.5"/>
<path d="M875.831 493.077L885.438 733.793" stroke="#4A86E8" stroke-opacity="0.1" stroke-width="1.5"/>
<path d="M885.438 733.794L1071.6 728.596" stroke="#4A86E8" stroke-opacity="0.1" stroke-width="1.5"/>
<path d="M885.437 733.794L672.56 685.371" stroke="#4A86E8" stroke-opacity="0.1" stroke-width="1.5"/>
<path d="M885.438 733.794L866.454 961.875" stroke="#4A86E8" stroke-opacity="0.1" stroke-width="1.5"/>
<path d="M866.454 961.875L1071.6 728.596" stroke="#4A86E8" stroke-opacity="0.1" stroke-width="1.5"/>
<path d="M866.453 961.875L672.56 685.371" stroke="#4A86E8" stroke-opacity="0.1" stroke-width="1.5"/>
<path d="M1084.22 528.906L1256.58 557.189" stroke="#4A86E8" stroke-opacity="0.1" stroke-width="1.5"/>
<path d="M1071.6 728.596L1267.32 726.167" stroke="#4A86E8" stroke-opacity="0.1" stroke-width="1.5"/>
<path d="M1071.6 728.596L1084.22 528.906" stroke="#4A86E8" stroke-opacity="0.1" stroke-width="1.5"/>
<path d="M1071.6 728.596L1080.2 931.462" stroke="#4A86E8" stroke-opacity="0.1" stroke-width="1.5"/>
<path d="M1071.6 728.596L1256.58 557.189" stroke="#4A86E8" stroke-opacity="0.1" stroke-width="1.5"/>
<path d="M1080.2 931.462L885.438 733.794" stroke="#4A86E8" stroke-opacity="0.1" stroke-width="1.5"/>
<path d="M1080.2 931.462L1267.32 726.167" stroke="#4A86E8" stroke-opacity="0.1" stroke-width="1.5"/>
<path d="M1271.16 -123.622L1297.15 119.076" stroke="#4A86E8" stroke-opacity="0.1" stroke-width="1.5"/>
<path d="M1271.16 -123.622L1511.86 88.3228" stroke="#4A86E8" stroke-opacity="0.1" stroke-width="1.5"/>
<path d="M1271.16 -123.622L1299.13 289.791" stroke="#4A86E8" stroke-opacity="0.1" stroke-width="1.5"/>
<path d="M1297.15 119.076L1299.13 289.791" stroke="#4A86E8" stroke-opacity="0.1" stroke-width="1.5"/>
<path d="M1297.15 119.076L1511.86 88.3229" stroke="#4A86E8" stroke-opacity="0.1" stroke-width="1.5"/>
<path d="M1297.15 119.076L1450.97 -150.263" stroke="#4A86E8" stroke-opacity="0.1" stroke-width="1.5"/>
<path d="M1299.13 289.791L1502.2 353.278" stroke="#4A86E8" stroke-opacity="0.1" stroke-width="1.5"/>
<path d="M1299.13 289.791L1463.08 474.973" stroke="#4A86E8" stroke-opacity="0.1" stroke-width="1.5"/>
<path d="M1299.13 289.791L1256.58 557.189" stroke="#4A86E8" stroke-opacity="0.1" stroke-width="1.5"/>
<path d="M1256.58 557.189L1267.32 726.167" stroke="#4A86E8" stroke-opacity="0.1" stroke-width="1.5"/>
<path d="M1256.58 557.189L1463.08 474.973" stroke="#4A86E8" stroke-opacity="0.1" stroke-width="1.5"/>
<path d="M1267.32 726.167L1312.62 934.149" stroke="#4A86E8" stroke-opacity="0.1" stroke-width="1.5"/>
<path d="M1267.32 726.166L1502.09 697.259" stroke="#4A86E8" stroke-opacity="0.1" stroke-width="1.5"/>
<path d="M1267.32 726.166L1084.22 528.906" stroke="#4A86E8" stroke-opacity="0.1" stroke-width="1.5"/>
<path d="M1450.97 -150.263L1511.86 88.323" stroke="#4A86E8" stroke-opacity="0.1" stroke-width="1.5"/>
<path d="M1511.86 88.3228L1663.01 -57.2036" stroke="#4A86E8" stroke-opacity="0.1" stroke-width="1.5"/>
<path d="M1511.86 88.3229L1502.2 353.278" stroke="#4A86E8" stroke-opacity="0.1" stroke-width="1.5"/>
<path d="M1511.86 88.3229L1299.13 289.791" stroke="#4A86E8" stroke-opacity="0.1" stroke-width="1.5"/>
<path d="M1502.2 353.278L1463.08 474.973" stroke="#4A86E8" stroke-opacity="0.1" stroke-width="1.5"/>
<path d="M1463.08 474.973L1658.86 511.29" stroke="#4A86E8" stroke-opacity="0.1" stroke-width="1.5"/>
<path d="M1463.08 474.973L1502.09 697.259" stroke="#4A86E8" stroke-opacity="0.1" stroke-width="1.5"/>
<path d="M1463.08 474.973L1731.75 338.2" stroke="#4A86E8" stroke-opacity="0.1" stroke-width="1.5"/>
<path d="M1502.09 697.259L1658.85 511.29" stroke="#4A86E8" stroke-opacity="0.1" stroke-width="1.5"/>
<path d="M1502.09 697.259L1539.92 952.931" stroke="#4A86E8" stroke-opacity="0.1" stroke-width="1.5"/>
<path d="M1539.92 952.931L1267.32 726.167" stroke="#4A86E8" stroke-opacity="0.1" stroke-width="1.5"/>
<path d="M1663.01 -57.2036L1932.37 103.034" stroke="#4A86E8" stroke-opacity="0.1" stroke-width="1.5"/>
<path d="M1663.01 -57.2036L1731.75 338.2" stroke="#4A86E8" stroke-opacity="0.1" stroke-width="1.5"/>
<path d="M1731.75 338.2L1881.52 289.099" stroke="#4A86E8" stroke-opacity="0.1" stroke-width="1.5"/>
<path d="M1731.75 338.2L1658.86 511.29" stroke="#4A86E8" stroke-opacity="0.1" stroke-width="1.5"/>
<path d="M1731.75 338.2L1502.2 353.278" stroke="#4A86E8" stroke-opacity="0.1" stroke-width="1.5"/>
<path d="M1731.75 338.2L1881.39 536.343" stroke="#4A86E8" stroke-opacity="0.1" stroke-width="1.5"/>
<path d="M1658.86 511.29L1502.2 353.278" stroke="#4A86E8" stroke-opacity="0.1" stroke-width="1.5"/>
<path d="M1658.86 511.29L1881.4 536.343" stroke="#4A86E8" stroke-opacity="0.1" stroke-width="1.5"/>
<path d="M1658.86 511.29L1881.52 289.099" stroke="#4A86E8" stroke-opacity="0.1" stroke-width="1.5"/>
<path d="M1710.12 912.909L1931.37 723.873" stroke="#4A86E8" stroke-opacity="0.1" stroke-width="1.5"/>
<path d="M1710.12 912.909L1502.09 697.259" stroke="#4A86E8" stroke-opacity="0.1" stroke-width="1.5"/>
<path d="M1871.57 -103.645L1932.37 103.034" stroke="#4A86E8" stroke-opacity="0.1" stroke-width="1.5"/>
<path d="M1932.37 103.034L1881.52 289.099" stroke="#4A86E8" stroke-opacity="0.1" stroke-width="1.5"/>
<path d="M1881.52 289.099L1881.4 536.343" stroke="#4A86E8" stroke-opacity="0.1" stroke-width="1.5"/>
<path d="M1881.52 289.099L2153.69 262.146" stroke="#4A86E8" stroke-opacity="0.1" stroke-width="1.5"/>
<path d="M1881.52 289.099L2138.98 467.346" stroke="#4A86E8" stroke-opacity="0.1" stroke-width="1.5"/>
<path d="M1881.4 536.343L1931.37 723.873" stroke="#4A86E8" stroke-opacity="0.1" stroke-width="1.5"/>
<path d="M1881.4 536.343L2138.98 467.346" stroke="#4A86E8" stroke-opacity="0.1" stroke-width="1.5"/>
<path d="M1881.4 536.343L2105.09 754.965" stroke="#4A86E8" stroke-opacity="0.1" stroke-width="1.5"/>
<path d="M2153.69 262.146L1881.4 536.343" stroke="#4A86E8" stroke-opacity="0.1" stroke-width="1.5"/>
<path d="M2089.05 963.856L1881.4 536.343" stroke="#4A86E8" stroke-opacity="0.1" stroke-width="1.5"/>
<path d="M111.288 503.175C115.035 503.175 118.072 500.137 118.072 496.389C118.072 492.641 115.035 489.603 111.288 489.603C107.541 489.603 104.503 492.641 104.503 496.389C104.503 500.137 107.541 503.175 111.288 503.175Z" fill="#4A86E8" fill-opacity="0.1"/>
<path d="M113.5 763.61C117.247 763.61 120.284 760.572 120.284 756.824C120.284 753.077 117.247 750.039 113.5 750.039C109.752 750.039 106.715 753.077 106.715 756.824C106.715 760.572 109.752 763.61 113.5 763.61Z" fill="#4A86E8" fill-opacity="0.1"/>
<path d="M267.242 483.808C270.989 483.808 274.026 480.77 274.026 477.022C274.026 473.274 270.989 470.236 267.242 470.236C263.495 470.236 260.457 473.274 260.457 477.022C260.457 480.77 263.495 483.808 267.242 483.808Z" fill="#4A86E8" fill-opacity="0.1"/>
<path d="M247.104 691.424C250.851 691.424 253.889 688.386 253.889 684.638C253.889 680.89 250.851 677.852 247.104 677.852C243.357 677.852 240.319 680.89 240.319 684.638C240.319 688.386 243.357 691.424 247.104 691.424Z" fill="#4A86E8" fill-opacity="0.1"/>
<path d="M428.649 553.171C432.396 553.171 435.434 550.133 435.434 546.385C435.434 542.638 432.396 539.6 428.649 539.6C424.902 539.6 421.864 542.638 421.864 546.385C421.864 550.133 424.902 553.171 428.649 553.171Z" fill="#4A86E8" fill-opacity="0.1"/>
<path d="M515.724 712.188C519.471 712.188 522.509 709.15 522.509 705.402C522.509 701.654 519.471 698.616 515.724 698.616C511.977 698.616 508.939 701.654 508.939 705.402C508.939 709.15 511.977 712.188 515.724 712.188Z" fill="#4A86E8" fill-opacity="0.1"/>
<path d="M654.242 496.959C657.989 496.959 661.026 493.921 661.026 490.173C661.026 486.426 657.989 483.387 654.242 483.387C650.495 483.387 647.457 486.426 647.457 490.173C647.457 493.921 650.495 496.959 654.242 496.959Z" fill="#4A86E8" fill-opacity="0.1"/>
<path d="M672.561 692.157C676.308 692.157 679.346 689.119 679.346 685.371C679.346 681.624 676.308 678.585 672.561 678.585C668.814 678.585 665.776 681.624 665.776 685.371C665.776 689.119 668.814 692.157 672.561 692.157Z" fill="#4A86E8" fill-opacity="0.1"/>
<path d="M860.252 313.134C864 313.134 867.037 310.095 867.037 306.348C867.037 302.6 864 299.562 860.252 299.562C856.505 299.562 853.468 302.6 853.468 306.348C853.468 310.095 856.505 313.134 860.252 313.134Z" fill="#4A86E8" fill-opacity="0.1"/>
<path d="M875.831 499.863C879.578 499.863 882.615 496.825 882.615 493.077C882.615 489.33 879.578 486.292 875.831 486.292C872.084 486.292 869.046 489.33 869.046 493.077C869.046 496.825 872.084 499.863 875.831 499.863Z" fill="#4A86E8" fill-opacity="0.1"/>
<path d="M885.437 740.58C889.184 740.58 892.222 737.542 892.222 733.794C892.222 730.046 889.184 727.008 885.437 727.008C881.69 727.008 878.652 730.046 878.652 733.794C878.652 737.542 881.69 740.58 885.437 740.58Z" fill="#4A86E8" fill-opacity="0.1"/>
<path d="M1084.22 535.692C1087.96 535.692 1091 532.654 1091 528.906C1091 525.158 1087.96 522.12 1084.22 522.12C1080.47 522.12 1077.43 525.158 1077.43 528.906C1077.43 532.654 1080.47 535.692 1084.22 535.692Z" fill="#4A86E8" fill-opacity="0.1"/>
<path d="M1071.6 735.381C1075.34 735.381 1078.38 732.343 1078.38 728.595C1078.38 724.848 1075.34 721.81 1071.6 721.81C1067.85 721.81 1064.81 724.848 1064.81 728.595C1064.81 732.343 1067.85 735.381 1071.6 735.381Z" fill="#4A86E8" fill-opacity="0.1"/>
<path d="M1297.15 125.861C1300.9 125.861 1303.93 122.823 1303.93 119.076C1303.93 115.328 1300.9 112.29 1297.15 112.29C1293.4 112.29 1290.36 115.328 1290.36 119.076C1290.36 122.823 1293.4 125.861 1297.15 125.861Z" fill="#4A86E8" fill-opacity="0.1"/>
<path d="M1299.13 296.576C1302.88 296.576 1305.91 293.538 1305.91 289.791C1305.91 286.043 1302.88 283.005 1299.13 283.005C1295.38 283.005 1292.34 286.043 1292.34 289.791C1292.34 293.538 1295.38 296.576 1299.13 296.576Z" fill="#4A86E8" fill-opacity="0.1"/>
<path d="M1256.58 563.974C1260.32 563.974 1263.36 560.936 1263.36 557.189C1263.36 553.441 1260.32 550.403 1256.58 550.403C1252.83 550.403 1249.79 553.441 1249.79 557.189C1249.79 560.936 1252.83 563.974 1256.58 563.974Z" fill="#4A86E8" fill-opacity="0.1"/>
<path d="M1267.32 732.952C1271.07 732.952 1274.11 729.914 1274.11 726.167C1274.11 722.419 1271.07 719.381 1267.32 719.381C1263.58 719.381 1260.54 722.419 1260.54 726.167C1260.54 729.914 1263.58 732.952 1267.32 732.952Z" fill="#4A86E8" fill-opacity="0.1"/>
<path d="M1511.86 95.1087C1515.61 95.1087 1518.64 92.0706 1518.64 88.3229C1518.64 84.5753 1515.61 81.5372 1511.86 81.5372C1508.11 81.5372 1505.07 84.5753 1505.07 88.3229C1505.07 92.0706 1508.11 95.1087 1511.86 95.1087Z" fill="#4A86E8" fill-opacity="0.1"/>
<path d="M1502.19 360.064C1505.94 360.064 1508.98 357.026 1508.98 353.278C1508.98 349.53 1505.94 346.492 1502.19 346.492C1498.45 346.492 1495.41 349.53 1495.41 353.278C1495.41 357.026 1498.45 360.064 1502.19 360.064Z" fill="#4A86E8" fill-opacity="0.1"/>
<path d="M1463.07 481.759C1466.82 481.759 1469.86 478.721 1469.86 474.973C1469.86 471.225 1466.82 468.187 1463.07 468.187C1459.33 468.187 1456.29 471.225 1456.29 474.973C1456.29 478.721 1459.33 481.759 1463.07 481.759Z" fill="#4A86E8" fill-opacity="0.1"/>
<path d="M1502.09 704.045C1505.83 704.045 1508.87 701.007 1508.87 697.259C1508.87 693.512 1505.83 690.474 1502.09 690.474C1498.34 690.474 1495.3 693.512 1495.3 697.259C1495.3 701.007 1498.34 704.045 1502.09 704.045Z" fill="#4A86E8" fill-opacity="0.1"/>
<path d="M1731.75 344.986C1735.5 344.986 1738.54 341.948 1738.54 338.2C1738.54 334.452 1735.5 331.414 1731.75 331.414C1728 331.414 1724.97 334.452 1724.97 338.2C1724.97 341.948 1728 344.986 1731.75 344.986Z" fill="#4A86E8" fill-opacity="0.1"/>
<path d="M1658.86 518.076C1662.6 518.076 1665.64 515.038 1665.64 511.29C1665.64 507.543 1662.6 504.505 1658.86 504.505C1655.11 504.505 1652.07 507.543 1652.07 511.29C1652.07 515.038 1655.11 518.076 1658.86 518.076Z" fill="#4A86E8" fill-opacity="0.1"/>
<path d="M1881.52 295.884C1885.26 295.884 1888.3 292.846 1888.3 289.099C1888.3 285.351 1885.26 282.313 1881.52 282.313C1877.77 282.313 1874.73 285.351 1874.73 289.099C1874.73 292.846 1877.77 295.884 1881.52 295.884Z" fill="#4A86E8" fill-opacity="0.1"/>
<path d="M1881.39 543.129C1885.14 543.129 1888.18 540.091 1888.18 536.343C1888.18 532.595 1885.14 529.557 1881.39 529.557C1877.65 529.557 1874.61 532.595 1874.61 536.343C1874.61 540.091 1877.65 543.129 1881.39 543.129Z" fill="#4A86E8" fill-opacity="0.1"/>
<path d="M-126.164 679.956L19.5446 936.415" stroke="#79A7F0" stroke-opacity="0.15" stroke-width="1.5"/>
<path d="M-126.164 679.956L250.822 762.022" stroke="#79A7F0" stroke-opacity="0.15" stroke-width="1.5"/>
<path d="M-126.164 679.956L294.231 900.355" stroke="#79A7F0" stroke-opacity="0.15" stroke-width="1.5"/>
<path d="M675.994 868.626L628.569 694.192" stroke="#79A7F0" stroke-opacity="0.15" stroke-width="1.5"/>
<path d="M675.993 868.626L931.71 756.39" stroke="#79A7F0" stroke-opacity="0.15" stroke-width="1.5"/>
<path d="M908.709 897.262L931.709 756.39" stroke="#79A7F0" stroke-opacity="0.15" stroke-width="1.5"/>
<path d="M908.709 897.262L1108.98 709.908" stroke="#79A7F0" stroke-opacity="0.15" stroke-width="1.5"/>
<path d="M1108.98 709.908L1286.24 715.907" stroke="#79A7F0" stroke-opacity="0.15" stroke-width="1.5"/>
<path d="M1108.98 709.908L931.709 756.39" stroke="#79A7F0" stroke-opacity="0.15" stroke-width="1.5"/>
<path d="M1108.98 709.908L1084.53 482.111" stroke="#79A7F0" stroke-opacity="0.15" stroke-width="1.5"/>
<path d="M1108.98 709.908L1043.46 942.468" stroke="#79A7F0" stroke-opacity="0.15" stroke-width="1.5"/>
<path d="M1108.98 709.908L882.588 523.599" stroke="#79A7F0" stroke-opacity="0.15" stroke-width="1.5"/>
<path d="M1520.11 699.919L1668.8 674.799" stroke="#79A7F0" stroke-opacity="0.15" stroke-width="1.5"/>
<path d="M1520.11 699.919L1454.05 501.071" stroke="#79A7F0" stroke-opacity="0.15" stroke-width="1.5"/>
<path d="M1520.11 699.92L1286.24 715.907" stroke="#79A7F0" stroke-opacity="0.15" stroke-width="1.5"/>
<path d="M1520.11 699.919L1723.58 556.13" stroke="#79A7F0" stroke-opacity="0.15" stroke-width="1.5"/>
<path d="M1520.11 699.92L1509.99 965.065" stroke="#79A7F0" stroke-opacity="0.15" stroke-width="1.5"/>
<path d="M1520.11 699.919L1316.73 493.837" stroke="#79A7F0" stroke-opacity="0.15" stroke-width="1.5"/>
<path d="M1743.95 -119.727L1648.43 62.673" stroke="#79A7F0" stroke-opacity="0.15" stroke-width="1.5"/>
<path d="M1743.95 -119.727L1903.77 67.0566" stroke="#79A7F0" stroke-opacity="0.15" stroke-width="1.5"/>
<path d="M1743.95 -119.727L1745.67 271.497" stroke="#79A7F0" stroke-opacity="0.15" stroke-width="1.5"/>
<path d="M1725.56 932.642L1921.41 755.711" stroke="#79A7F0" stroke-opacity="0.15" stroke-width="1.5"/>
<path d="M1725.56 932.642L1668.8 674.799" stroke="#79A7F0" stroke-opacity="0.15" stroke-width="1.5"/>
<path d="M1725.56 932.643L1520.11 699.92" stroke="#79A7F0" stroke-opacity="0.15" stroke-width="1.5"/>
<path d="M1921.41 755.712L1881.86 546.617" stroke="#79A7F0" stroke-opacity="0.15" stroke-width="1.5"/>
<path d="M294.23 900.356L628.568 694.192" stroke="#79A7F0" stroke-opacity="0.15" stroke-width="1.5"/>
<path d="M498.818 911.62L628.569 694.192" stroke="#79A7F0" stroke-opacity="0.15" stroke-width="1.5"/>
<path d="M882.588 523.599L1084.53 482.111" stroke="#79A7F0" stroke-opacity="0.15" stroke-width="1.5"/>
<path d="M882.588 523.599L931.709 756.39" stroke="#79A7F0" stroke-opacity="0.15" stroke-width="1.5"/>
<path d="M882.589 523.599L628.569 694.192" stroke="#79A7F0" stroke-opacity="0.15" stroke-width="1.5"/>
<path d="M882.588 523.599L908.709 897.261" stroke="#79A7F0" stroke-opacity="0.15" stroke-width="1.5"/>
<path d="M1084.53 482.111L1316.73 493.837" stroke="#79A7F0" stroke-opacity="0.15" stroke-width="1.5"/>
<path d="M1084.53 482.111L1286.24 715.906" stroke="#79A7F0" stroke-opacity="0.15" stroke-width="1.5"/>
<path d="M1043.45 942.468L931.709 756.39" stroke="#79A7F0" stroke-opacity="0.15" stroke-width="1.5"/>
<path d="M1316.73 493.837L1454.05 501.071" stroke="#79A7F0" stroke-opacity="0.15" stroke-width="1.5"/>
<path d="M1316.73 493.837L1286.24 715.906" stroke="#79A7F0" stroke-opacity="0.15" stroke-width="1.5"/>
<path d="M1286.24 715.907L1454.05 501.071" stroke="#79A7F0" stroke-opacity="0.15" stroke-width="1.5"/>
<path d="M1524.48 342.041L1454.05 501.071" stroke="#79A7F0" stroke-opacity="0.15" stroke-width="1.5"/>
<path d="M1524.48 342.041L1745.69 271.496" stroke="#79A7F0" stroke-opacity="0.15" stroke-width="1.5"/>
<path d="M1454.05 501.071L1723.58 556.13" stroke="#79A7F0" stroke-opacity="0.15" stroke-width="1.5"/>
<path d="M1509.99 965.064L1668.8 674.799" stroke="#79A7F0" stroke-opacity="0.15" stroke-width="1.5"/>
<path d="M1509.99 965.064L1286.24 715.906" stroke="#79A7F0" stroke-opacity="0.15" stroke-width="1.5"/>
<path d="M1509.99 965.065L1723.58 556.13" stroke="#79A7F0" stroke-opacity="0.15" stroke-width="1.5"/>
<path d="M1648.43 62.6729L1745.69 271.496" stroke="#79A7F0" stroke-opacity="0.15" stroke-width="1.5"/>
<path d="M1745.69 271.497L1948.28 271.32" stroke="#79A7F0" stroke-opacity="0.15" stroke-width="1.5"/>
<path d="M1723.58 556.13L1668.8 674.799" stroke="#79A7F0" stroke-opacity="0.15" stroke-width="1.5"/>
<path d="M1723.58 556.13L1881.86 546.617" stroke="#79A7F0" stroke-opacity="0.15" stroke-width="1.5"/>
<path d="M1668.8 674.799L1881.85 546.617" stroke="#79A7F0" stroke-opacity="0.15" stroke-width="1.5"/>
<path d="M1852.03 -86.7485L1903.77 67.0565" stroke="#79A7F0" stroke-opacity="0.15" stroke-width="1.5"/>
<path d="M1852.03 -86.7485L1648.43 62.6729" stroke="#79A7F0" stroke-opacity="0.15" stroke-width="1.5"/>
<path d="M1903.77 67.0564L1948.28 271.32" stroke="#79A7F0" stroke-opacity="0.15" stroke-width="1.5"/>
<path d="M1903.77 67.0564L1648.43 62.6729" stroke="#79A7F0" stroke-opacity="0.15" stroke-width="1.5"/>
<path d="M1903.77 67.0564L1745.69 271.496" stroke="#79A7F0" stroke-opacity="0.15" stroke-width="1.5"/>
<path d="M1903.77 67.0565L2123.35 -117.922" stroke="#79A7F0" stroke-opacity="0.15" stroke-width="1.5"/>
<path d="M1881.86 546.617L1948.28 271.32" stroke="#79A7F0" stroke-opacity="0.15" stroke-width="1.5"/>
<path d="M1881.86 546.616L1745.69 271.496" stroke="#79A7F0" stroke-opacity="0.15" stroke-width="1.5"/>
<path d="M1948.53 938.681L1668.8 674.799" stroke="#79A7F0" stroke-opacity="0.15" stroke-width="1.5"/>
<path d="M1948.54 938.682L1881.86 546.617" stroke="#79A7F0" stroke-opacity="0.15" stroke-width="1.5"/>
<path d="M1108.98 743.836C1127.72 743.836 1142.9 728.646 1142.9 709.908C1142.9 691.169 1127.72 675.979 1108.98 675.979C1090.24 675.979 1075.06 691.169 1075.06 709.908C1075.06 728.646 1090.24 743.836 1108.98 743.836Z" fill="url(#paint0_radial_174_2660)" fill-opacity="0.3"/>
<path d="M1520.11 733.848C1538.84 733.848 1554.03 718.657 1554.03 699.919C1554.03 681.181 1538.84 665.991 1520.11 665.991C1501.37 665.991 1486.19 681.181 1486.19 699.919C1486.19 718.657 1501.37 733.848 1520.11 733.848Z" fill="url(#paint1_radial_174_2660)" fill-opacity="0.3"/>
<path d="M1921.41 789.64C1940.15 789.64 1955.33 774.45 1955.33 755.712C1955.33 736.974 1940.15 721.783 1921.41 721.783C1902.67 721.783 1887.49 736.974 1887.49 755.712C1887.49 774.45 1902.67 789.64 1921.41 789.64Z" fill="url(#paint2_radial_174_2660)" fill-opacity="0.3"/>
<path d="M250.823 768.808C254.57 768.808 257.608 765.77 257.608 762.022C257.608 758.274 254.57 755.236 250.823 755.236C247.076 755.236 244.038 758.274 244.038 762.022C244.038 765.77 247.076 768.808 250.823 768.808Z" fill="#BDD3FA" fill-opacity="0.2"/>
<path d="M628.569 700.978C632.316 700.978 635.354 697.94 635.354 694.192C635.354 690.445 632.316 687.407 628.569 687.407C624.822 687.407 621.784 690.445 621.784 694.192C621.784 697.94 624.822 700.978 628.569 700.978Z" fill="#BDD3FA" fill-opacity="0.2"/>
<path d="M882.589 530.385C886.337 530.385 889.374 527.347 889.374 523.599C889.374 519.852 886.337 516.813 882.589 516.813C878.842 516.813 875.805 519.852 875.805 523.599C875.805 527.347 878.842 530.385 882.589 530.385Z" fill="#BDD3FA" fill-opacity="0.2"/>
<path d="M931.709 763.176C935.456 763.176 938.493 760.138 938.493 756.39C938.493 752.643 935.456 749.605 931.709 749.605C927.961 749.605 924.924 752.643 924.924 756.39C924.924 760.138 927.961 763.176 931.709 763.176Z" fill="#BDD3FA" fill-opacity="0.2"/>
<path d="M1084.53 488.897C1088.27 488.897 1091.31 485.859 1091.31 482.112C1091.31 478.364 1088.27 475.326 1084.53 475.326C1080.78 475.326 1077.74 478.364 1077.74 482.112C1077.74 485.859 1080.78 488.897 1084.53 488.897Z" fill="#BDD3FA" fill-opacity="0.2"/>
<path d="M1316.73 500.623C1320.48 500.623 1323.51 497.585 1323.51 493.837C1323.51 490.09 1320.48 487.052 1316.73 487.052C1312.98 487.052 1309.95 490.09 1309.95 493.837C1309.95 497.585 1312.98 500.623 1316.73 500.623Z" fill="#BDD3FA" fill-opacity="0.2"/>
<path d="M1286.24 722.692C1289.99 722.692 1293.02 719.654 1293.02 715.907C1293.02 712.159 1289.99 709.121 1286.24 709.121C1282.49 709.121 1279.45 712.159 1279.45 715.907C1279.45 719.654 1282.49 722.692 1286.24 722.692Z" fill="#BDD3FA" fill-opacity="0.2"/>
<path d="M1524.48 348.826C1528.23 348.826 1531.26 345.788 1531.26 342.041C1531.26 338.293 1528.23 335.255 1524.48 335.255C1520.73 335.255 1517.69 338.293 1517.69 342.041C1517.69 345.788 1520.73 348.826 1524.48 348.826Z" fill="#BDD3FA" fill-opacity="0.2"/>
<path d="M1454.05 507.856C1457.8 507.856 1460.84 504.818 1460.84 501.07C1460.84 497.323 1457.8 494.285 1454.05 494.285C1450.31 494.285 1447.27 497.323 1447.27 501.07C1447.27 504.818 1450.31 507.856 1454.05 507.856Z" fill="#BDD3FA" fill-opacity="0.2"/>
<path d="M1648.44 69.4586C1652.18 69.4586 1655.22 66.4206 1655.22 62.6729C1655.22 58.9253 1652.18 55.8872 1648.44 55.8872C1644.69 55.8872 1641.65 58.9253 1641.65 62.6729C1641.65 66.4206 1644.69 69.4586 1648.44 69.4586Z" fill="#BDD3FA" fill-opacity="0.2"/>
<path d="M1745.69 278.282C1749.43 278.282 1752.47 275.244 1752.47 271.497C1752.47 267.749 1749.43 264.711 1745.69 264.711C1741.94 264.711 1738.9 267.749 1738.9 271.497C1738.9 275.244 1741.94 278.282 1745.69 278.282Z" fill="#BDD3FA" fill-opacity="0.2"/>
<path d="M1723.58 562.915C1727.33 562.915 1730.37 559.877 1730.37 556.13C1730.37 552.382 1727.33 549.344 1723.58 549.344C1719.84 549.344 1716.8 552.382 1716.8 556.13C1716.8 559.877 1719.84 562.915 1723.58 562.915Z" fill="#BDD3FA" fill-opacity="0.2"/>
<path d="M1668.8 681.585C1672.55 681.585 1675.59 678.547 1675.59 674.799C1675.59 671.051 1672.55 668.013 1668.8 668.013C1665.06 668.013 1662.02 671.051 1662.02 674.799C1662.02 678.547 1665.06 681.585 1668.8 681.585Z" fill="#BDD3FA" fill-opacity="0.2"/>
<path d="M1903.77 73.8422C1907.52 73.8422 1910.56 70.8041 1910.56 67.0565C1910.56 63.3088 1907.52 60.2708 1903.77 60.2708C1900.02 60.2708 1896.99 63.3088 1896.99 67.0565C1896.99 70.8041 1900.02 73.8422 1903.77 73.8422Z" fill="#BDD3FA" fill-opacity="0.2"/>
<path d="M1881.86 553.402C1885.6 553.402 1888.64 550.364 1888.64 546.616C1888.64 542.869 1885.6 539.831 1881.86 539.831C1878.11 539.831 1875.07 542.869 1875.07 546.616C1875.07 550.364 1878.11 553.402 1881.86 553.402Z" fill="#BDD3FA" fill-opacity="0.2"/>
</g>
</g>
<defs>
<radialGradient id="paint0_radial_174_2660" cx="0" cy="0" r="1" gradientUnits="userSpaceOnUse" gradientTransform="translate(1108.98 709.908) scale(33.9236 33.9286)">
<stop offset="0.1" stop-color="#BDD3FA"/>
<stop offset="0.2" stop-color="#4A86E8"/>
<stop offset="1" stop-color="#4A86E8" stop-opacity="0"/>
</radialGradient>
<radialGradient id="paint1_radial_174_2660" cx="0" cy="0" r="1" gradientUnits="userSpaceOnUse" gradientTransform="translate(1520.11 699.919) scale(33.9236 33.9286)">
<stop offset="0.1" stop-color="#BDD3FA"/>
<stop offset="0.2" stop-color="#4A86E8"/>
<stop offset="1" stop-color="#4A86E8" stop-opacity="0"/>
</radialGradient>
<radialGradient id="paint2_radial_174_2660" cx="0" cy="0" r="1" gradientUnits="userSpaceOnUse" gradientTransform="translate(1921.41 755.712) scale(33.9236 33.9286)">
<stop offset="0.1" stop-color="#BDD3FA"/>
<stop offset="0.2" stop-color="#4A86E8"/>
<stop offset="1" stop-color="#4A86E8" stop-opacity="0"/>
</radialGradient>
<clipPath id="clip0_174_2660">
<rect width="1954" height="760" fill="white" transform="translate(-34)"/>
</clipPath>
</defs>
</svg>
