<svg width="200" height="37" viewBox="0 0 200 37" fill="none" xmlns="http://www.w3.org/2000/svg">
<path d="M40.3653 10.6108C33.0997 10.6108 27.4228 16.1262 27.4228 23.5098C27.4228 30.8933 32.9563 36.3615 40.3653 36.3615C47.7742 36.3615 53.404 30.7989 53.404 23.4626C53.404 16.1734 47.8704 10.6108 40.3653 10.6108ZM40.4143 31.0404C36.2768 31.0404 33.245 27.827 33.245 23.5116C33.245 19.1472 36.2278 15.9356 40.3653 15.9356C44.5518 15.9356 47.5818 19.1962 47.5818 23.5116C47.5818 27.827 44.5518 31.0404 40.4143 31.0404ZM54.9907 16.2224H58.5999V35.884H64.3731V11.0901H54.9907V16.2224ZM12.8935 15.9338C15.9253 15.9338 18.3309 17.8037 19.244 20.585H25.3549C24.2475 14.6394 19.3403 10.6108 12.9425 10.6108C5.67699 10.6108 0 16.1262 0 23.5116C0 30.8969 5.53357 36.3633 12.9425 36.3633C19.1968 36.3633 24.2003 32.3348 25.3077 26.3401H19.244C18.3781 29.1214 15.9725 31.0404 12.9407 31.0404C8.75422 31.0404 5.82041 27.827 5.82041 23.5116C5.82223 19.1472 8.70883 15.9338 12.8935 15.9338ZM164.685 21.1133L160.452 20.4906C158.431 20.2038 156.988 19.5321 156.988 17.949C156.988 16.2224 158.865 15.3601 161.414 15.3601C164.204 15.3601 165.985 16.5583 166.37 18.5245H171.951C171.325 13.5374 167.476 10.6126 161.559 10.6126C155.448 10.6126 151.407 13.7298 151.407 18.1414C151.407 22.3606 154.054 24.8078 159.393 25.574L163.627 26.1967C165.697 26.4835 166.851 27.3005 166.851 28.8346C166.851 30.8007 164.831 31.6159 162.04 31.6159C158.624 31.6159 156.699 30.2252 156.41 28.1156H150.733C151.264 32.9593 155.063 36.3633 161.991 36.3633C168.295 36.3633 172.479 33.4858 172.479 28.5459C172.479 24.1343 169.449 21.8323 164.685 21.1133ZM61.4865 0.876239C59.3697 0.876239 57.7811 2.41032 57.7811 4.5199C57.7811 6.62948 59.3678 8.16356 61.4865 8.16356C63.6034 8.16356 65.1919 6.62948 65.1919 4.5199C65.1919 2.41032 63.6034 0.876239 61.4865 0.876239ZM146.211 19.5793C146.211 14.2091 142.94 10.6126 136.012 10.6126C129.469 10.6126 125.812 13.9222 125.09 19.0056H130.816C131.105 17.0394 132.644 15.4091 135.916 15.4091C138.851 15.4091 140.294 16.7036 140.294 18.2866C140.294 20.349 137.648 20.8755 134.376 21.2114C129.95 21.6907 124.465 23.2247 124.465 28.9798C124.465 33.4404 127.786 36.3161 133.078 36.3161C137.215 36.3161 139.813 34.5896 141.113 31.8555C141.306 34.3009 143.134 35.884 145.685 35.884H149.052V30.7535H146.213V19.5793H146.211ZM140.534 25.8136C140.534 29.1232 137.648 31.5687 134.135 31.5687C131.969 31.5687 130.141 30.6573 130.141 28.7401C130.141 26.2947 133.076 25.623 135.77 25.3361C138.368 25.0965 139.812 24.521 140.534 23.4172V25.8136ZM109.887 10.6108C106.663 10.6108 103.969 11.9543 102.044 14.2073V0.636597H96.271V35.884H101.948V32.6234C103.872 34.9727 106.616 36.3633 109.887 36.3633C116.815 36.3633 122.06 30.8969 122.06 23.5116C122.06 16.1262 116.719 10.6108 109.887 10.6108ZM109.021 31.0404C104.884 31.0404 101.852 27.827 101.852 23.5116C101.852 19.1962 104.931 15.9356 109.068 15.9356C113.255 15.9356 116.189 19.149 116.189 23.5116C116.189 27.827 113.159 31.0404 109.021 31.0404ZM82.4625 10.6108C78.7099 10.6108 76.2554 12.1449 74.8121 14.3035V11.0901H69.0861V35.8822H74.8593V22.4078C74.8593 18.6189 77.2648 15.9338 80.825 15.9338C84.1455 15.9338 86.2133 18.283 86.2133 21.6888V35.884H91.9865V21.2586C91.9883 15.0224 88.7658 10.6108 82.4625 10.6108ZM200 22.6964C200 15.5997 194.804 10.6126 187.827 10.6126C180.418 10.6126 174.981 16.1752 174.981 23.5116C174.981 31.2328 180.803 36.3633 187.923 36.3633C193.938 36.3633 198.653 32.8141 199.855 27.7798H193.84C192.974 29.9856 190.857 31.2328 188.018 31.2328C184.312 31.2328 181.522 28.9308 180.898 24.9022H199.998V22.6964H200ZM181.235 20.7775C182.15 17.3244 184.748 15.6469 187.731 15.6469C191.003 15.6469 193.504 17.5169 194.082 20.7775H181.235Z" fill="white"/>
</svg>
