<svg width="200" height="42" viewBox="0 0 200 42" fill="none" xmlns="http://www.w3.org/2000/svg">
<path d="M21.7406 3.71478C22.4801 3.3479 23.2069 2.95218 23.9617 2.62007C25.6085 1.8955 27.327 1.39804 29.1089 1.14203C29.7466 1.05041 30.3929 1.01058 31.0367 0.970507C31.5563 0.938157 32.0789 0.917076 32.599 0.932428C34.5023 0.988622 36.3715 1.23901 38.1566 1.95211C38.6482 2.14848 39.0804 2.40156 39.3363 2.88674C39.3487 3.31471 39.3363 2.91772 39.3363 3.3312C39.3363 3.49013 39.2051 4.30721 39.1974 4.34441C38.5133 7.65369 37.1186 10.5765 35.0803 13.2494C33.9264 14.7625 32.5941 16.102 31.1192 17.3379C30.0373 18.2222 28.8998 18.9826 27.6956 19.6372C26.8901 20.0751 26.0576 20.4634 25.2372 20.874C24.666 21.0999 24.1017 21.3458 23.5221 21.5477C22.1924 22.0108 20.853 22.4458 19.522 22.9053C18.7631 23.1672 18.0338 23.4968 17.3888 23.9861C16.2498 24.85 15.6362 26.0322 15.3534 27.4034C15.1412 28.4325 14.9888 29.475 14.7495 30.4973C13.9442 33.9372 12.0467 36.6506 9.19871 38.7163C9.13463 38.7627 9.06528 38.8019 8.98024 38.8437C8.96208 38.8428 8.95214 38.8357 8.95214 38.8357C9.68694 37.6377 10.3374 36.3992 10.7962 35.0654C11.0918 34.2058 11.3293 33.3308 11.4383 32.4295C11.5126 31.8151 11.5187 31.1924 11.553 30.5733C11.5562 30.5155 11.5429 30.4567 11.5342 30.3667C11.4936 30.4207 11.4663 30.4471 11.4507 30.4791C10.4033 32.6298 8.90377 34.4341 7.15629 36.0416C5.04237 37.9862 2.72798 39.6542 0.191978 41.0093C0.135486 41.0395 0.0770871 41.0661 0 41.0725C0.138137 40.9107 0.28007 40.752 0.41382 40.5866C1.64795 39.0611 2.60967 37.3747 3.2981 35.5418C3.74412 34.3543 4.11331 33.138 4.52141 31.9361C5.07107 30.3173 5.83424 28.8028 6.76163 27.3688C6.91969 27.1244 7.06901 26.8744 7.22155 26.6264C7.23509 26.6044 7.24261 26.5787 7.27608 26.5009C5.89881 27.1454 4.73435 28.0068 3.68984 29.0339C2.64356 30.0628 1.75279 31.2154 1.04281 32.5055C1.0232 32.4985 1.0036 32.4915 0.983991 32.4845C1.07711 31.9211 1.14827 31.3531 1.26712 30.7952C1.81321 28.2321 3.2558 26.2581 5.31849 24.7021C6.42624 23.8665 7.64527 23.2383 8.95879 22.7925C9.01369 22.7738 9.06692 22.7503 9.13035 22.7253C9.08162 22.4963 8.74813 22.2817 8.74813 22.2817C8.36455 22.0539 7.93376 21.9765 7.50107 21.9118C7.24039 21.8729 6.97825 21.8437 6.68447 21.806C6.73396 21.7353 6.76961 21.6769 6.81247 21.6242C7.86279 20.335 9.13591 19.3132 10.5798 18.4993C10.7115 18.425 10.7817 18.3336 10.8318 18.1934C11.4177 16.5546 12.0684 14.9423 12.8317 13.377C12.8917 13.2538 12.9483 13.129 13.0202 12.9847C13.0661 12.9068 13.1002 12.8502 13.1301 12.7915C14.6944 9.72415 16.8727 7.17459 19.6342 5.12652C20.3124 4.6236 21.0372 4.18367 21.7406 3.71478ZM20.45 13.5201C21.3109 12.5374 22.1718 11.5547 23.0326 10.572C22.8935 10.5732 22.7727 10.6021 22.6557 10.642C20.6354 11.3317 18.9229 12.4995 17.4279 14.0063C15.6906 15.7573 14.3261 17.7703 13.2229 19.9686C12.3468 21.7144 11.6551 23.528 11.2501 25.4412C11.1084 26.1102 11.0277 26.7933 10.9455 27.4731C10.8969 27.8748 10.9 28.2828 10.8788 28.7081C10.9219 28.6834 10.9368 28.6801 10.9412 28.6714C10.9798 28.5947 11.0191 28.5181 11.0535 28.4394C11.9275 26.442 13.0428 24.5995 14.5319 22.9945C15.7536 21.6776 17.12 20.5265 18.5997 19.5166C19.9769 18.5767 21.3932 17.6943 22.7811 16.7697C23.1925 16.4957 23.5796 16.1802 23.9515 15.8536C24.164 15.6671 24.3233 15.4201 24.5066 15.2003C24.49 15.1749 24.4734 15.1495 24.4568 15.1241C22.3181 16.2741 20.0668 16.9794 17.6259 16.9352C17.6139 16.9167 17.6019 16.8982 17.5899 16.8797C18.5371 15.767 19.4844 14.6543 20.45 13.5201ZM27.3868 7.8232C26.9492 6.5107 26.9699 5.16525 27.1145 3.80829C27.0685 3.8371 27.0443 3.86699 27.0212 3.89779C25.7068 5.65707 25.5836 8.05855 26.7357 9.92996C27.7181 11.5256 29.1591 12.4659 30.9939 12.8036C31.4225 12.8825 31.8597 12.9146 32.2929 12.9683C32.2965 12.9468 32.3 12.9253 32.3035 12.9038C31.9345 12.7026 31.5575 12.5145 31.1978 12.2978C29.4391 11.2382 28.0796 9.83379 27.3868 7.8232ZM33.783 5.70973C33.9935 5.40136 33.9898 5.04883 33.9192 4.71567C33.7968 4.13773 33.1719 3.75784 32.5441 3.83339C31.9889 3.90021 31.4891 4.46144 31.4844 5.0235C31.4798 5.5701 31.8383 6.0687 32.3615 6.24324C32.8739 6.41421 33.4109 6.21976 33.783 5.70973Z" fill="url(#paint0_linear_189_1151)"/>
<path d="M21.7203 3.71332C21.0324 4.18529 20.3076 4.62522 19.6294 5.12814C16.8679 7.17622 14.6896 9.72577 13.1253 12.7931C13.0954 12.8518 13.0613 12.9084 13.0166 12.972C13.0879 12.6198 13.1755 12.2624 13.2546 11.9032C13.3984 11.2495 13.5041 10.5888 13.4755 9.9182C13.4464 9.23756 13.4063 8.55548 13.151 7.90896C12.7605 6.91985 11.9945 6.32116 11.0589 5.90685C10.6581 5.72934 10.2421 5.58607 9.8125 5.41928C9.86684 5.3793 9.92086 5.3365 9.97785 5.2981C10.9251 4.65968 11.969 4.23513 13.0693 3.95816C13.7844 3.77815 14.5137 3.65204 15.2399 3.51907C15.5225 3.46732 15.8134 3.44695 16.1012 3.44008C17.0324 3.41787 17.9663 3.36182 18.8948 3.40735C19.8342 3.4534 20.7684 3.60492 21.7203 3.71332Z" fill="url(#paint1_linear_189_1151)"/>
<path d="M25.2409 20.8891C26.0573 20.4644 26.8898 20.0761 27.6953 19.6382C28.8995 18.9835 30.0371 18.2232 31.1113 17.3499C30.7264 19.8275 29.634 21.948 27.838 23.7067C26.9828 24.5442 26.0313 25.2522 24.9977 25.8523C24.9833 25.8606 24.9648 25.8617 24.9865 25.8558C25.1548 25.3417 25.3652 24.8213 25.4914 24.2812C25.6434 23.6309 25.6773 22.9656 25.6096 22.2915C25.5605 21.8036 25.4419 21.3463 25.2409 20.8891Z" fill="url(#paint2_linear_189_1151)"/>
<path d="M49.5345 27.3756V12.9756H62.7945V15.6356H52.1945V18.8356H60.7145V21.5156H52.1945V27.3756H49.5345ZM63.8676 27.3756V15.7756H66.4876V27.3756H63.8676ZM63.8676 14.6156V11.9756H66.4876V14.6156H63.8676ZM71.5281 27.3756C71.0214 27.3756 70.5614 27.2489 70.1481 26.9956C69.7348 26.7422 69.4014 26.4089 69.1481 25.9956C68.8948 25.5822 68.7681 25.1222 68.7681 24.6156V24.1756H71.3881V24.5156C71.3881 24.5822 71.4081 24.6422 71.4481 24.6956C71.5014 24.7356 71.5614 24.7556 71.6281 24.7556H77.6881C77.7548 24.7556 77.8081 24.7356 77.8481 24.6956C77.9014 24.6422 77.9281 24.5822 77.9281 24.5156V23.1356C77.9281 23.0689 77.9014 23.0156 77.8481 22.9756C77.8081 22.9222 77.7548 22.8956 77.6881 22.8956H71.5281C71.0214 22.8956 70.5614 22.7689 70.1481 22.5156C69.7348 22.2622 69.4014 21.9289 69.1481 21.5156C68.8948 21.1022 68.7681 20.6422 68.7681 20.1356V18.5356C68.7681 18.0289 68.8948 17.5689 69.1481 17.1556C69.4014 16.7422 69.7348 16.4089 70.1481 16.1556C70.5614 15.9022 71.0214 15.7756 71.5281 15.7756H77.7881C78.3081 15.7756 78.7748 15.9022 79.1881 16.1556C79.6014 16.4089 79.9348 16.7422 80.1881 17.1556C80.4414 17.5689 80.5681 18.0289 80.5681 18.5356V18.9756H77.9281V18.6356C77.9281 18.5689 77.9014 18.5156 77.8481 18.4756C77.8081 18.4222 77.7548 18.3956 77.6881 18.3956H71.6281C71.5614 18.3956 71.5014 18.4222 71.4481 18.4756C71.4081 18.5156 71.3881 18.5689 71.3881 18.6356V20.0156C71.3881 20.0822 71.4081 20.1422 71.4481 20.1956C71.5014 20.2356 71.5614 20.2556 71.6281 20.2556H77.7881C78.3081 20.2556 78.7748 20.3822 79.1881 20.6356C79.6014 20.8889 79.9348 21.2222 80.1881 21.6356C80.4414 22.0489 80.5681 22.5089 80.5681 23.0156V24.6156C80.5681 25.1222 80.4414 25.5822 80.1881 25.9956C79.9348 26.4089 79.6014 26.7422 79.1881 26.9956C78.7748 27.2489 78.3081 27.3756 77.7881 27.3756H71.5281ZM82.599 27.3756V11.9756H85.219V15.7756H91.619C92.1257 15.7756 92.5857 15.9022 92.999 16.1556C93.4124 16.4089 93.7457 16.7422 93.999 17.1556C94.2524 17.5689 94.379 18.0289 94.379 18.5356V27.3756H91.759V18.6356C91.759 18.5689 91.7324 18.5156 91.679 18.4756C91.639 18.4222 91.5857 18.3956 91.519 18.3956H85.459C85.3924 18.3956 85.3324 18.4222 85.279 18.4756C85.239 18.5156 85.219 18.5689 85.219 18.6356V27.3756H82.599ZM102.112 27.3756V12.9756H105.012L113.852 23.4956V12.9756H116.512V27.3756H113.612L104.752 16.8356V27.3756H102.112ZM121.276 27.3756C120.769 27.3756 120.309 27.2489 119.896 26.9956C119.482 26.7422 119.149 26.4089 118.896 25.9956C118.642 25.5822 118.516 25.1222 118.516 24.6156V18.5356C118.516 18.0289 118.642 17.5689 118.896 17.1556C119.149 16.7422 119.482 16.4089 119.896 16.1556C120.309 15.9022 120.769 15.7756 121.276 15.7756H127.536C128.042 15.7756 128.502 15.9022 128.916 16.1556C129.342 16.4089 129.676 16.7422 129.916 17.1556C130.169 17.5689 130.296 18.0289 130.296 18.5356V22.8956H121.136V24.5156C121.136 24.5822 121.156 24.6422 121.196 24.6956C121.249 24.7356 121.309 24.7556 121.376 24.7556H130.296V27.3756H121.276ZM121.136 20.5356H127.676V18.6356C127.676 18.5689 127.649 18.5156 127.596 18.4756C127.556 18.4222 127.502 18.3956 127.436 18.3956H121.376C121.309 18.3956 121.249 18.4222 121.196 18.4756C121.156 18.5156 121.136 18.5689 121.136 18.6356V20.5356ZM135.163 27.3756C134.657 27.3756 134.197 27.2489 133.783 26.9956C133.37 26.7422 133.037 26.4089 132.783 25.9956C132.53 25.5822 132.403 25.1222 132.403 24.6156V12.2156H135.023V15.7756H139.543V18.3956H135.023V24.5156C135.023 24.5822 135.043 24.6422 135.083 24.6956C135.137 24.7356 135.197 24.7556 135.263 24.7556H139.543V27.3756H135.163ZM145.373 27.3756L140.813 15.7756H143.593L146.413 22.6156L149.373 15.7756H152.093L155.253 22.6556L157.873 15.7756H160.653L156.293 27.3756H154.253L150.753 19.6356L147.413 27.3756H145.373ZM164.127 27.3756C163.62 27.3756 163.16 27.2489 162.747 26.9956C162.334 26.7422 162 26.4089 161.747 25.9956C161.494 25.5822 161.367 25.1222 161.367 24.6156V18.5356C161.367 18.0289 161.494 17.5689 161.747 17.1556C162 16.7422 162.334 16.4089 162.747 16.1556C163.16 15.9022 163.62 15.7756 164.127 15.7756H170.387C170.894 15.7756 171.354 15.9022 171.767 16.1556C172.194 16.4089 172.527 16.7422 172.767 17.1556C173.02 17.5689 173.147 18.0289 173.147 18.5356V24.6156C173.147 25.1222 173.02 25.5822 172.767 25.9956C172.527 26.4089 172.2 26.7422 171.787 26.9956C171.374 27.2489 170.907 27.3756 170.387 27.3756H164.127ZM164.227 24.7556H170.287C170.354 24.7556 170.407 24.7356 170.447 24.6956C170.5 24.6422 170.527 24.5822 170.527 24.5156V18.6356C170.527 18.5689 170.5 18.5156 170.447 18.4756C170.407 18.4222 170.354 18.3956 170.287 18.3956H164.227C164.16 18.3956 164.1 18.4222 164.047 18.4756C164.007 18.5156 163.987 18.5689 163.987 18.6356V24.5156C163.987 24.5822 164.007 24.6422 164.047 24.6956C164.1 24.7356 164.16 24.7556 164.227 24.7556ZM174.805 27.3756V18.5356C174.805 18.0289 174.932 17.5689 175.185 17.1556C175.438 16.7422 175.772 16.4089 176.185 16.1556C176.612 15.9022 177.072 15.7756 177.565 15.7756H184.005V18.3956H177.665C177.598 18.3956 177.538 18.4222 177.485 18.4756C177.445 18.5156 177.425 18.5689 177.425 18.6356V27.3756H174.805ZM185.294 27.3756V11.9756H187.914V20.2556H189.974L194.114 15.7756H196.914V16.4956L192.294 21.5756L196.894 26.6556V27.3756H194.114L189.974 22.8956H187.914V27.3756H185.294Z" fill="white"/>
<defs>
<linearGradient id="paint0_linear_189_1151" x1="33.0188" y1="-3.14539" x2="9.43691" y2="41.0584" gradientUnits="userSpaceOnUse">
<stop stop-color="#066EFF"/>
<stop offset="0.216346" stop-color="#067AFF"/>
<stop offset="0.576923" stop-color="#233AFF"/>
<stop offset="1" stop-color="#D901F5"/>
</linearGradient>
<linearGradient id="paint1_linear_189_1151" x1="10.8823" y1="4.88244" x2="16.9695" y2="11.1719" gradientUnits="userSpaceOnUse">
<stop stop-color="#1F17D5"/>
<stop offset="1" stop-color="#590CE7"/>
</linearGradient>
<linearGradient id="paint2_linear_189_1151" x1="26.4823" y1="19.4243" x2="28.0518" y2="25.8413" gradientUnits="userSpaceOnUse">
<stop stop-color="#1F17D5"/>
<stop offset="1" stop-color="#590CE7"/>
</linearGradient>
</defs>
</svg>
