<svg width="1024" height="758" viewBox="0 0 1024 758" fill="none" xmlns="http://www.w3.org/2000/svg">
<path d="M-242 -97.3677C-216.988 -80.4364 -175.955 25.2461 -121.945 -16.0977C-67.9344 -57.4414 -40.748 -282.824 17.2497 -295.818C75.2474 -308.811 98.4465 -111.936 156.444 -78.4677C214.442 -44.9989 237.641 -160.368 295.639 -135.168C353.636 -109.968 376.835 69.6611 434.833 42.4923C492.831 15.3236 516.03 -252.978 574.028 -265.578C632.025 -278.178 655.224 -32.9502 713.222 -17.9877C771.22 -3.02516 794.419 -189.426 852.417 -193.758C910.414 -198.089 933.613 -30.5089 991.611 -38.7777C1049.61 -47.0464 1072.81 -234.629 1130.81 -233.448C1188.8 -232.266 1241 -74.8452 1270 -33.1077" stroke="#7620EE" stroke-opacity="0.23" stroke-linecap="round"/>
<path d="M-242 894.882C-216.988 911.814 -175.955 1017.5 -121.945 976.152C-67.9344 934.809 -40.748 709.426 17.2497 696.432C75.2474 683.439 98.4465 880.314 156.444 913.782C214.442 947.251 237.641 831.882 295.639 857.082C353.636 882.282 376.835 1061.91 434.833 1034.74C492.831 1007.57 516.03 739.272 574.028 726.672C632.025 714.072 655.224 959.3 713.222 974.262C771.22 989.225 794.419 802.824 852.417 798.492C910.414 794.161 933.613 961.741 991.611 953.472C1049.61 945.204 1072.81 757.621 1130.81 758.802C1188.8 759.984 1241 917.405 1270 959.142" stroke="#7620EE" stroke-opacity="0.23" stroke-linecap="round"/>
<path d="M-242 828.732C-216.988 845.664 -175.955 951.346 -121.945 910.002C-67.9344 868.659 -40.748 643.276 17.2497 630.282C75.2474 617.289 98.4465 814.164 156.444 847.632C214.442 881.101 237.641 765.732 295.639 790.932C353.636 816.132 376.835 995.761 434.833 968.592C492.831 941.424 516.03 673.122 574.028 660.522C632.025 647.922 655.224 893.15 713.222 908.112C771.22 923.075 794.419 736.674 852.417 732.342C910.414 728.011 933.613 895.591 991.611 887.322C1049.61 879.054 1072.81 691.471 1130.81 692.652C1188.8 693.834 1241 851.255 1270 892.992" stroke="#7620EE" stroke-opacity="0.23" stroke-linecap="round"/>
<path d="M-242 762.582C-216.988 779.514 -175.955 885.196 -121.945 843.852C-67.9344 802.509 -40.748 577.126 17.2497 564.132C75.2474 551.139 98.4465 748.014 156.444 781.482C214.442 814.951 237.641 699.582 295.639 724.782C353.636 749.982 376.835 929.611 434.833 902.442C492.831 875.274 516.03 606.972 574.028 594.372C632.025 581.772 655.224 827 713.222 841.962C771.22 856.925 794.419 670.524 852.417 666.192C910.414 661.861 933.613 829.441 991.611 821.172C1049.61 812.904 1072.81 625.321 1130.81 626.502C1188.8 627.684 1241 785.105 1270 826.842" stroke="#7620EE" stroke-opacity="0.23" stroke-linecap="round"/>
<path d="M-242 696.432C-216.988 713.364 -175.955 819.046 -121.945 777.702C-67.9344 736.359 -40.748 510.976 17.2497 497.982C75.2474 484.989 98.4465 681.864 156.444 715.332C214.442 748.801 237.641 633.432 295.639 658.632C353.636 683.832 376.835 863.461 434.833 836.292C492.831 809.124 516.03 540.822 574.028 528.222C632.025 515.622 655.224 760.85 713.222 775.812C771.22 790.775 794.419 604.374 852.417 600.042C910.414 595.711 933.613 763.291 991.611 755.022C1049.61 746.754 1072.81 559.171 1130.81 560.352C1188.8 561.534 1241 718.955 1270 760.692" stroke="#7620EE" stroke-opacity="0.23" stroke-linecap="round"/>
<path d="M-242 630.282C-216.988 647.213 -175.955 752.896 -121.945 711.552C-67.9344 670.208 -40.748 444.826 17.2497 431.832C75.2474 418.838 98.4465 615.713 156.444 649.182C214.442 682.651 237.641 567.282 295.639 592.482C353.636 617.682 376.835 797.311 434.833 770.142C492.831 742.973 516.03 474.672 574.028 462.072C632.025 449.472 655.224 694.7 713.222 709.662C771.22 724.625 794.419 538.223 852.417 533.892C910.414 529.561 933.613 697.141 991.611 688.872C1049.61 680.603 1072.81 493.021 1130.81 494.202C1188.8 495.383 1241 652.805 1270 694.542" stroke="#7620EE" stroke-opacity="0.23" stroke-linecap="round"/>
<path d="M-242 564.132C-216.988 581.064 -175.955 686.746 -121.945 645.402C-67.9344 604.059 -40.748 378.676 17.2497 365.682C75.2474 352.689 98.4465 549.564 156.444 583.032C214.442 616.501 237.641 501.132 295.639 526.332C353.636 551.532 376.835 731.161 434.833 703.992C492.831 676.824 516.03 408.522 574.028 395.922C632.025 383.322 655.224 628.55 713.222 643.512C771.22 658.475 794.419 472.074 852.417 467.742C910.414 463.411 933.613 630.991 991.611 622.722C1049.61 614.454 1072.81 426.871 1130.81 428.052C1188.8 429.234 1241 586.655 1270 628.392" stroke="#7620EE" stroke-opacity="0.23" stroke-linecap="round"/>
<path d="M-242 497.982C-216.988 514.914 -175.955 620.596 -121.945 579.252C-67.9344 537.909 -40.748 312.526 17.2497 299.532C75.2474 286.539 98.4465 483.414 156.444 516.882C214.442 550.351 237.641 434.982 295.639 460.182C353.636 485.382 376.835 665.011 434.833 637.842C492.831 610.674 516.03 342.372 574.028 329.772C632.025 317.172 655.224 562.4 713.222 577.362C771.22 592.325 794.419 405.924 852.417 401.592C910.414 397.261 933.613 564.841 991.611 556.572C1049.61 548.304 1072.81 360.721 1130.81 361.902C1188.8 363.084 1241 520.505 1270 562.242" stroke="#7620EE" stroke-opacity="0.23" stroke-linecap="round"/>
<path d="M-242 431.832C-216.988 448.764 -175.955 554.446 -121.945 513.102C-67.9344 471.759 -40.748 246.376 17.2497 233.382C75.2474 220.389 98.4465 417.264 156.444 450.732C214.442 484.201 237.641 368.832 295.639 394.032C353.636 419.232 376.835 598.861 434.833 571.692C492.831 544.524 516.03 276.222 574.028 263.622C632.025 251.022 655.224 496.25 713.222 511.212C771.22 526.175 794.419 339.774 852.417 335.442C910.414 331.111 933.613 498.691 991.611 490.422C1049.61 482.154 1072.81 294.571 1130.81 295.752C1188.8 296.934 1241 454.355 1270 496.092" stroke="#7620EE" stroke-opacity="0.23" stroke-linecap="round"/>
<path d="M-242 365.682C-216.988 382.614 -175.955 488.296 -121.945 446.952C-67.9344 405.609 -40.748 180.226 17.2497 167.232C75.2474 154.239 98.4465 351.114 156.444 384.582C214.442 418.051 237.641 302.682 295.639 327.882C353.636 353.082 376.835 532.711 434.833 505.542C492.831 478.374 516.03 210.072 574.028 197.472C632.025 184.872 655.224 430.1 713.222 445.062C771.22 460.025 794.419 273.624 852.417 269.292C910.414 264.961 933.613 432.541 991.611 424.272C1049.61 416.004 1072.81 228.421 1130.81 229.602C1188.8 230.784 1241 388.205 1270 429.942" stroke="#7620EE" stroke-opacity="0.23" stroke-linecap="round"/>
<path d="M-242 299.532C-216.988 316.463 -175.955 422.146 -121.945 380.802C-67.9344 339.458 -40.748 114.076 17.2497 101.082C75.2474 88.0885 98.4465 284.963 156.444 318.432C214.442 351.901 237.641 236.532 295.639 261.732C353.636 286.932 376.835 466.561 434.833 439.392C492.831 412.223 516.03 143.922 574.028 131.322C632.025 118.722 655.224 363.95 713.222 378.912C771.22 393.875 794.419 207.473 852.417 203.142C910.414 198.811 933.613 366.391 991.611 358.122C1049.61 349.853 1072.81 162.271 1130.81 163.452C1188.8 164.633 1241 322.055 1270 363.792" stroke="#7620EE" stroke-opacity="0.23" stroke-linecap="round"/>
<path d="M-242 233.382C-216.988 250.314 -175.955 355.996 -121.945 314.652C-67.9344 273.309 -40.748 47.9261 17.2497 34.9323C75.2474 21.9386 98.4465 218.814 156.444 252.282C214.442 285.751 237.641 170.382 295.639 195.582C353.636 220.782 376.835 400.411 434.833 373.242C492.831 346.074 516.03 77.7723 574.028 65.1723C632.025 52.5723 655.224 297.8 713.222 312.762C771.22 327.725 794.419 141.324 852.417 136.992C910.414 132.661 933.613 300.241 991.611 291.972C1049.61 283.704 1072.81 96.1211 1130.81 97.3023C1188.8 98.4836 1241 255.905 1270 297.642" stroke="#7620EE" stroke-opacity="0.23" stroke-linecap="round"/>
<path d="M-242 167.232C-216.988 184.164 -175.955 289.846 -121.945 248.502C-67.9344 207.159 -40.748 -18.2238 17.2497 -31.2176C75.2474 -44.2113 98.4465 152.664 156.444 186.132C214.442 219.601 237.641 104.232 295.639 129.432C353.636 154.632 376.835 334.261 434.833 307.092C492.831 279.924 516.03 11.6224 574.028 -0.977592C632.025 -13.5776 655.224 231.65 713.222 246.612C771.22 261.575 794.419 75.1737 852.417 70.8424C910.414 66.5112 933.613 234.091 991.611 225.822C1049.61 217.554 1072.81 29.9712 1130.81 31.1524C1188.8 32.3337 1241 189.755 1270 231.492" stroke="#7620EE" stroke-opacity="0.23" stroke-linecap="round"/>
<path d="M-242 101.082C-216.988 118.014 -175.955 223.696 -121.945 182.352C-67.9344 141.009 -40.748 -84.374 17.2497 -97.3677C75.2474 -110.361 98.4465 86.5135 156.444 119.982C214.442 153.451 237.641 38.0823 295.639 63.2823C353.636 88.4823 376.835 268.111 434.833 240.942C492.831 213.774 516.03 -54.5277 574.028 -67.1277C632.025 -79.7277 655.224 165.5 713.222 180.462C771.22 195.425 794.419 9.02352 852.417 4.69227C910.414 0.361018 933.613 167.941 991.611 159.672C1049.61 151.404 1072.81 -36.179 1130.81 -34.9977C1188.8 -33.8165 1241 123.605 1270 165.342" stroke="#7620EE" stroke-opacity="0.23" stroke-linecap="round"/>
<path d="M-242 34.9324C-216.988 51.8636 -175.955 157.546 -121.945 116.202C-67.9344 74.8586 -40.748 -150.524 17.2497 -163.518C75.2474 -176.511 98.4465 20.3636 156.444 53.8324C214.442 87.3011 237.641 -28.0676 295.639 -2.86764C353.636 22.3324 376.835 201.961 434.833 174.792C492.831 147.624 516.03 -120.678 574.028 -133.278C632.025 -145.878 655.224 99.3499 713.222 114.312C771.22 129.275 794.419 -57.1264 852.417 -61.4576C910.414 -65.7889 933.613 101.791 991.611 93.5224C1049.61 85.2536 1072.81 -102.329 1130.81 -101.148C1188.8 -99.9664 1241 57.4549 1270 99.1924" stroke="#7620EE" stroke-opacity="0.23" stroke-linecap="round"/>
<path d="M-242 -31.2178C-216.988 -14.2865 -175.955 91.396 -121.945 50.0522C-67.9344 8.70848 -40.748 -216.674 17.2497 -229.668C75.2474 -242.662 98.4465 -45.7865 156.444 -12.3178C214.442 21.151 237.641 -94.2178 295.639 -69.0178C353.636 -43.8178 376.835 135.811 434.833 108.642C492.831 81.4735 516.03 -186.828 574.028 -199.428C632.025 -212.028 655.224 33.1997 713.222 48.1622C771.22 63.1247 794.419 -123.277 852.417 -127.608C910.414 -131.939 933.613 35.641 991.611 27.3722C1049.61 19.1035 1072.81 -168.479 1130.81 -167.298C1188.8 -166.117 1241 -8.69527 1270 33.0422" stroke="#7620EE" stroke-opacity="0.23" stroke-linecap="round"/>
</svg>
