<svg width="12" height="12" viewBox="0 0 12 12" fill="none" xmlns="http://www.w3.org/2000/svg">
<path fill-rule="evenodd" clip-rule="evenodd" d="M5.99985 0.311523C4.41561 0.311523 4.21678 0.31845 3.59458 0.346751C2.97356 0.375188 2.54969 0.473488 2.17877 0.617771C1.7951 0.766748 1.46966 0.966036 1.14542 1.29042C0.820939 1.61463 0.621605 1.9401 0.472127 2.32364C0.327525 2.69465 0.229088 3.11866 0.201152 3.73945C0.173307 4.36165 0.166016 4.56062 0.166016 6.14486C0.166016 7.7291 0.173079 7.92729 0.201243 8.54954C0.229817 9.17056 0.328117 9.59443 0.472263 9.96534C0.621377 10.349 0.820666 10.6745 1.14505 10.9987C1.46916 11.3232 1.7946 11.523 2.17804 11.6719C2.54919 11.8162 2.97319 11.9145 3.59407 11.943C4.21632 11.9713 4.41502 11.9782 5.99912 11.9782C7.5835 11.9782 7.78169 11.9713 8.40394 11.943C9.02491 11.9145 9.44928 11.8162 9.82047 11.6719C10.204 11.523 10.5289 11.3232 10.8531 10.9987C11.1775 10.6745 11.3769 10.349 11.5263 9.96543C11.6698 9.59443 11.7682 9.17042 11.7974 8.54963C11.8253 7.92743 11.8326 7.7291 11.8326 6.14486C11.8326 4.56062 11.8253 4.36178 11.7974 3.73958C11.7682 3.11857 11.6698 2.69465 11.5263 2.32378C11.3769 1.9401 11.1775 1.61463 10.8531 1.29042C10.5286 0.965945 10.2041 0.766611 9.82011 0.617771C9.44819 0.473488 9.02409 0.375188 8.40307 0.346751C7.78083 0.31845 7.58277 0.311523 5.99803 0.311523H5.99985ZM5.8053 1.36265H5.80544L5.99985 1.3627C7.55734 1.3627 7.74195 1.36831 8.357 1.39624C8.92575 1.42226 9.23445 1.51728 9.44008 1.59713C9.71228 1.70285 9.90637 1.82927 10.1104 2.03344C10.3146 2.2376 10.441 2.43206 10.5469 2.70426C10.6268 2.90966 10.7219 3.21832 10.7478 3.78707C10.7758 4.40203 10.7819 4.58673 10.7819 6.14354C10.7819 7.70029 10.7758 7.885 10.7478 8.49996C10.7218 9.0687 10.6268 9.37736 10.5469 9.58276C10.4412 9.85496 10.3146 10.0488 10.1104 10.2529C9.90624 10.457 9.71242 10.5834 9.44008 10.6892C9.23468 10.7694 8.92575 10.8642 8.357 10.8901C7.74209 10.9181 7.55734 10.9242 5.99985 10.9242C4.44223 10.9242 4.25761 10.9181 3.6427 10.8901C3.07395 10.8639 2.76525 10.7689 2.55953 10.689C2.28728 10.5833 2.09282 10.4569 1.88866 10.2527C1.68449 10.0486 1.55812 9.8546 1.45216 9.58226C1.37232 9.37691 1.27717 9.0682 1.25128 8.49945C1.2233 7.88454 1.21774 7.69979 1.21774 6.14208C1.21774 4.58432 1.2233 4.40057 1.25128 3.78561C1.27726 3.21687 1.37232 2.9082 1.45216 2.70258C1.55789 2.43033 1.68449 2.23592 1.88866 2.03175C2.09282 1.82759 2.28728 1.70117 2.55953 1.59521C2.76516 1.515 3.07395 1.42021 3.6427 1.39405C4.18082 1.36976 4.38936 1.36247 5.47654 1.36124V1.3627C5.57812 1.36256 5.68741 1.36261 5.8053 1.36265ZM8.41365 3.03107C8.41365 2.64447 8.72719 2.3313 9.11364 2.3313V2.33107C9.5001 2.33107 9.81363 2.64461 9.81363 3.03107C9.81363 3.41752 9.5001 3.73106 9.11364 3.73106C8.72719 3.73106 8.41365 3.41752 8.41365 3.03107ZM5.99971 3.14919C4.34543 3.14924 3.00418 4.49053 3.00418 6.14486C3.00418 7.79923 4.34547 9.13993 5.99985 9.13993C7.65422 9.13993 8.99502 7.79923 8.99502 6.14486C8.99502 4.49048 7.65409 3.14919 5.99971 3.14919ZM7.94429 6.14486C7.94429 5.07089 7.07368 4.20041 5.99985 4.20041C4.92589 4.20041 4.05541 5.07089 4.05541 6.14486C4.05541 7.21868 4.92589 8.0893 5.99985 8.0893C7.07368 8.0893 7.94429 7.21868 7.94429 6.14486Z" fill="white"/>
</svg>
