<svg width="200" height="31" viewBox="0 0 200 31" fill="none" xmlns="http://www.w3.org/2000/svg">
<path d="M10.2235 17.6049C7.8192 16.144 5.71966 17.2579 5.67657 19.9436C5.63598 22.4733 5.68481 25.0042 5.6592 27.5342C5.64199 29.2349 4.90512 30.3595 3.65487 30.7218C2.02386 31.1946 0.184957 30.1872 0.167553 28.4692C0.118791 23.6559 -0.465953 18.7958 0.883429 14.0524C3.40936 5.17303 11.8684 -0.714207 21.3408 0.16619C30.7451 1.04026 37.6492 8.48703 38.5451 17.1292C38.9209 20.7536 38.8016 24.4341 38.8104 28.0894C38.8143 29.6689 37.6359 30.7582 36.1705 30.8068C34.5886 30.8594 33.4195 29.8907 33.347 28.177C33.2306 25.4258 33.3071 22.6671 33.2534 19.9125C33.2187 18.1358 32.2474 17.0284 30.7549 16.9317C29.0165 16.819 27.7773 17.9784 27.7545 19.829C27.7206 22.5848 27.7693 25.3417 27.7274 28.0972C27.7065 29.4652 26.8299 30.5015 25.6334 30.7588C24.3422 31.0365 23.0837 30.4994 22.5735 29.3327C22.3481 28.8171 22.2757 28.2014 22.2685 27.6294C22.2367 25.0996 22.289 22.5684 22.242 20.039C22.2048 18.0346 21.0166 16.8404 19.2771 16.9295C17.7335 17.0085 16.6965 18.1819 16.6742 19.9779C16.6433 22.4626 16.6729 24.948 16.6633 27.433C16.6548 29.6453 15.668 30.8281 13.872 30.8084C12.1292 30.7892 11.1737 29.623 11.1669 27.4818C11.1592 25.0419 11.2372 22.5987 11.1252 20.1639C11.0865 19.324 10.5894 18.5051 10.2235 17.6049Z" fill="#7233F5"/>
<path d="M149.027 20.8896C151.404 26.6491 157.712 27.28 161.884 25.427C163.185 24.8491 164.084 23.393 165.216 22.3937C165.628 22.0294 166.165 21.6274 166.674 21.5847C168.015 21.4718 169.372 21.5465 170.861 21.5465C170.225 24.37 168.789 26.5905 166.56 28.1351C161.513 31.633 156.028 31.7728 150.604 29.2949C145.435 26.9334 143.41 22.3345 142.998 16.9134C142.759 13.766 143.088 10.6905 144.477 7.79694C147.178 2.16513 153.182 -0.79253 159.584 0.210746C167.24 1.41069 172.071 7.17139 171.435 16.2481C171.362 17.2904 170.719 17.1859 170.029 17.1853C163.344 17.1802 156.659 17.1822 149.974 17.1823C149.482 17.1823 148.991 17.1823 148.179 17.1823C148.475 18.4925 148.733 19.6411 149.027 20.8896ZM150.158 7.71165C149.116 9.24686 148.337 10.869 148.359 12.8103C154.313 12.8103 160.143 12.8103 166.005 12.8103C165.764 9.58338 164.562 7.00206 161.669 5.54824C158.316 3.86355 152.995 4.10125 150.158 7.71165Z" fill="#7336F5"/>
<path d="M97.927 0.308285C101.496 -0.0836825 104.912 -0.104104 108.092 1.57541C110.793 3.00202 112.297 5.2899 112.364 8.32995C112.468 13.1197 112.415 17.913 112.43 22.7047C112.431 23.1565 112.409 23.6126 112.461 24.0591C112.636 25.5547 113.423 26.1245 114.879 25.8179C115.272 25.7352 115.65 25.5829 116.213 25.4069C116.213 26.6557 116.316 27.8237 116.159 28.9553C116.1 29.3779 115.497 29.8801 115.03 30.0655C111.748 31.3708 109.248 30.3126 107.425 26.8129C105.7 28.8985 103.517 30.1964 100.897 30.5918C97.1333 31.1597 93.4328 31.065 90.4493 28.2618C85.9318 24.0173 87.4561 16.2788 93.3226 14.2977C96.5063 13.2225 99.9033 12.7784 103.205 12.0549C103.735 11.9389 104.282 11.8917 104.8 11.7405C105.968 11.3995 107.021 10.8902 107.242 9.51097C107.473 8.06976 107.128 6.80629 105.947 5.87541C103.503 3.94838 97.9401 4.07959 95.6165 6.16227C95.0626 6.65873 94.4804 7.31521 94.3056 7.99891C94.0329 9.06569 93.4434 9.17775 92.5451 9.13708C91.3337 9.08225 90.118 9.12347 88.9217 9.12347C88.4347 5.82274 91.8491 1.21761 97.927 0.308285ZM107.393 15.4593C107.279 15.3722 107.14 15.1895 107.054 15.2118C105.104 15.7195 103.162 16.2561 101.215 16.7735C99.267 17.291 97.2556 17.6369 95.3839 18.351C93.8343 18.9421 93.1197 20.3802 93.1741 22.0618C93.2282 23.7317 94.0324 24.9528 95.5661 25.6916C98.6137 27.1595 103.509 26.3125 105.678 23.7409C106.423 22.857 106.996 21.6621 107.202 20.5284C107.488 18.9525 107.354 17.3004 107.393 15.4593Z" fill="#7334F5"/>
<path d="M199.998 25.8955C199.998 27.2907 199.998 28.5504 199.998 29.9098C198.364 29.9098 196.81 29.9098 195.065 29.9098C195.065 29.4457 195.065 28.9678 195.065 28.4898C195.065 23.5193 195.125 18.5477 195.03 13.5791C194.999 11.9792 194.742 10.329 194.26 8.80563C193.581 6.65593 191.886 5.44214 189.684 5.04623C184.227 4.06511 180.25 7.39886 180.22 12.9802C180.193 18.0861 180.216 23.1922 180.216 28.2983C180.216 28.793 180.216 29.2877 180.216 29.8966C178.525 29.8966 176.893 29.8966 175.192 29.8966C175.192 20.2492 175.192 10.6462 175.192 0.969953C176.83 0.969953 178.393 0.969953 180.087 0.969953C180.087 2.00111 180.087 3.01604 180.087 4.40372C180.643 3.81264 180.963 3.47973 181.275 3.13971C185.365 -1.31884 194.388 -0.883179 197.913 3.96553C199.31 5.88566 199.955 8.08934 199.974 10.4422C200.015 15.5479 199.994 20.6541 199.998 25.8955Z" fill="#7335F5"/>
<path d="M123.722 5.82388C123.722 8.57087 123.722 11.1823 123.722 14.0299C124.17 13.6493 124.472 13.4234 124.739 13.1613C128.638 9.32837 132.517 5.47528 136.449 1.67588C136.877 1.26136 137.588 0.966634 138.187 0.932081C139.896 0.833343 141.616 0.897359 143.205 0.897359C139.564 4.70992 135.886 8.56185 132.102 12.525C136.081 18.1977 140.113 23.9472 144.346 29.9832C142.277 29.9832 140.465 30.0289 138.66 29.9407C138.338 29.925 137.995 29.3879 137.745 29.0332C134.985 25.1222 132.242 21.1992 129.492 17.281C129.21 16.8794 128.915 16.4875 128.525 15.9535C126.972 17.4396 125.459 18.8378 124.021 20.3089C123.763 20.5725 123.738 21.1366 123.735 21.5631C123.711 24.3115 123.722 27.0603 123.722 29.9089C122.018 29.9089 120.413 29.9089 118.698 29.9089C118.698 20.3188 118.698 10.6843 118.698 0.973356C120.323 0.973356 121.928 0.973356 123.722 0.973356C123.722 2.55754 123.722 4.12294 123.722 5.82388Z" fill="#7334F5"/>
<path d="M50.3329 20.502C50.2702 23.6618 50.2702 26.7282 50.2702 29.9021C48.506 29.9021 46.8717 29.9021 45.1641 29.9021C45.1641 20.2636 45.1641 10.6617 45.1641 0.978394C46.823 0.978394 48.4279 0.978394 50.1656 0.978394C50.1656 5.25646 50.1656 9.52436 50.1656 14.1753C50.7551 13.6219 51.0996 13.3117 51.4296 12.9868C55.2299 9.24555 59.0057 5.47875 62.8537 1.78718C63.3652 1.29639 64.2255 0.992566 64.9503 0.936396C66.5661 0.811157 68.1984 0.897282 69.607 0.897282C66.0339 4.67818 62.3775 8.5473 58.6145 12.5291C62.5867 18.1935 66.6193 23.9441 70.8533 29.9819C68.7766 29.9819 66.9631 30.0276 65.1562 29.9389C64.8393 29.9233 64.5056 29.3749 64.2547 29.0197C61.4925 25.1091 58.7459 21.1875 55.9926 17.2706C55.7112 16.8704 55.414 16.4812 55.0214 15.9471C53.4302 17.4817 51.9129 18.9452 50.3329 20.502Z" fill="#7335F5"/>
<path d="M87.7079 2.84526C87.708 3.83028 87.708 4.684 87.708 5.65929C87.1929 5.61296 86.7705 5.56794 86.3469 5.53792C81.6384 5.20413 78.4503 7.82525 77.9563 12.757C77.6557 15.7578 77.7417 18.7994 77.7007 21.8234C77.6646 24.4841 77.6931 27.1457 77.6931 29.9076C76.0138 29.9076 74.4198 29.9076 72.7412 29.9076C72.7412 20.2701 72.7412 10.6704 72.7412 0.984437C74.3404 0.984437 75.8976 0.984437 77.6088 0.984437C77.6088 2.36561 77.6088 3.72565 77.6088 5.21057C78.4452 4.14994 79.0759 3.16374 79.8867 2.35889C81.8416 0.418316 84.3031 0.034797 86.913 0.416187C87.2172 0.460636 87.5565 0.99507 87.6772 1.36785C87.8096 1.77699 87.7077 2.26201 87.7079 2.84526Z" fill="#7233F5"/>
</svg>
