<svg width="200" height="53" viewBox="0 0 200 53" fill="none" xmlns="http://www.w3.org/2000/svg">
<path fill-rule="evenodd" clip-rule="evenodd" d="M24.1458 -0.347153C23.5334 -0.698736 22.7849 -0.698736 22.1724 -0.347153L0.986703 11.8902C0.374266 12.2417 0 12.8939 0 13.597V38.0603C0 38.7692 0.374266 39.4155 0.986703 39.7671L9.56647 44.7232V19.9142C9.56647 19.2337 9.91806 18.5985 10.5021 18.2413L16.36 14.6291L22.1214 11.0792C22.7565 10.688 23.5561 10.688 24.1912 11.0792L29.9527 14.6291L35.8106 18.2413C36.3947 18.5985 36.7463 19.2337 36.7463 19.9142V31.6693C36.7463 32.3557 36.3947 32.9908 35.8106 33.348L29.9527 36.9545L24.1912 40.5044C23.6355 40.8445 23.0854 40.2831 23.0854 39.6368V34.9811C23.0854 34.346 23.6468 33.8584 24.1912 33.5293L29.017 30.5579C29.5954 30.195 29.9527 29.5599 29.9527 28.8795V24.1048C29.9527 23.4186 29.5954 22.7835 29.017 22.4262L24.1912 19.4548C23.5561 19.0636 22.7565 19.0636 22.1214 19.4548L17.2956 22.4262C16.7172 22.7835 16.36 23.4186 16.36 24.1048V27.5695L16.3543 27.5752V42.1488H16.36V42.1544V48.3754C16.36 48.466 16.3543 48.551 16.343 48.636L22.1724 52.0044C22.7849 52.356 23.5334 52.356 24.1458 52.0044L45.3316 39.7671C45.9441 39.4155 46.3184 38.7692 46.3184 38.0603V13.597C46.3184 12.8939 45.9441 12.2417 45.3316 11.8902L24.1458 -0.347153Z" fill="#2A7DE1"/>
<mask id="mask0_174_2423" style="mask-type:alpha" maskUnits="userSpaceOnUse" x="63" y="6" width="137" height="18">
<path d="M63.874 6.23706H199.999V23.6573H63.874V6.23706Z" fill="black"/>
</mask>
<g mask="url(#mask0_174_2423)">
<path d="M190.773 15.3893C190.927 14.2211 192.049 13.4216 193.586 13.4216C195.168 13.4216 196.206 14.1588 196.359 15.3893H190.773ZM193.654 22.8803C196.036 22.8803 197.765 22.1658 199.325 20.7197L197.249 18.338C196.104 19.4211 194.975 19.9372 193.785 19.9372C191.942 19.9372 190.858 19.1603 190.751 17.8617H199.994V16.756C199.994 13.2515 197.357 10.5862 193.546 10.5862C189.821 10.5862 187.048 13.2288 187.048 16.756C187.048 20.4589 189.605 22.8803 193.654 22.8803ZM180.016 22.8803C183.044 22.8803 185.494 21.2131 186.163 18.769L182.676 17.7086C182.313 18.8994 181.377 19.614 180.016 19.614C178.372 19.614 177.22 18.4458 177.22 16.7333C177.22 15.0037 178.372 13.8526 180.016 13.8526C181.377 13.8526 182.33 14.5897 182.676 15.7579L186.163 14.6975C185.494 12.2534 183.044 10.5862 180.016 10.5862C176.268 10.5862 173.478 13.1834 173.478 16.7333C173.478 20.2831 176.268 22.8803 180.016 22.8803ZM159.052 22.472H162.794V16.5404C162.794 14.981 163.945 13.9433 165.675 13.9433C167.427 13.9433 168.403 14.8733 168.403 16.5404V22.472H172.151V16.1265C172.151 12.8602 169.917 10.6713 166.559 10.6713C165.068 10.6713 163.707 11.1476 162.709 12.0606H162.664V11.0002H159.052V22.472ZM150.664 19.9145C149.582 19.9145 149.06 19.6367 149.06 19.0526C149.06 18.4685 149.644 18.1623 151.379 17.8164C152.763 17.5328 153.301 17.3174 153.54 16.9714H153.585V18.1226C153.585 19.0923 152.264 19.9145 150.664 19.9145ZM149.842 22.7952C151.527 22.7952 152.893 22.2792 153.761 21.3265H153.8V22.472H157.203V15.3269C157.203 12.4065 154.991 10.5862 151.442 10.5862C148.323 10.5862 145.833 12.2761 145.425 14.6805L148.844 15.2816C149.105 14.0737 150.12 13.3365 151.549 13.3365C152.655 13.3365 153.392 13.7448 153.392 14.3743C153.392 14.9357 152.763 15.2419 150.619 15.5424C146.962 16.0414 145.448 17.1472 145.448 19.2454C145.448 21.4116 147.154 22.7952 149.842 22.7952ZM130.976 22.472H134.719V16.5404C134.719 14.981 135.87 13.9433 137.599 13.9433C139.352 13.9433 140.327 14.8733 140.327 16.5404V22.472H144.069V16.1265C144.069 12.8602 141.841 10.6713 138.484 10.6713C136.993 10.6713 135.626 11.1476 134.634 12.0606H134.588V11.0002H130.976V22.472ZM120.247 15.3893C120.4 14.2211 121.523 13.4216 123.06 13.4216C124.642 13.4216 125.679 14.1588 125.833 15.3893H120.247ZM123.128 22.8803C125.509 22.8803 127.239 22.1658 128.799 20.7197L126.717 18.338C125.572 19.4211 124.449 19.9372 123.253 19.9372C121.415 19.9372 120.332 19.1603 120.224 17.8617H129.468V16.756C129.468 13.2515 126.825 10.5862 123.02 10.5862C119.294 10.5862 116.521 13.2288 116.521 16.756C116.521 20.4589 119.079 22.8803 123.128 22.8803ZM107.743 22.472H111.333L116.964 11.0002H112.762L109.558 18.2076H109.518L106.331 11.0002H102.135L107.743 22.472ZM96.0898 19.614C94.2923 19.614 93.1638 18.3777 93.1638 16.7333C93.1638 15.0661 94.2923 13.8526 96.0898 13.8526C97.8591 13.8526 99.0101 15.0661 99.0101 16.7333C99.0101 18.3777 97.8591 19.614 96.0898 19.614ZM96.0898 22.8803C99.9629 22.8803 102.753 20.2831 102.753 16.7333C102.753 13.1834 99.9629 10.5862 96.0898 10.5862C92.211 10.5862 89.421 13.1834 89.421 16.7333C89.421 20.2831 92.211 22.8803 96.0898 22.8803ZM80.3423 22.472H84.0848V17.4704C84.0848 15.2419 85.1226 14.1588 86.9429 14.1588C87.5723 14.1588 88.0032 14.2211 88.6726 14.3743L89.3248 11.0399C88.6951 10.8698 88.0713 10.762 87.266 10.762C85.9279 10.762 84.7369 11.1703 83.9091 12.1003H83.8695V11.0002H80.3423V22.472ZM69.0632 14.4423V10.6089H73.0723C74.3029 10.6089 75.2104 11.1079 75.2104 12.4916C75.2104 13.8356 74.1951 14.4423 73.027 14.4423H69.0632ZM65.2129 22.472H69.0632V17.7313H73.3504C76.7073 17.7313 79.0663 15.8657 79.0663 12.5369C79.0663 9.21962 76.662 7.31995 73.3504 7.31995H65.2129V22.472Z" fill="white"/>
</g>
<mask id="mask1_174_2423" style="mask-type:alpha" maskUnits="userSpaceOnUse" x="63" y="25" width="137" height="19">
<path d="M63.874 25.1088H199.999V43.9809H63.874V25.1088Z" fill="black"/>
</mask>
<g mask="url(#mask1_174_2423)">
<path d="M186.197 43.2206H189.94V37.289C189.94 35.7297 191.085 34.6864 192.821 34.6864C194.573 34.6864 195.548 35.6219 195.548 37.289V43.2206H199.291V36.8752C199.291 33.6088 197.062 31.42 193.705 31.42C192.214 31.42 190.847 31.8963 189.855 32.8036H189.809V31.7432H186.197V43.2206ZM179.262 43.2206H183.004V31.7432H179.262V43.2206ZM179.239 29.9682H182.982V26.4639H179.239V29.9682ZM169.713 40.6633C168.629 40.6633 168.113 40.3854 168.113 39.7957C168.113 39.2115 168.698 38.9108 170.427 38.5652C171.816 38.2817 172.355 38.066 172.593 37.72H172.639V38.8655C172.639 39.841 171.317 40.6633 169.713 40.6633ZM168.89 43.5441C170.58 43.5441 171.947 43.0221 172.809 42.0695H172.854V43.2206H176.251V36.0757C176.251 33.1496 174.045 31.335 170.495 31.335C167.376 31.335 164.887 33.0249 164.479 35.4234L167.898 36.0304C168.159 34.8168 169.174 34.0851 170.603 34.0851C171.709 34.0851 172.44 34.4936 172.44 35.1231C172.44 35.6844 171.816 35.9907 169.673 36.2911C166.015 36.7902 164.495 37.8904 164.495 39.9941C164.495 42.1604 166.208 43.5441 168.89 43.5441ZM148.782 43.2206H152.524V37.289C152.524 35.7297 153.676 34.6864 155.405 34.6864C157.158 34.6864 158.133 35.6219 158.133 37.289V43.2206H161.881V36.5745C161.881 33.5181 159.63 31.42 156.296 31.42C154.799 31.42 153.545 31.8963 152.57 32.8036H152.524V27.4165H148.782V43.2206ZM139.981 43.6291C143.015 43.6291 145.459 41.9619 146.128 39.5178L142.646 38.4573C142.278 39.6481 141.348 40.3626 139.981 40.3626C138.337 40.3626 137.191 39.1946 137.191 37.4819C137.191 35.7525 138.337 34.6014 139.981 34.6014C141.348 34.6014 142.3 35.3384 142.646 36.5067L146.128 35.4462C145.459 33.0021 143.015 31.335 139.981 31.335C136.238 31.335 133.443 33.9323 133.443 37.4819C133.443 41.0318 136.238 43.6291 139.981 43.6291ZM119.101 43.2206H122.85V40.2095L124.795 38.6049H124.84L128.413 43.2206H132.83L127.307 36.3989L132.762 31.7432H127.636L122.895 35.9226H122.85V27.4165H119.101V43.2206ZM110.306 43.6291C113.334 43.6291 115.784 41.9619 116.453 39.5178L112.966 38.4573C112.597 39.6481 111.667 40.3626 110.306 40.3626C108.662 40.3626 107.511 39.1946 107.511 37.4819C107.511 35.7525 108.662 34.6014 110.306 34.6014C111.667 34.6014 112.62 35.3384 112.966 36.5067L116.453 35.4462C115.784 33.0021 113.334 31.335 110.306 31.335C106.558 31.335 103.768 33.9323 103.768 37.4819C103.768 41.0318 106.558 43.6291 110.306 43.6291ZM94.8535 40.3626C93.056 40.3626 91.9332 39.1265 91.9332 37.4819C91.9332 35.8147 93.056 34.6014 94.8535 34.6014C96.6341 34.6014 97.7798 35.8147 97.7798 37.4819C97.7798 39.1265 96.6341 40.3626 94.8535 40.3626ZM94.8535 43.6291C98.7323 43.6291 101.522 41.0318 101.522 37.4819C101.522 33.9323 98.7323 31.335 94.8535 31.335C90.9804 31.335 88.1848 33.9323 88.1848 37.4819C88.1848 41.0318 90.9804 43.6291 94.8535 43.6291ZM81.7713 43.2206H85.5195V27.4165H81.7713V43.2206ZM69.0007 39.9713V36.8752H73.4579C74.626 36.8752 75.2104 37.4197 75.2104 38.3892C75.2104 39.4497 74.6716 39.9713 73.4579 39.9713H69.0007ZM69.0007 33.9323V31.3122H73.112C74.1329 31.3122 74.6488 31.7885 74.6488 32.6108C74.6488 33.4784 74.1329 33.9323 73.112 33.9323H69.0007ZM65.2129 43.2206H73.0723C77.076 43.2206 79.021 41.6841 79.021 38.5198C79.021 36.9602 78.2213 35.6616 76.9454 35.0381V34.9924C77.8982 34.4086 78.4823 33.3878 78.4823 32.1573C78.4823 29.7528 76.5316 28.063 73.8038 28.063H65.2129V43.2206Z" fill="white"/>
</g>
</svg>
