<svg width="200" height="37" viewBox="0 0 200 37" fill="none" xmlns="http://www.w3.org/2000/svg">
<path d="M13.4738 36.6858C10.8002 36.686 8.2364 36.6975 5.67276 36.6833C2.19534 36.6641 0.00836993 34.4477 0.005694 30.9394C-0.0007077 22.5523 -0.00210608 14.1653 0.00353104 5.77822C0.00571754 2.52304 2.2054 0.313542 5.43568 0.312056C13.9692 0.308126 22.5028 0.3088 31.0363 0.312992C34.3586 0.314625 36.7322 2.46688 36.7618 5.803C36.8376 14.3359 36.8309 22.8701 36.7718 31.4032C36.7501 34.5322 34.3618 36.6589 31.0536 36.674C25.2304 36.7006 19.407 36.6841 13.4738 36.6858ZM2.54781 12.8028C2.54827 18.8418 2.54609 24.8808 2.55062 30.9197C2.55221 33.0489 3.65813 34.1566 5.79221 34.1616C12.1223 34.1762 17.8598 32.3214 22.8019 28.3748C29.9381 22.676 33.8161 15.2383 34.1284 6.04889C34.2011 3.91079 33.1903 2.80135 31.1624 2.79492C22.5982 2.76776 14.0338 2.77251 5.46959 2.80261C3.56965 2.80929 2.55727 3.94325 2.54993 5.88532C2.54149 8.11787 2.54795 10.3505 2.54781 12.8028Z" fill="white"/>
<path d="M58.2076 30.9114C56.126 31.1466 54.1593 31.0487 52.2479 30.45C49.5669 29.6104 47.7619 27.9196 47.1835 25.0739C47.0041 24.1911 47.2465 23.7312 48.2172 23.8096C48.544 23.836 48.8819 23.8406 49.2039 23.7885C50.3126 23.6091 51.0533 23.837 51.3518 25.1136C51.5853 26.1124 52.3891 26.7969 53.3588 27.1608C55.3174 27.8957 57.2943 27.9377 59.2449 27.1224C60.5228 26.5883 61.1862 25.5693 61.2208 24.2118C61.2559 22.8331 60.5705 21.8451 59.3126 21.2707C58.0364 20.6879 56.6557 20.4743 55.3063 20.1509C53.5244 19.7238 51.7525 19.2768 50.208 18.216C46.7824 15.8632 46.8035 10.3426 50.3174 8.10516C53.8154 5.87781 57.5256 5.87431 61.2211 7.53832C63.2416 8.44809 64.4233 10.1303 64.8124 12.356C64.9502 13.144 64.6854 13.4613 63.9282 13.4617C63.5622 13.4619 63.1907 13.4269 62.831 13.4763C61.6612 13.6367 60.9089 13.3584 60.6736 12.0127C60.517 11.1172 59.7494 10.5392 58.9048 10.1821C57.169 9.44812 55.4065 9.43856 53.672 10.1484C52.3567 10.6867 51.6889 11.7083 51.7079 13.1557C51.7266 14.585 52.38 15.5404 53.7496 16.1007C55.2479 16.7136 56.8509 16.9489 58.3996 17.3803C59.6004 17.7148 60.7801 18.0874 61.8925 18.6667C64.0367 19.7833 65.1713 21.5302 65.2044 23.9484C65.2373 26.3516 64.3655 28.2916 62.2272 29.5656C61.0092 30.2913 59.6776 30.6514 58.2076 30.9114Z" fill="white"/>
<path d="M123.955 8.05013C123.953 15.1101 123.953 22.0654 123.95 29.0206C123.949 30.641 123.919 30.6645 122.282 30.669C121.99 30.6698 121.695 30.646 121.404 30.672C120.585 30.7453 120.274 30.3666 120.336 29.5733C120.373 29.1043 120.343 28.63 120.343 28.1983C120.164 28.0678 120.098 28.1582 120.049 28.248C118.072 31.8533 112.374 31.7762 109.768 28.8923C106.447 25.2187 106.365 18.1583 109.689 14.4945C112.256 11.6648 117.542 11.4281 120.154 15.0127C120.154 12.5903 120.151 10.3447 120.156 8.09915C120.158 6.64511 120.164 6.64463 121.634 6.63893C121.964 6.63765 122.297 6.66957 122.622 6.63074C123.631 6.51013 124.058 6.95178 123.955 8.05013ZM113.853 15.967C112.773 16.4804 112.059 17.3372 111.637 18.4299C110.846 20.4818 110.8 22.5754 111.527 24.6424C112.264 26.7414 113.922 27.9734 115.732 27.9021C117.81 27.8202 119.343 26.4856 119.921 24.2098C120.305 22.6996 120.293 21.1671 119.979 19.6505C119.317 16.4473 117.184 15.1208 113.853 15.967Z" fill="white"/>
<path d="M177.143 12.4733C180.906 13.4712 182.262 16.2808 182.706 19.6657C183.033 22.158 182.779 24.6342 181.63 26.9431C179.972 30.2723 176.188 31.6247 172.773 30.1318C171.739 29.6795 171.029 28.8731 170.323 27.9391C169.964 30.4424 169.965 30.4076 167.495 30.3767C166.607 30.3655 166.375 30.0073 166.377 29.1897C166.396 22.0168 166.398 14.8438 166.374 7.67093C166.371 6.85303 166.678 6.57368 167.46 6.56506C170.769 6.52863 170.143 6.46362 170.185 9.11362C170.213 10.9028 170.19 12.6928 170.19 14.7763C172.167 12.5626 174.447 11.9613 177.143 12.4733ZM171.865 26.5286C174.374 28.4211 177.364 27.6373 178.454 24.7164C179.272 22.5269 179.261 20.2631 178.411 18.0791C177.829 16.5813 176.717 15.6571 175.016 15.5596C173.248 15.4583 171.909 16.0888 170.977 17.6328C169.879 19.4518 169.659 24.5235 171.865 26.5286Z" fill="white"/>
<path d="M72.6364 26.1142C74.8275 28.7164 78.601 28.653 80.5315 26.0374C80.7399 25.7551 80.9364 25.4708 81.3108 25.5591C82.2262 25.7749 83.2118 25.661 84.1513 26.1559C83.9097 27.771 82.8897 28.8485 81.6435 29.6972C76.1264 33.4546 68.7192 29.9755 68.0314 23.3657C67.7951 21.0946 67.9777 18.9125 68.9485 16.8409C70.5022 13.5254 74.1486 11.7325 77.8012 12.4402C81.5168 13.1603 84.3348 16.1982 84.4318 19.8711C84.5294 23.5683 84.9595 22.9126 81.5605 22.9606C78.7072 23.0009 75.8529 22.9667 72.9991 22.9757C71.6231 22.98 71.462 23.2054 71.9175 24.5547C72.0913 25.0695 72.3649 25.5507 72.6364 26.1142ZM75.7989 15.5394C73.3942 15.9086 71.9742 17.4613 71.8402 19.987C74.8344 19.987 77.8228 19.987 80.8087 19.987C80.9043 17.1956 79.0503 15.5179 75.7989 15.5394Z" fill="white"/>
<path d="M101.205 14.2565C103.564 16.4116 104.185 19.102 104.029 22.0861C103.984 22.9578 103.422 22.959 102.815 22.9601C99.4479 22.9667 96.0802 22.9682 92.7126 22.9738C91.183 22.9764 91.0499 23.1404 91.5125 24.6246C92.0562 26.3691 93.1883 27.6054 95.017 27.8779C96.9586 28.1671 98.8558 27.9966 100.062 26.079C100.246 25.7859 100.439 25.4783 100.82 25.5714C101.769 25.8033 102.795 25.6597 103.786 26.184C103.329 28.0161 102.173 29.2676 100.566 30.1057C94.7742 33.1248 88.3327 29.6884 87.593 23.2249C87.2879 20.5591 87.6224 18.0069 89.1383 15.763C91.7901 11.8377 97.2803 11.1637 101.205 14.2565ZM91.457 19.0862C91.41 19.3983 91.1744 19.6993 91.4585 20.1161C92.8909 20.1161 94.382 20.1161 95.8731 20.1161C97.3582 20.1161 98.8432 20.1161 100.33 20.1161C100.419 19.508 100.369 19.0829 100.244 18.6549C99.6791 16.7212 98.1494 15.5574 96.1051 15.5182C93.7204 15.4724 92.2984 16.5217 91.457 19.0862Z" fill="white"/>
<path d="M162.031 15.6593C162.415 16.5935 162.574 17.4777 162.569 18.4097C162.551 21.9973 162.54 25.5853 162.577 29.1727C162.587 30.0653 162.315 30.4811 161.392 30.3662C161.14 30.3348 160.88 30.3612 160.624 30.3606C158.982 30.357 158.982 30.357 158.847 28.6495C156.547 30.9883 153.812 31.1134 150.933 30.2139C148.934 29.5894 147.909 28.0807 147.729 26.0436C147.539 23.8949 148.292 22.174 150.253 21.0814C152.07 20.069 154.113 20.0365 156.085 19.6951C156.445 19.6328 156.81 19.5911 157.161 19.4974C157.786 19.3307 158.529 19.2738 158.683 18.4589C158.841 17.6233 158.65 16.8544 158.014 16.2434C156.554 14.8391 153.429 15.1042 152.364 16.8215C151.895 17.5779 151.392 17.7042 150.646 17.5226C150.398 17.4623 150.143 17.4277 149.889 17.3963C148.279 17.1972 148.104 16.8747 148.984 15.4633C150.614 12.8485 153.207 12.155 156.024 12.3108C158.458 12.4455 160.718 13.1916 162.031 15.6593ZM157.943 26.266C158.774 24.9919 159.092 23.6379 158.65 22.06C157.721 22.2396 156.875 22.4152 156.025 22.5646C154.951 22.7532 153.847 22.8026 152.833 23.2583C151.831 23.7085 151.323 24.4741 151.366 25.589C151.409 26.6924 152.022 27.3566 153.037 27.6195C154.849 28.0892 156.509 27.8461 157.943 26.266Z" fill="white"/>
<path d="M194.653 20.2865C195.445 20.5069 196.159 20.6737 196.846 20.9143C198.719 21.5693 199.809 22.874 199.978 24.8752C200.148 26.8998 199.334 28.5246 197.591 29.4703C194.382 31.212 191.074 31.2111 187.84 29.4724C186.702 28.8604 186.026 27.8106 185.627 26.5752C185.419 25.9324 185.595 25.5731 186.253 25.4909C187.014 25.3959 187.78 25.3356 188.544 25.2687C188.964 25.2319 189.064 25.566 189.237 25.8524C190.372 27.735 193.685 28.3016 195.434 26.9247C196.714 25.9167 196.451 24.226 194.898 23.6204C193.836 23.2064 192.695 23.1094 191.585 22.8871C190.324 22.6344 189.088 22.2972 187.995 21.5932C185.063 19.7054 184.944 15.8187 187.745 13.7468C190.367 11.807 194.959 11.7801 197.576 13.7125C198.668 14.5184 199.442 15.5484 199.667 17.0351C198.665 17.4931 197.602 17.4869 196.566 17.5858C196.114 17.6289 195.986 17.2296 195.792 16.9198C194.781 15.3097 191.994 14.7678 190.442 15.8694C189.176 16.7673 189.28 18.4173 190.67 19.1907C191.877 19.8623 193.252 19.9575 194.653 20.2865Z" fill="white"/>
<path d="M142.274 26.9198C142.456 26.9196 142.529 26.9177 142.603 26.9197C145.28 26.9946 144.971 26.341 144.985 29.5356C144.988 30.0615 144.805 30.3592 144.225 30.3582C139.795 30.3504 135.364 30.346 130.933 30.3585C130.003 30.3611 130.117 29.725 130.117 29.1463C130.114 23.4336 130.115 17.7208 130.115 12.0081C130.115 10.5433 130.142 9.07783 130.105 7.61398C130.088 6.91438 130.366 6.64933 131.044 6.57715C133.843 6.27934 133.977 6.38573 133.976 9.13513C133.974 14.6281 133.994 20.1213 133.959 25.614C133.953 26.5845 134.191 26.9782 135.244 26.9436C137.549 26.8677 139.858 26.92 142.274 26.9198Z" fill="white"/>
</svg>
