<svg width="1024" height="1310" viewBox="0 0 1024 1310" fill="none" xmlns="http://www.w3.org/2000/svg">
<g clip-path="url(#clip0_140_1773)">
<path opacity="0.64" d="M552.499 1316.79C536.794 1317.9 505.747 1317.1 490.407 1315.18C475.103 1312.39 444.659 1304.01 429.447 1298.56C408.956 1290.49 388.265 1280.98 367.171 1270.24C345.457 1259.34 322.976 1247.59 299.545 1235.19C275.165 1223.14 249.616 1210.72 222.879 1198.08C195.321 1186.12 166.868 1174.07 137.922 1161.94C109.177 1150.6 81.0346 1139.17 54.3896 1127.63C29.9361 1116.74 8.60545 1105.6 -8.5613 1094.13C-21.692 1083.12 -29.6544 1071.62 -32.2112 1059.53C-30.9876 1047.67 -25.4906 1035.11 -16.9254 1021.78C-8.3786 1008.5 -0.270135 994.384 5.35472 979.463C5.44603 964.451 -0.233601 948.581 -12.6704 931.926C-32.5034 915.161 -58.217 897.629 -87.9849 879.385C-119.689 861.049 -149.803 842.056 -174.969 822.497C-185.032 812.69 -192.812 802.755 -198.071 792.693C-200.884 782.63 -200.902 772.458 -198.108 762.158C-192.921 751.858 -185.196 741.448 -175.207 730.947C-163.628 720.446 -150.516 709.854 -136.362 699.17C-122.044 688.487 -107.836 677.821 -94.2855 667.211C-82.0131 656.6 -71.2381 646.026 -62.253 635.489C-53.2678 619.674 -50.1267 588.207 -55.569 572.538C-69.7772 551.554 -88.0031 530.589 -107.087 509.606C-125.386 488.403 -138.663 467.054 -144.909 445.559C-144.142 423.68 -134.81 401.528 -117.643 379.083C-94.4863 356.201 -66.3438 332.989 -35.3706 309.522C-3.57563 285.707 27.4707 261.729 56.3254 237.768C81.8564 213.808 103.717 190.176 121.815 167.202C135.877 144.812 146.926 123.591 155.783 103.977C162.193 85.6599 167.964 69.5158 173.936 55.9285C182.793 39.9306 209.53 26.2703 228.541 28.48C242.749 32.2969 258.911 38.3052 276.736 45.9937C295.199 53.5727 314.977 61.6447 335.851 69.5524C346.389 72.8214 357.145 75.7982 368.085 78.4645C379.06 80.4368 390.2 81.9343 401.468 82.957C412.773 83.1579 424.169 82.7744 435.692 81.8065C447.198 79.9802 458.813 77.5696 470.501 74.5929C482.189 70.8125 493.822 66.5756 505.4 61.9734C516.96 56.7686 528.484 51.3264 539.953 45.7563C551.422 39.821 562.836 33.9405 574.213 28.1878C585.609 22.3438 596.987 16.8103 608.328 11.6785C631.083 1.9994 653.82 -5.17782 676.502 -9.37819C699.385 -11.4236 722.267 -9.92609 745.132 -4.83085C768.088 2.80288 790.916 13.87 813.489 28.0052C835.86 44.1675 857.72 62.7587 878.795 83.2493C899.231 104.781 918.571 127.445 936.541 150.821C953.489 174.215 968.866 197.737 982.563 221.076C995.292 243.795 1006.49 266.075 1016.26 287.808C1025.7 308.682 1034.23 329.008 1042.1 348.804C1050.54 367.815 1058.85 386.498 1067.19 404.925C1076.6 422.786 1086.15 440.61 1095.7 458.544C1106 476.112 1115.84 493.991 1124.94 512.235C1133.87 530.315 1141.43 548.906 1147.35 568.027C1151.09 582.436 1155.86 611.985 1156.88 627.143C1157.19 642.465 1155.62 673.877 1153.92 689.948C1152.7 700.723 1151.25 711.516 1149.63 722.309C1148.13 733.102 1146.51 743.895 1144.79 754.67C1143.29 765.427 1141.72 776.183 1140.11 786.903C1138.73 797.605 1137.3 808.252 1135.82 818.863C1133.43 839.992 1130.56 860.848 1127.04 881.284C1123.53 901.555 1118.75 921.334 1112.48 940.491C1105.4 959.374 1096.43 977.564 1085.62 994.913C1073.78 1011.93 1060.29 1028.04 1045.4 1043.16C1030.1 1057.94 1013.99 1071.71 997.41 1084.4C981.321 1096.84 965.268 1108.27 949.416 1118.71C934.587 1129.09 920.087 1138.6 905.824 1147.33C892.529 1156.32 879.252 1164.72 865.829 1172.63C852.954 1181.12 839.568 1189.34 825.542 1197.35C811.626 1206.19 796.815 1214.98 781.128 1223.69C765.276 1233.26 748.456 1242.72 730.778 1251.99C712.862 1261.87 694.162 1271.33 674.803 1280.14C665.069 1284.59 655.189 1288.83 645.2 1292.79C635.174 1296.72 625.038 1300.34 614.811 1303.6C599.397 1308.12 568.242 1314.78 552.518 1316.79" stroke="#7620EE" stroke-opacity="0.2" stroke-width="2" stroke-linecap="round" stroke-dasharray="3 6"/>
<path opacity="0.15" d="M514.475 1298.59C494.036 1299.03 473.733 1297.4 453.563 1293.77C433.357 1289.14 413.133 1282.59 392.807 1274.3C372.246 1265.32 351.312 1254.85 329.863 1243.15C307.879 1231.2 285.126 1218.31 261.498 1204.73C237.181 1191.34 211.938 1177.52 185.909 1163.38C159.516 1149.84 132.803 1136.14 106.275 1122.39C80.4905 1109.42 56.0052 1096.43 33.6766 1083.47C13.8076 1071.32 -2.56652 1059.16 -14.695 1046.96C-23.133 1035.49 -26.842 1023.85 -25.8563 1012C-22.1331 1000.57 -15.2202 988.711 -6.393 976.318C1.35324 963.954 7.77562 950.747 11.0862 936.613C8.74461 922.157 0.79635 906.577 -13.3257 889.877C-33.9183 872.773 -59.3163 854.608 -87.665 835.58C-116.959 816.444 -143.991 796.777 -165.736 776.79C-180.552 757.179 -185.909 737.521 -180.844 717.963C-167.118 698.879 -145.124 679.79 -117.579 660.56C-89.3418 641.388 -63.2941 622.109 -42.465 602.606C-29.7466 582.587 -25.235 562.137 -28.5464 541.26C-39.4548 519.841 -54.5891 498.109 -71.1768 476.202C-87.8442 454.089 -100.618 432.015 -107.491 410.094C-108.331 388.205 -101.314 366.49 -86.8087 344.963C-66.2859 323.449 -40.3517 301.987 -10.7625 280.587C20.6068 259.086 52.3589 237.608 82.9884 216.249C111.385 194.909 136.854 173.914 159.066 153.576C177.646 133.726 193.145 114.999 206.087 97.8092C216.272 81.7981 225.112 67.8873 233.3 56.4452C244.089 43.3221 269.788 34.3585 286.358 38.265C298.458 42.9232 312.254 49.5987 327.61 57.8079C343.509 65.7737 360.848 74.169 379.438 82.4343C398.427 88.8199 418.492 93.9864 439.511 97.506C460.773 98.0213 482.868 96.4438 505.668 92.7663C528.637 86.135 551.718 78.1565 574.81 69.3555C597.981 59.1506 621.125 49.4379 644.206 40.8192C667.295 32.7131 690.292 26.8518 713.155 23.6899C735.946 22.4082 758.533 24.4073 780.822 29.7004C802.905 37.3414 824.548 48.2134 845.603 62.0152C866.162 77.7826 885.891 95.9172 904.559 115.985C922.416 137.123 938.995 159.505 954.066 182.661C968.139 206.016 980.68 229.595 991.597 253.119C1001.73 276.195 1010.56 298.922 1018.16 321.159C1025.7 342.715 1032.58 363.759 1039.02 384.32C1046.23 404.23 1053.48 423.776 1060.87 443.074C1069.4 461.87 1078.08 480.583 1086.8 499.298C1096.2 517.686 1105.13 536.231 1113.25 554.985C1121.12 573.524 1127.57 592.366 1132.29 611.53C1136.09 630.569 1137.95 650.01 1137.85 669.814C1136.92 689.572 1134.38 709.75 1130.45 730.342C1126.57 750.938 1122.02 771.458 1117.09 791.866C1113.04 812.287 1108.88 832.538 1104.67 852.511C1101.36 872.462 1097.68 892.063 1093.49 911.177C1089.39 930.132 1084.15 948.492 1077.53 966.151C1070.16 983.511 1060.99 1000.07 1050.04 1015.68C1038.01 1030.96 1024.3 1045.27 1009.17 1058.53C993.466 1071.5 976.835 1083.45 959.658 1094.38C942.746 1105.16 925.777 1115.03 908.969 1123.98C893.034 1133.03 877.433 1141.34 862.163 1148.98C847.861 1156.98 833.75 1164.5 819.663 1171.62C806.233 1179.38 792.543 1186.9 778.406 1194.26C764.552 1202.41 749.988 1210.49 734.7 1218.46C719.385 1227.22 703.2 1235.83 686.226 1244.16C669.111 1253.04 651.202 1261.43 632.6 1269.11C613.94 1276.87 594.662 1283.58 574.891 1289C555.148 1293.91 534.987 1297.19 514.493 1298.59" stroke="#7620EE" stroke-opacity="0.2" stroke-width="2" stroke-linecap="round"/>
<path opacity="0.32" d="M474.062 1277.74C454.119 1277.1 434.185 1274.44 414.237 1269.8C394.327 1264.2 374.281 1256.73 354.01 1247.52C333.565 1237.6 312.7 1226.19 291.339 1213.49C269.588 1200.51 247.162 1186.52 224.069 1171.76C200.592 1157.15 176.53 1142.03 152.175 1126.59C127.868 1111.68 103.816 1096.64 80.5546 1081.59C58.4684 1067.36 38.1866 1053.26 20.51 1039.37C5.3534 1026.42 -6.21 1013.72 -13.6821 1001.25C-18.021 989.674 -18.2358 978.198 -14.5968 966.776C-9.26925 955.859 -1.81314 944.653 6.50765 932.957C12.9046 921.207 17.2916 908.547 18.1829 894.789C13.4976 880.45 3.56279 864.757 -11.8434 847.723C-32.7816 830.038 -57.4472 811.192 -84.0502 791.445C-110.776 771.647 -134.649 751.495 -153.063 731.341C-164.779 711.934 -167.554 692.942 -160.687 674.499C-145.963 656.954 -123.718 639.699 -96.3541 622.531C-68.3735 605.434 -42.2172 588.056 -20.7058 570.146C-6.44605 551.353 0.362618 531.654 -0.080388 511.072C-7.73248 489.556 -19.7248 467.415 -33.6259 444.928C-48.3772 422.16 -60.2186 399.503 -67.2492 377.213C-69.2631 355.256 -64.2461 333.863 -52.2411 313.085C-34.423 292.75 -10.9798 272.893 16.6228 253.473C46.7719 234.29 78.247 215.405 109.592 196.854C139.692 178.418 167.736 160.446 193.114 143.126C215.427 126.245 234.804 110.445 251.519 96.0681C265.379 82.7073 277.399 71.287 288.149 62.1478C301.676 52.0208 328.354 47.4581 343.538 52.7584C354.204 58.0206 366.206 65.108 379.612 73.5873C393.426 81.7089 408.645 90.2482 425.219 98.6667C442.256 105.282 460.574 110.83 480.063 114.967C499.983 116.305 520.993 115.819 543.023 113.483C565.36 108.461 588.076 102.214 610.981 95.2722C634.042 86.9694 657.183 79.0984 680.284 72.2155C703.327 65.6754 726.213 61.1575 748.821 59.071C771.155 58.589 793.093 61.0766 814.464 66.6056C835.357 74.2306 855.52 84.8603 874.799 98.2382C893.319 113.441 910.767 130.948 926.916 150.328C942.132 170.796 955.917 192.535 968.152 215.126C979.432 238.031 989.204 261.26 997.5 284.541C1005.22 307.553 1011.81 330.327 1017.43 352.732C1023.22 374.624 1028.58 396.117 1033.71 417.161C1039.76 437.741 1045.99 457.992 1052.48 477.978C1060.11 497.598 1067.92 517.092 1075.74 536.495C1084.19 555.64 1092.11 574.798 1099.17 593.966C1105.92 612.935 1111.17 631.989 1114.66 651.119C1117.19 670.082 1117.71 689.184 1116.24 708.428C1113.97 727.56 1110.03 746.925 1104.72 766.502C1099.47 786.084 1093.63 805.49 1087.49 824.659C1082.27 843.933 1077.07 862.951 1071.91 881.681C1067.73 900.412 1063.32 918.749 1058.53 936.565C1053.94 954.256 1048.36 971.264 1041.52 987.486C1034.02 1003.41 1024.84 1018.45 1013.96 1032.46C1001.98 1046.11 988.349 1058.74 973.262 1070.29C957.454 1081.55 940.641 1091.8 923.131 1101.07C905.686 1110.25 888.047 1118.57 870.48 1126.08C853.588 1133.8 836.99 1140.88 820.749 1147.41C805.392 1154.4 790.317 1161.02 775.39 1167.31C761.192 1174.3 746.885 1181.12 732.358 1187.77C718.195 1195.25 703.529 1202.63 688.31 1209.87C673.168 1217.88 657.318 1225.64 640.732 1233.11C624.128 1241.04 606.779 1248.42 588.761 1255.05C570.721 1261.72 552.071 1267.3 532.87 1271.57C513.746 1275.34 494.128 1277.48 474.081 1277.74" stroke="#7620EE" stroke-opacity="0.2" stroke-width="2" stroke-linecap="round" stroke-dasharray="11 10"/>
<path opacity="0.21" d="M432.17 1253.78C412.688 1252.09 393.138 1248.43 373.551 1242.83C354.032 1236.3 334.334 1227.9 314.408 1217.82C294.423 1207 274.044 1194.7 253.279 1181.1C232.293 1167.16 210.871 1152.21 189.084 1136.46C167.186 1120.83 145.155 1104.68 123.268 1088.23C101.809 1072.3 81.1228 1056.3 61.7328 1040.42C43.7672 1025.41 27.9589 1010.68 14.9736 996.338C4.36337 983.058 -2.78451 970.226 -6.19392 957.853C-7.1556 946.439 -4.72024 935.313 0.653698 924.341C6.73951 913.863 14.0038 903.106 21.2258 891.842C25.891 880.359 28.0519 867.815 26.5717 854.032C19.7847 839.427 8.21721 823.314 -8.05581 805.685C-28.8915 787.326 -52.4678 767.772 -77.0124 747.385C-101.017 727.09 -121.721 706.678 -136.9 686.57C-145.675 667.583 -146.08 649.389 -137.604 632.133C-122.075 616.11 -99.7134 600.652 -72.6481 585.43C-45.025 570.304 -18.9278 554.786 3.13539 538.48C18.7077 521.019 27.6066 502.278 29.8832 482.286C25.3542 461.028 16.5189 438.844 5.38664 416.115C-7.16056 392.995 -17.7299 370.011 -24.4888 347.498C-27.2573 325.488 -23.8576 304.354 -14.1074 284.223C1.03395 264.853 21.7756 246.429 46.9862 228.849C75.208 211.862 105.51 195.493 136.556 179.752C167.267 164.343 196.729 149.515 224.224 135.461C249.293 121.822 271.774 109.221 291.672 97.9529C308.866 87.5352 323.911 78.8411 337.247 72.2064C353.954 65.2627 383.294 65.1282 398.081 71.6969C407.985 77.4613 418.873 84.8224 430.878 93.4505C443.153 101.588 456.731 110.116 471.637 118.577C487.029 125.287 503.778 131.119 521.866 135.736C540.473 137.774 560.367 138.254 581.456 137.18C602.99 133.626 625.056 129.032 647.488 123.816C670.083 117.33 692.835 111.224 715.547 106.001C738.149 100.981 760.495 97.7697 782.433 96.7122C803.974 96.9946 824.866 99.9636 844.993 105.655C864.428 113.209 882.876 123.485 900.178 136.324C916.567 150.804 931.654 167.468 945.265 185.917C957.874 205.453 968.969 226.247 978.5 247.941C987.168 270.022 994.425 292.546 1000.34 315.229C1005.9 337.813 1010.49 360.305 1014.37 382.543C1018.62 404.475 1022.64 426.126 1026.61 447.455C1031.63 468.463 1036.89 489.235 1042.49 509.769C1049.23 530.054 1056.12 550.18 1063 570.175C1070.42 589.929 1077.28 609.587 1083.2 629.119C1088.71 648.398 1092.73 667.584 1094.97 686.631C1096.17 705.405 1095.39 724.118 1092.63 742.73C1089.04 761.199 1083.82 779.665 1077.26 798.178C1070.77 816.703 1063.75 834.935 1056.53 852.871C1050.23 870.929 1044.05 888.729 1038.06 906.173C1033.06 923.713 1028 940.817 1022.67 957.337C1017.66 973.82 1011.8 989.545 1004.89 1004.42C997.382 1019.05 988.343 1032.68 977.694 1045.23C965.99 1057.45 952.662 1068.55 937.875 1078.55C922.246 1088.27 905.514 1096.97 888.005 1104.7C870.3 1112.38 852.29 1119.25 834.2 1125.4C816.551 1131.79 799.138 1137.67 781.995 1143.05C765.627 1149 749.551 1154.64 733.702 1160.05C718.558 1166.21 703.456 1172.22 688.262 1178.13C673.501 1184.85 658.441 1191.49 642.965 1197.96C627.659 1205.16 611.804 1212.1 595.331 1218.66C578.926 1225.67 561.871 1232.06 544.211 1237.65C526.583 1243.27 508.373 1247.75 489.612 1250.91C470.974 1253.57 451.819 1254.61 432.188 1253.78" stroke="#7620EE" stroke-opacity="0.2" stroke-width="2" stroke-linecap="round" stroke-dasharray="2 2"/>
<path opacity="0.85" d="M390.211 1226.54C371.195 1223.82 352.135 1219.19 333.043 1212.67C314.081 1205.26 294.995 1196.05 275.773 1185.15C256.561 1173.56 237.15 1160.48 217.544 1146.14C197.901 1131.47 178.099 1115.79 158.305 1099.34C138.66 1082.99 119.289 1066.17 100.535 1049.12C82.4638 1032.6 65.5627 1016.13 50.3492 999.899C36.6135 984.572 25.229 969.697 16.6764 955.382C10.1982 942.148 6.86249 929.511 6.76227 917.472C8.36152 906.351 12.5941 895.596 18.8676 885.014C24.9834 874.788 31.4567 864.233 37.1529 853.067C39.8598 841.453 39.8176 828.678 36.153 814.464C27.5941 799.287 14.8381 782.481 -1.82091 764.154C-22.104 745.044 -44.2138 724.837 -66.4956 703.914C-87.6511 683.309 -105.207 662.862 -117.259 643.015C-123.291 624.616 -121.525 607.348 -111.63 591.324C-95.4806 576.786 -73.1021 563.033 -46.4641 549.666C-19.2881 536.404 6.60815 522.678 29.0502 508.003C45.7318 491.975 56.5119 474.394 61.2798 455.253C59.7083 434.588 53.9476 412.747 45.6399 390.167C35.4573 367.021 26.4546 343.962 20.3274 321.436C17.2537 299.486 19.4042 278.614 27.1811 259.026C39.7879 240.518 57.7953 223.298 80.3039 207.363C106.093 192.319 134.514 178.296 164.342 165.236C194.584 152.741 224.357 141.055 252.852 130.274C279.624 119.975 304.247 110.697 326.522 102.656C346.417 95.3386 364.084 89.5491 379.816 85.5611C393.567 82.5203 405.97 81.4923 417.476 82.562C427.815 84.5427 437.896 88.5258 448.068 94.3856C457.849 100.642 468.207 108.288 479.368 117.001C490.697 125.153 503.134 133.618 516.762 142.04C530.884 148.814 546.34 154.847 563.155 159.864C580.59 162.531 599.361 163.877 619.425 163.928C640.013 161.72 661.236 158.628 682.875 155.033C704.723 150.211 726.751 145.749 748.694 142.056C770.484 138.458 791.948 136.433 812.842 136.302C833.237 137.274 852.818 140.625 871.406 146.408C889.18 153.765 905.761 163.602 920.986 175.73C935.21 189.351 947.955 204.991 959.134 222.294C969.321 240.641 977.944 260.239 985.042 280.759C991.394 301.743 996.441 323.268 1000.3 345.063C1004.01 366.935 1006.94 388.852 1009.35 410.685C1012.31 432.402 1015.18 453.988 1018.19 475.359C1022.24 496.618 1026.64 517.694 1031.38 538.604C1037.21 559.372 1043.16 579.982 1049.06 600.412C1055.36 620.653 1061.05 640.679 1065.8 660.429C1070.03 679.891 1072.75 699.078 1073.69 717.929C1073.58 736.444 1071.52 754.674 1067.52 772.606C1062.69 790.326 1056.3 807.874 1048.6 825.269C1040.98 842.701 1032.92 859.73 1024.71 876.388C1017.47 893.269 1010.42 909.802 1003.64 925.966C997.903 942.333 992.218 958.226 986.426 973.531C981.046 988.838 974.98 1003.39 968.033 1017.04C960.61 1030.48 951.816 1042.88 941.559 1054.15C930.29 1065.1 917.433 1074.89 903.156 1083.52C887.966 1091.89 871.607 1099.24 854.353 1105.6C836.708 1111.93 818.594 1117.47 800.241 1122.33C782.124 1127.47 764.078 1132.14 746.238 1136.41C728.958 1141.26 711.952 1145.89 695.196 1150.34C679.048 1155.56 663.03 1160.7 647.038 1165.73C631.467 1171.61 615.753 1177.39 599.78 1182.99C584.035 1189.3 567.887 1195.33 551.289 1200.95C534.805 1206.98 517.799 1212.34 500.269 1216.88C482.855 1221.42 464.915 1224.82 446.465 1226.87C428.193 1228.47 409.444 1228.4 390.233 1226.53" stroke="#7620EE" stroke-opacity="0.2" stroke-width="2" stroke-linecap="round" stroke-dasharray="3 8"/>
<path opacity="0.67" d="M349.915 1196.16C331.417 1192.47 312.942 1186.94 294.56 1179.59C276.367 1171.4 258.172 1161.46 240.004 1149.93C221.978 1137.71 203.945 1124.09 185.983 1109.25C168.188 1094.1 150.536 1078 133.276 1061.22C116.365 1044.54 100.117 1027.48 84.8577 1010.29C70.4281 993.65 57.4952 977.161 46.449 961.052C36.8071 945.868 29.5375 931.224 24.9179 917.278C21.9552 904.369 21.7053 892.138 24.0679 880.537C27.4369 869.726 32.6449 859.261 39.0642 848.884C44.6345 838.677 49.8464 828.005 53.7759 816.577C54.4908 804.494 52.4064 791.119 46.872 776.202C36.9565 760.195 23.4961 742.581 6.94431 723.437C-12.3604 703.62 -32.7006 682.855 -52.4984 661.601C-70.739 640.878 -85.2018 620.574 -94.2717 601.218C-97.7425 583.537 -94.0223 567.291 -82.9234 552.554C-66.2728 539.46 -44.0314 527.352 -17.8997 515.734C8.71042 504.236 34.3025 492.251 56.9658 479.22C74.5558 464.668 86.9734 448.415 94.003 430.415C95.1756 410.647 92.3377 389.497 86.8537 367.442C79.1166 344.632 71.8989 321.803 66.7124 299.51C63.6901 277.755 64.9851 257.243 71.1079 238.179C81.4451 220.385 96.7495 204.214 116.432 189.665C139.436 176.315 165.404 164.345 193.253 153.685C222.099 143.85 251.158 135.104 279.564 127.423C306.94 120.336 332.675 114.309 356.437 109.495C378.217 105.282 397.899 102.453 415.575 101.149C431.36 100.587 445.577 101.678 458.514 104.546C470.203 108.038 481.225 113.162 491.902 119.859C502.063 126.69 512.418 134.682 523.227 143.53C534.133 151.721 545.87 160.193 558.62 168.581C571.862 175.419 586.329 181.644 602.059 187.002C618.465 190.237 636.201 192.375 655.167 193.428C674.75 192.434 694.965 190.712 715.573 188.553C736.457 185.257 757.457 182.281 778.302 179.963C799.007 177.604 819.262 176.655 838.82 177.309C857.834 178.851 875.879 182.469 892.755 188.2C908.767 195.258 923.429 204.528 936.584 215.83C948.725 228.454 959.304 242.904 968.244 258.93C976.254 275.922 982.727 294.138 987.732 313.276C992.139 332.962 995.373 353.276 997.582 373.975C999.794 394.923 1001.41 416.078 1002.67 437.28C1004.61 458.585 1006.58 479.9 1008.74 501.156C1011.98 522.44 1015.58 543.66 1019.51 564.768C1024.41 585.835 1029.4 606.759 1034.26 627.451C1039.41 647.965 1043.89 668.186 1047.38 688.022C1050.28 707.517 1051.7 726.575 1051.34 745.099C1049.93 763.235 1046.61 780.893 1041.44 798.066C1035.46 814.963 1027.99 831.523 1019.28 847.794C1010.65 864.09 1001.65 879.915 992.612 895.291C984.483 910.934 976.642 926.241 969.162 941.16C962.743 956.351 956.499 971.079 950.278 985.205C944.545 999.417 938.328 1012.88 931.389 1025.42C924.097 1037.81 915.61 1049.14 905.803 1059.33C895.065 1069.19 882.861 1077.87 869.267 1085.39C854.691 1092.62 838.92 1098.8 822.176 1104.01C804.858 1109.17 786.933 1113.54 768.631 1117.25C750.304 1121.23 731.902 1124.76 713.563 1127.94C695.591 1131.69 677.804 1135.26 660.248 1138.7C643.149 1142.91 626.204 1147.05 609.354 1151.13C592.911 1156.02 576.423 1160.81 559.791 1165.45C543.438 1170.75 526.809 1175.77 509.873 1180.33C493.109 1185.29 475.949 1189.58 458.393 1193.01C441.011 1196.43 423.221 1198.71 405.036 1199.68C387.046 1200.16 368.667 1199.06 349.933 1196.17" stroke="#7620EE" stroke-opacity="0.2" stroke-width="2" stroke-linecap="round"/>
<path opacity="0.76" d="M313.049 1163.25C295.129 1158.65 277.427 1152.29 259.954 1144.24C242.728 1135.4 225.696 1124.91 208.924 1112.93C192.395 1100.31 176.117 1086.4 160.229 1071.37C144.625 1056.05 129.505 1039.9 115.112 1023.18C101.203 1006.58 88.2799 989.704 76.6398 972.819C65.8667 956.494 56.7465 940.427 49.5926 924.825C43.6517 910.119 39.9514 896.034 38.6111 882.671C38.4482 870.249 40.4794 858.47 44.4919 847.279C48.8274 836.706 54.2909 826.34 60.258 815.92C64.8517 805.439 68.5793 794.34 70.6555 782.325C69.5421 769.469 65.6548 755.201 58.6898 739.395C47.8947 722.423 34.2356 703.91 18.2583 684.013C0.304702 663.568 -17.9525 642.396 -35.1254 621.008C-50.4468 600.355 -61.9008 580.435 -68.1451 561.726C-69.2449 544.902 -63.7864 529.747 -51.6726 516.316C-34.6773 504.638 -12.6728 494.079 12.8611 484.115C38.808 474.297 64.0082 463.962 86.6931 452.579C105.002 439.604 118.789 424.79 127.8 408.145C131.494 389.554 131.388 369.439 128.6 348.255C123.351 326.14 118.054 303.891 114.047 282.101C111.412 260.758 112.218 240.696 117.042 222.196C125.364 205.035 138.138 189.745 155.005 176.355C175.05 164.383 198.163 154.141 223.469 145.529C250.18 137.979 277.628 131.795 305.004 126.903C331.933 122.725 357.73 119.714 382.013 117.91C404.802 116.661 425.712 116.663 444.73 118.009C462.085 119.888 477.774 123.133 492.019 127.823C505.027 132.887 517.085 139.262 528.513 146.866C539.324 154.406 550.031 162.839 560.869 171.94C571.75 180.319 583.2 188.842 595.432 197.293C608.131 204.263 621.875 210.694 636.73 216.395C652.287 220.174 669.046 223.024 686.949 225.001C705.5 225.096 724.594 224.589 744.031 223.719C763.771 221.775 783.542 220.074 803.087 218.952C822.485 217.7 841.328 217.628 859.371 218.937C876.846 220.917 893.229 224.661 908.341 230.24C922.6 236.911 935.383 245.5 946.601 255.879C956.843 267.422 965.494 280.61 972.493 295.227C978.695 310.782 983.413 327.514 986.737 345.168C989.64 363.465 991.459 382.464 992.433 401.937C993.565 421.835 994.229 442.07 994.657 462.532C995.819 483.274 997.083 504.168 998.593 525.13C1001.14 546.286 1004.01 567.459 1007.17 588.581C1011.15 609.741 1015.15 630.775 1018.94 651.539C1022.9 672.151 1026.13 692.367 1028.33 712.1C1029.89 731.452 1029.97 750.203 1028.32 768.28C1025.65 785.914 1021.15 802.901 1014.88 819.224C1007.84 835.232 999.38 850.773 989.793 865.876C980.285 881.027 970.477 895.606 960.677 909.724C951.79 924.165 943.228 938.237 935.112 951.924C928.069 965.974 921.29 979.555 914.665 992.59C908.61 1005.77 902.227 1018.23 895.308 1029.81C888.16 1041.26 879.992 1051.65 870.685 1060.95C860.558 1069.93 849.051 1077.72 836.238 1084.33C822.454 1090.68 807.449 1095.93 791.418 1100.2C774.678 1104.39 757.197 1107.78 739.215 1110.5C720.974 1113.46 702.504 1115.98 683.973 1118.12C665.552 1120.82 647.216 1123.34 629.044 1125.73C611.152 1128.85 593.411 1131.93 575.787 1134.95C558.471 1138.75 541.203 1142.46 523.904 1145.99C506.841 1150.16 489.651 1154.04 472.29 1157.47C455.12 1161.24 437.713 1164.36 420.08 1166.64C402.622 1168.87 384.907 1170.03 366.946 1169.85C349.224 1169.27 331.25 1167.12 313.067 1163.26" stroke="#7620EE" stroke-opacity="0.2" stroke-width="2" stroke-linecap="round" stroke-dasharray="3 1"/>
<path opacity="0.98" d="M281.24 1128.74C264.014 1123.3 247.213 1116.23 230.859 1107.63C214.784 1098.28 199.168 1087.45 184.051 1075.25C169.242 1062.51 154.994 1048.57 141.403 1033.68C128.196 1018.54 115.803 1002.69 104.387 986.401C93.545 970.252 83.9301 953.966 75.745 937.765C68.3716 922.085 62.732 906.757 58.9689 891.96C56.1656 877.944 55.3354 864.559 56.5076 851.877C58.3755 839.944 61.8853 828.582 66.7674 817.678C71.4194 807.133 76.5727 796.621 81.6551 785.9C85.0135 774.851 87.1676 763.038 87.5087 750.165C84.7808 736.299 79.5035 721.005 71.5467 704.168C60.3976 686.206 47.0279 666.835 32.0577 646.276C15.8188 625.342 -0.154603 603.965 -14.6096 582.651C-27.0124 562.3 -35.5596 542.956 -39.1806 525.089C-38.1357 509.224 -31.1405 495.227 -18.1852 483.121C-0.987582 472.8 20.6861 463.707 45.5323 455.314C70.7559 447.06 95.4176 438.352 117.988 428.586C136.785 417.194 151.69 403.986 162.402 388.877C168.32 371.693 170.728 352.914 170.472 332.936C167.63 311.85 164.304 290.501 161.647 269.494C159.666 248.81 160.326 229.335 164.187 211.484C170.844 194.948 181.356 180.408 195.508 167.954C212.562 157.078 232.645 148.187 255.031 141.216C279.047 135.505 304.193 131.439 329.701 128.871C355.264 127.159 380.225 126.739 404.098 127.585C426.954 129.014 448.257 131.592 467.903 135.376C486.2 139.543 502.886 144.856 518.11 151.337C532.215 157.981 545.224 165.63 557.386 174.211C568.968 182.568 580.2 191.57 591.298 201.031C602.41 209.706 613.836 218.433 625.801 227.011C638.241 234.223 651.491 240.923 665.623 246.985C680.508 251.303 696.391 254.851 713.237 257.616C730.786 258.754 748.732 259.327 766.902 259.558C785.431 258.79 803.868 258.242 821.955 258.102C839.951 257.803 857.288 258.457 873.717 260.234C889.625 262.545 904.36 266.324 917.747 271.616C930.36 277.851 941.435 285.718 950.926 295.137C959.551 305.579 966.587 317.492 972.047 330.704C976.812 344.812 980.188 360.06 982.289 376.218C984.126 393.097 985.007 410.743 985.149 428.97C985.548 447.76 985.61 467.023 985.517 486.657C986.148 506.734 986.921 527.088 987.934 547.622C989.878 568.489 992.081 589.445 994.498 610.411C997.585 631.481 1000.6 652.4 1003.31 673.035C1006.05 693.522 1008.01 713.544 1008.92 732.965C1009.14 751.98 1007.91 770.264 1005.04 787.755C1001.14 804.741 995.526 820.923 988.256 836.33C980.241 851.384 970.945 865.86 960.573 879.785C950.285 893.745 939.794 907.104 929.369 919.976C919.785 933.202 910.619 946.049 901.938 958.544C894.283 971.472 887.026 983.972 880.012 995.941C873.621 1008.17 867.076 1019.68 860.159 1030.39C853.124 1041.04 845.269 1050.67 836.443 1059.22C826.903 1067.49 816.148 1074.6 804.173 1080.56C791.235 1086.22 777.13 1090.78 761.968 1094.33C745.996 1097.78 729.202 1100.41 711.788 1102.34C693.911 1104.43 675.675 1106.05 657.219 1107.31C638.67 1109.02 620.076 1110.55 601.53 1111.92C583.1 1113.96 564.774 1115.94 546.567 1117.87C528.534 1120.47 510.588 1123.01 492.696 1125.37C474.987 1128.29 457.259 1130.92 439.522 1133.15C421.926 1135.65 404.279 1137.53 386.555 1138.59C369.009 1139.61 351.385 1139.59 333.696 1138.32C316.251 1136.65 298.75 1133.51 281.257 1128.75" stroke="#7620EE" stroke-opacity="0.2" stroke-width="2" stroke-linecap="round" stroke-dasharray="1 7"/>
<path opacity="0.64" d="M255.708 1093.79C239.311 1087.62 223.546 1079.99 208.455 1070.98C193.702 1061.33 179.64 1050.34 166.343 1038.2C153.409 1025.54 141.284 1011.88 130.082 997.414C119.328 982.741 109.614 967.52 101.083 952.003C93.14 936.611 86.5609 921.175 81.4781 905.921C77.0854 891.127 74.3541 876.719 73.3508 862.851C73.0066 849.631 74.3173 836.976 77.2013 824.928C80.3351 813.409 84.6321 802.297 89.7319 791.454C94.1467 780.725 98.5844 769.823 102.529 758.517C104.573 746.648 105.229 733.877 104.062 719.969C100.076 704.968 93.8644 688.573 85.4264 670.702C74.4149 651.817 61.8082 631.704 48.246 610.677C33.9719 589.484 20.4557 568.114 8.7643 547.127C-0.785355 527.29 -6.59964 508.711 -7.80101 491.798C-4.81833 477.013 3.51516 464.215 17.1341 453.413C34.4114 444.4 55.637 436.709 79.7362 429.793C104.155 423.013 128.178 415.836 150.486 407.678C169.554 397.914 185.29 386.359 197.416 372.915C205.26 357.377 209.879 340.16 211.947 321.676C211.391 301.907 210.031 281.786 208.803 261.851C207.707 242.063 208.467 223.385 211.699 206.262C217.048 190.378 225.577 176.517 237.269 164.833C251.474 154.786 268.5 146.91 287.79 141.139C308.776 136.807 331.133 134.324 354.175 133.559C377.651 133.779 400.943 135.454 423.585 138.458C445.644 142.071 466.546 146.846 486.061 152.712C504.598 158.912 521.698 166.057 537.418 174.152C552.223 182.288 565.908 191.178 578.651 200.745C590.909 209.973 602.641 219.615 614.064 229.512C625.512 238.609 637.075 247.639 648.921 256.463C661.247 264.016 674.148 271.058 687.722 277.514C702.058 282.412 717.139 286.617 733.006 290.13C749.588 292.182 766.419 293.726 783.312 294.934C800.597 295.216 817.654 295.63 834.281 296.342C850.849 296.843 866.689 298.085 881.532 300.242C895.945 302.779 909.16 306.519 920.965 311.52C932.107 317.295 941.726 324.44 949.788 332.937C957.131 342.323 962.917 353.02 967.227 364.907C970.998 377.649 973.479 391.487 974.8 406.243C975.965 421.775 976.328 438.115 976.028 455.147C976.076 472.838 975.811 491.127 975.445 509.916C975.785 529.254 976.219 548.983 976.859 568.996C978.295 589.418 979.913 610.011 981.62 630.627C983.844 651.394 985.861 672 987.501 692.298C989.04 712.426 989.742 732.022 989.385 750.957C988.305 769.417 985.813 787.065 981.769 803.811C976.716 820.002 970.087 835.301 961.923 849.706C953.061 863.75 943.009 877.11 931.988 889.833C921.057 902.621 909.974 914.765 899.025 926.385C888.855 938.407 879.139 950.082 869.944 961.401C861.757 973.233 854.032 984.662 846.647 995.646C839.917 1006.95 833.15 1017.63 826.196 1027.52C819.234 1037.48 811.644 1046.47 803.26 1054.42C794.269 1062.16 784.216 1068.75 773.082 1074.22C761.048 1079.42 747.885 1083.51 733.692 1086.59C718.64 1089.52 702.699 1091.6 686.065 1092.94C668.811 1094.38 651.08 1095.3 633.009 1095.79C614.632 1096.66 596.089 1097.29 577.495 1097.73C558.849 1098.74 540.21 1099.64 521.669 1100.47C503.19 1101.88 484.776 1103.21 466.482 1104.36C448.307 1105.98 430.187 1107.33 412.178 1108.27C394.277 1109.46 376.46 1110.06 358.744 1109.91C341.189 1109.68 323.741 1108.48 306.422 1106.15C289.336 1103.43 272.426 1099.34 255.724 1093.8" stroke="#7620EE" stroke-opacity="0.2" stroke-width="2" stroke-linecap="round" stroke-dasharray="8 9"/>
<path opacity="0.65" d="M237.134 1059.65C221.689 1052.84 207.096 1044.81 193.378 1035.6C180.031 1025.8 167.605 1014.88 156.142 1003C145.1 990.659 135.088 977.494 126.193 963.721C117.766 949.75 110.542 935.388 104.62 920.834C99.2491 906.38 95.2649 891.994 92.7503 877.825C90.791 864.01 90.3341 850.578 91.3578 837.643C92.7608 825.151 95.4901 813.132 99.3668 801.569C103.116 790.269 107.558 779.191 112.357 768.188C116.191 756.999 119.674 745.465 122.4 733.34C123.182 720.499 122.55 706.634 120.216 691.583C115.393 675.447 108.728 657.963 100.288 639.167C89.8769 619.515 78.4506 598.875 66.5802 577.608C54.5199 556.381 43.548 535.304 34.6059 514.865C27.7916 495.747 24.5446 478.109 25.5585 462.319C30.2557 448.661 39.7163 437.114 53.8379 427.598C71.0466 419.857 91.7628 413.48 115.022 407.944C138.568 402.569 161.845 396.855 183.717 390.247C202.85 382.1 219.18 372.233 232.382 360.587C241.836 346.815 248.393 331.374 252.503 314.622C254.073 296.464 254.57 277.828 254.795 259.229C254.712 240.582 255.85 222.893 258.734 206.646C263.105 191.444 270.012 178.252 279.529 167.239C291.136 157.798 305.219 150.626 321.417 145.691C339.269 142.25 358.552 140.848 378.75 141.322C399.607 142.899 420.64 146.063 441.385 150.635C461.924 155.909 481.663 162.346 500.371 169.838C518.433 177.658 535.309 186.32 550.995 195.76C566.004 205.174 579.963 215.152 593.009 225.6C605.689 235.655 617.778 245.943 629.427 256.341C641.166 265.909 652.854 275.343 664.631 284.472C676.897 292.43 689.53 299.882 702.618 306.751C716.449 312.258 730.844 317.097 745.776 321.316C761.448 324.254 777.187 326.664 792.837 328.709C808.918 329.95 824.663 331.191 839.86 332.626C855.101 333.834 869.505 335.599 882.895 338.051C895.96 340.782 907.81 344.484 918.278 349.191C932.434 357.813 952.494 382.025 958.535 397.525C961.698 409.084 963.701 421.666 964.661 435.171C965.566 449.483 965.735 464.659 965.36 480.577C965.309 497.264 964.988 514.615 964.574 532.543C964.784 551.115 965.035 570.17 965.4 589.583C966.398 609.435 967.468 629.495 968.502 649.619C969.866 669.864 970.934 689.965 971.512 709.707C971.887 729.251 971.39 748.222 969.81 766.437C967.501 784.159 963.835 801.014 958.69 816.85C952.623 832.126 945.065 846.44 936.107 859.778C926.505 872.733 915.835 884.942 904.299 896.455C892.834 908.029 881.284 918.969 869.908 929.378C859.246 940.23 849.06 950.721 839.435 960.92C830.757 971.671 822.561 982.086 814.802 992.097C807.725 1002.53 800.725 1012.38 793.676 1021.58C786.736 1030.88 779.298 1039.31 771.268 1046.78C762.771 1054.11 753.362 1060.35 743.007 1065.51C731.839 1070.4 719.635 1074.23 706.433 1077.03C692.39 1079.66 677.432 1081.42 661.718 1082.39C645.309 1083.38 628.323 1083.79 610.869 1083.72C592.986 1083.9 574.822 1083.79 556.507 1083.43C537.951 1083.51 519.369 1083.44 500.792 1083.25C482.16 1083.53 463.609 1083.66 445.181 1083.62C426.774 1083.98 408.512 1084.05 390.44 1083.74C372.433 1083.62 354.648 1082.95 337.084 1081.59C319.688 1080.16 302.539 1077.83 285.733 1074.49C269.149 1070.79 252.935 1065.87 237.159 1059.65" stroke="#7620EE" stroke-opacity="0.2" stroke-width="2" stroke-linecap="round" stroke-dasharray="1 4"/>
<path opacity="0.95" d="M225.636 1027.45C211.234 1020.18 197.877 1011.88 185.564 1002.62C173.646 992.819 162.831 982.136 153.156 970.687C143.919 958.824 135.855 946.345 129.039 933.407C122.686 920.287 117.608 906.899 113.887 893.425C110.613 879.997 108.714 866.69 108.172 853.6C108.009 840.73 109.139 828.21 111.503 816.067C113.988 804.174 117.452 792.582 121.675 781.259C125.509 769.968 129.663 758.687 133.824 747.258C136.852 735.431 139.328 723.077 140.888 709.987C140.624 696.055 139.016 681.071 135.892 664.9C130.69 647.705 124.031 629.297 116.069 609.775C106.691 589.586 96.7725 568.683 86.8725 547.445C77.1499 526.472 68.7375 505.925 62.4454 486.3C58.2277 468.108 57.3347 451.564 60.3152 436.997C66.5131 424.552 76.8964 414.239 91.3376 406.021C108.395 399.474 128.514 394.343 150.864 390.095C173.461 386.005 195.891 381.7 217.181 376.602C236.188 370.023 252.855 361.883 266.85 352.057C277.572 340.162 285.715 326.64 291.583 311.795C295.03 295.446 297.266 278.517 298.917 261.519C299.91 244.23 301.566 227.733 304.371 212.49C308.111 198.127 313.75 185.606 321.436 175.173C330.766 166.202 342.207 159.491 355.485 155.06C370.232 152.13 386.422 151.315 403.578 152.482C421.537 154.834 439.909 158.881 458.27 164.437C476.731 170.752 494.745 178.276 512.029 186.873C528.991 195.805 545.072 205.539 560.153 215.957C574.853 226.326 588.634 237.149 601.576 248.302C614.348 259.043 626.509 269.892 638.203 280.725C650.07 290.779 661.756 300.609 673.398 310.065C685.553 318.482 697.919 326.363 710.544 333.672C723.894 339.777 737.623 345.256 751.695 350.13C766.494 353.866 781.208 357.092 795.701 359.917C810.656 362.019 825.169 364.032 839.075 366.114C853.088 367.96 866.222 370.198 878.357 372.947C895.624 377.74 923.165 392.197 933.197 402.205C941.208 414.325 950.491 444.77 952.364 463.002C953.305 476.282 953.584 490.462 953.363 505.426C953.46 521.179 953.273 537.683 952.956 554.797C953.149 572.606 953.296 590.927 953.451 609.643C954.09 628.821 954.633 648.218 955.025 667.649C955.591 687.214 955.743 706.578 955.326 725.579C954.6 744.317 952.96 762.45 950.246 779.788C946.792 796.588 942.058 812.44 935.937 827.276C928.952 841.494 920.611 854.716 910.989 866.924C900.792 878.743 889.618 889.786 877.689 900.109C865.797 910.476 853.898 920.21 842.167 929.445C831.128 939.122 820.559 948.471 810.542 957.566C801.408 967.247 792.811 976.664 784.684 985.753C777.229 995.315 769.963 1004.41 762.752 1012.92C755.732 1021.63 748.408 1029.56 740.616 1036.63C732.489 1043.62 723.628 1049.62 713.972 1054.59C703.593 1059.33 692.286 1063.05 680.084 1065.77C667.042 1068.27 653.141 1069.87 638.455 1070.68C623.034 1071.44 606.976 1071.54 590.382 1071.12C573.258 1070.82 555.746 1070.14 537.996 1069.16C519.902 1068.47 501.667 1067.57 483.434 1066.49C464.994 1065.74 446.622 1064.82 428.383 1063.71C410.083 1062.88 391.955 1061.74 374.084 1060.27C356.25 1058.91 338.706 1057.06 321.53 1054.6C304.474 1052.02 287.853 1048.66 271.686 1044.42C255.776 1039.84 240.388 1034.21 225.652 1027.46" stroke="#7620EE" stroke-opacity="0.2" stroke-width="2" stroke-linecap="round" stroke-dasharray="3 2"/>
<path opacity="0.35" d="M220.682 998.051C207.393 990.436 195.296 982.014 184.362 972.856C173.847 963.211 164.553 952.872 156.503 941.966C148.877 930.691 142.525 918.962 137.472 906.932C132.842 894.69 129.495 882.293 127.467 869.88C125.79 857.449 125.396 845.113 126.211 832.973C127.241 820.944 129.336 809.121 132.416 797.558C135.372 786.042 139.018 774.662 143.143 763.337C146.662 751.821 150.254 740.11 153.606 728.046C155.787 715.451 157.304 702.152 157.894 688.048C156.846 673.03 154.625 656.986 151.142 639.85C146.016 621.775 139.809 602.672 132.728 582.689C124.71 562.255 116.547 541.401 108.755 520.499C101.431 500.071 95.5525 480.326 91.7694 461.734C89.9824 444.652 91.2156 429.345 95.9049 416.084C103.375 404.899 114.486 395.847 129.082 388.863C145.873 383.487 165.298 379.517 186.68 376.487C208.28 373.592 229.783 370.582 250.357 366.924C269.047 361.883 285.782 355.429 300.258 347.457C311.936 337.464 321.34 325.941 328.653 313.133C333.724 298.751 337.502 283.727 340.471 268.481C342.566 252.76 344.866 237.661 347.791 223.598C351.18 210.142 355.915 198.377 362.134 188.519C369.582 179.954 378.687 173.554 389.352 169.362C401.255 166.605 414.432 165.984 428.602 167.388C443.593 169.993 459.132 174.367 474.86 180.32C490.897 187.06 506.765 195.096 522.192 204.21C537.563 213.713 552.317 224.008 566.352 234.956C580.215 245.892 593.369 257.218 605.845 268.796C618.273 280.003 630.194 291.226 641.672 302.377C653.375 312.812 664.9 322.961 676.287 332.74C688.213 341.556 700.213 349.862 712.341 357.586C725.178 364.266 738.23 370.337 751.481 375.852C765.447 380.375 779.207 384.343 792.648 387.878C806.549 390.777 819.954 393.52 832.712 396.224C845.63 398.706 857.687 401.444 868.764 404.511C884.634 409.643 909.993 423.813 919.295 433.235C926.9 444.54 936.148 472.845 938.317 489.866C939.532 502.345 940.115 515.698 940.228 529.859C940.61 544.8 940.685 560.511 940.537 576.872C940.785 593.902 940.897 611.464 940.891 629.437C941.185 647.807 941.253 666.397 941.047 684.991C940.858 703.687 940.135 722.156 938.779 740.19C937.027 757.961 934.343 775.058 930.61 791.33C926.159 807.038 920.481 821.793 913.52 835.486C905.751 848.55 896.762 860.621 886.612 871.65C875.939 882.279 864.419 892.116 852.195 901.242C840.031 910.411 827.86 918.967 815.909 927.029C804.57 935.554 793.682 943.798 783.346 951.809C773.832 960.459 764.843 968.881 756.351 977.052C748.522 985.77 740.967 994.078 733.561 1001.93C722.721 1013.79 699.322 1033.84 685.989 1041.6C676.319 1046.28 665.81 1049.98 654.521 1052.73C642.463 1055.26 629.609 1056.9 615.994 1057.73C601.639 1058.42 586.61 1058.42 571.041 1057.83C554.873 1057.26 538.266 1056.24 521.363 1054.84C504.014 1053.6 486.474 1052.06 468.866 1050.27C450.993 1048.69 433.122 1046.89 415.397 1044.86C397.529 1042.99 379.875 1040.83 362.507 1038.33C345.122 1035.89 328.105 1032.97 311.527 1029.54C295.086 1025.97 279.148 1021.72 263.81 1016.72C248.733 1011.4 234.312 1005.19 220.696 998.062" stroke="#7620EE" stroke-opacity="0.2" stroke-width="2" stroke-linecap="round" stroke-dasharray="5 6"/>
<path opacity="0.15" d="M221.225 971.879C209.111 964.082 198.243 955.651 188.616 946.676C179.413 937.268 171.456 927.367 164.818 917.031C158.576 906.382 153.626 895.417 149.949 884.217C146.656 872.835 144.61 861.336 143.759 849.844C143.198 838.257 143.747 826.749 145.335 815.356C147.008 803.914 149.547 792.564 152.799 781.323C155.803 769.951 159.242 758.509 162.929 746.963C165.927 735.02 168.822 722.712 171.355 709.923C172.767 696.457 173.514 682.216 173.424 667.152C171.943 651.194 169.491 634.259 166.07 616.373C161.412 597.692 156.022 578.205 150.166 558.103C143.752 537.761 137.52 517.283 131.921 497.038C126.948 477.443 123.497 458.754 122.077 441.388C122.443 425.59 125.556 411.623 131.702 399.745C140.22 389.842 151.851 382.044 166.458 376.288C182.879 372.007 201.546 369.103 221.9 367.193C242.435 365.408 262.905 363.616 282.657 361.288C300.85 357.693 317.427 352.902 332.106 346.711C344.435 338.633 354.761 329.14 363.208 318.426C369.62 306.105 374.713 293.089 378.879 279.767C382.015 265.772 385.002 252.221 388.202 239.479C393.575 221.631 410.324 195.661 422.333 188.5C431.727 185.685 442.22 184.963 453.582 186.242C465.736 188.659 478.454 192.875 491.506 198.705C504.981 205.348 518.477 213.325 531.776 222.414C545.237 231.94 558.315 242.285 570.918 253.303C583.549 264.343 595.7 275.77 607.319 287.447C619.061 298.8 630.389 310.17 641.355 321.434C652.646 332.068 663.739 342.423 674.701 352.39C686.203 361.547 697.717 370.198 709.277 378.298C721.524 385.496 733.881 392.124 746.336 398.198C759.459 403.449 772.315 408.13 784.787 412.358C797.733 416.031 810.151 419.486 821.92 422.813C833.915 425.947 845.054 429.21 855.281 432.696C870.055 438.348 893.912 452.745 902.872 461.932C910.41 472.811 920.222 499.773 922.945 515.94C924.548 527.809 925.564 540.518 926.077 554.018C926.798 568.276 927.169 583.285 927.252 598.907C927.582 615.153 927.668 631.93 927.491 649.059C927.455 666.537 927.086 684.192 926.313 701.824C925.425 719.481 923.912 736.865 921.69 753.791C919.019 770.398 915.432 786.309 910.811 801.379C905.481 815.874 898.997 829.383 891.352 841.832C882.971 853.682 873.47 864.505 862.942 874.305C851.949 883.75 840.183 892.379 827.801 900.32C815.462 908.294 803.167 915.693 791.083 922.629C779.541 930.028 768.44 937.174 757.839 944.138C747.992 951.738 738.663 959.194 729.846 966.454C717.689 978.084 694.995 1000.05 683.679 1009.89C671.872 1019.12 645.085 1033.26 629.71 1037.99C618.56 1040.65 606.67 1042.43 594.099 1043.39C580.847 1044.18 566.936 1044.24 552.454 1043.67C537.394 1043.03 521.85 1041.86 505.986 1040.24C489.621 1038.67 473.048 1036.7 456.351 1034.43C439.314 1032.26 422.286 1029.79 405.359 1027.05C388.269 1024.36 371.369 1021.38 354.772 1018.06C338.146 1014.72 321.92 1010.97 306.188 1006.73C290.56 1002.36 275.519 997.384 261.166 991.792C247.041 985.892 233.701 979.287 221.239 971.89" stroke="#7620EE" stroke-opacity="0.2" stroke-width="2" stroke-linecap="round" stroke-dasharray="4 3"/>
<path opacity="0.96" d="M225.925 948.901C214.973 941.018 205.281 932.701 196.849 923.951C188.814 914.846 182.055 905.372 176.549 895.608C171.43 885.529 167.554 875.224 164.887 864.785C162.532 854.113 161.337 843.361 161.227 832.584C161.316 821.644 162.363 810.71 164.263 799.79C166.155 788.714 168.705 777.595 171.77 766.426C174.524 754.949 177.539 743.266 180.618 731.295C183.028 718.812 185.234 705.848 187.051 692.28C187.89 677.996 188.125 662.938 187.663 647.045C186.09 630.364 183.78 612.812 180.813 594.489C176.952 575.548 172.702 556.03 168.294 536.171C163.652 516.27 159.429 496.506 155.992 477.235C153.277 458.745 152.072 441.336 152.756 425.377C155.064 410.973 159.786 398.448 167.137 388C176.461 379.399 188.426 372.835 202.899 368.236C218.83 364.992 236.661 363.108 255.945 362.205C275.366 361.45 294.737 360.749 313.536 359.673C331.079 357.454 347.294 354.197 361.916 349.733C374.583 343.538 385.522 336.039 394.792 327.389C402.245 317.181 408.423 306.256 413.588 294.926C417.668 282.78 421.371 270.883 424.949 259.614C430.239 243.456 444.271 219.228 453.707 212.212C465.103 208.738 492.727 212.891 508.285 220.032C519.245 226.145 530.358 233.582 541.472 242.182C552.839 251.236 564.053 261.163 575.002 271.788C586.136 282.481 596.966 293.616 607.461 305.037C618.201 316.188 628.661 327.404 638.857 338.529C649.444 349.144 659.89 359.508 670.229 369.527C681.105 378.849 691.986 387.732 702.883 396.11C714.443 403.733 726.057 410.836 737.699 417.421C749.98 423.304 761.952 428.659 773.541 433.54C785.6 437.96 797.129 442.12 808.043 446.115C824.39 451.849 853.062 464.15 865.063 471.235C875.908 479.344 892.427 499.445 898.255 511.703C901.766 520.809 904.486 530.728 906.505 541.416C908.533 552.854 909.977 565.068 910.925 578.042C911.995 591.696 912.644 606.028 912.921 620.959C913.312 636.415 913.349 652.34 912.999 668.554C912.676 685.064 911.867 701.674 910.562 718.204C909.023 734.693 906.822 750.85 903.849 766.526C900.38 781.824 896.013 796.427 890.636 810.158C884.599 823.313 877.496 835.495 869.311 846.642C860.465 857.186 850.629 866.754 839.856 875.318C828.679 883.539 816.819 890.99 804.411 897.743C792.031 904.546 779.703 910.803 767.589 916.663C755.948 922.954 744.697 929.032 733.931 934.959C723.803 941.542 714.2 948.009 705.069 954.365C692.414 964.723 668.93 984.707 657.46 993.873C645.78 1002.67 620.064 1016.59 605.631 1021.5C595.264 1024.31 584.276 1026.28 572.671 1027.46C560.462 1028.46 547.65 1028.72 534.315 1028.3C520.406 1027.75 506.031 1026.63 491.321 1024.99C476.143 1023.28 460.687 1021.15 445.095 1018.6C429.182 1016.08 413.212 1013.18 397.344 1009.96C381.281 1006.74 365.409 1003.16 349.832 999.243C334.212 995.259 319.002 990.881 304.313 986.066C289.708 981.078 275.713 975.61 262.457 969.604C249.42 963.303 237.208 956.421 225.938 948.914" stroke="#7620EE" stroke-opacity="0.2" stroke-width="2" stroke-linecap="round" stroke-dasharray="5 8"/>
<path opacity="0.15" d="M233.236 928.56C223.44 920.72 214.863 912.531 207.476 904.045C197.571 890.715 184.249 862.432 180.714 847.672C178.642 832.449 179.493 801.232 181.963 785.245C183.759 774.287 186.073 763.179 188.751 751.843C191.098 740.117 193.59 728.068 196.074 715.594C197.944 702.545 199.601 688.938 200.903 674.681C201.385 659.745 201.411 644.054 200.889 627.622C199.562 610.496 197.738 592.681 195.507 574.267C192.725 555.447 189.817 536.29 186.975 517.043C184.158 497.951 181.917 479.215 180.548 461.184C179.943 444.041 180.785 428.114 183.316 413.702C187.276 400.805 193.322 389.776 201.593 380.76C211.512 373.453 223.618 368.094 237.81 364.604C253.163 362.328 270.117 361.372 288.261 361.399C306.533 361.555 324.765 361.854 342.496 361.901C359.256 360.931 374.902 359.11 389.254 356.28C401.983 351.845 413.227 346.257 423.009 339.646C431.232 331.521 438.249 322.659 444.211 313.347C451.31 298.068 462.96 269.006 468.759 256.864C483.4 241.511 512.901 238.65 525.041 244.604C533.715 249.836 542.595 256.401 551.578 264.143C560.892 272.327 570.209 281.428 579.415 291.276C588.916 301.245 598.283 311.702 607.479 322.506C616.987 333.133 626.364 343.888 635.612 354.615C645.264 364.947 654.867 375.097 664.421 384.988C674.511 394.304 684.618 403.245 694.741 411.786C705.492 419.689 716.299 427.153 727.097 434.19C738.522 440.64 749.629 446.584 760.367 452.097C771.573 457.201 782.266 462.068 792.418 466.748C807.701 473.537 834.773 487.619 846.3 495.426C856.9 504.115 873.635 524.84 879.856 537.176C883.673 546.218 886.771 555.988 889.19 566.475C891.628 577.607 893.464 589.456 894.751 601.971C896.096 615.067 896.944 628.779 897.36 642.989C897.771 657.638 897.701 672.656 897.176 687.89C896.534 703.315 895.335 718.774 893.531 734.084C891.432 749.274 888.612 764.121 884.998 778.418C880.885 792.308 875.875 805.492 869.919 817.813C863.337 829.546 855.77 840.352 847.219 850.153C838.093 859.366 828.06 867.653 817.199 874.988C805.991 881.997 794.16 888.263 781.831 893.891C769.54 899.558 757.307 904.709 745.258 909.501C733.593 914.71 722.303 919.754 711.441 924.688C701.154 930.234 691.306 935.734 681.924 941.186C668.809 950.215 644.507 968.074 632.808 976.485C621.083 984.767 596.066 998.292 582.375 1003.29C572.67 1006.24 562.445 1008.41 551.711 1009.84C540.449 1011.08 528.679 1011.58 516.438 1011.43C503.682 1011.08 490.52 1010.14 477.015 1008.62C463.072 1006.98 448.863 1004.84 434.53 1002.26C419.862 999.597 405.147 996.521 390.488 993.058C375.661 989.528 360.994 985.613 346.614 981.34C332.21 976.963 318.171 972.177 304.654 967.008C291.229 961.647 278.415 955.867 266.317 949.616C254.453 943.109 243.396 936.095 233.249 928.573" stroke="#7620EE" stroke-opacity="0.2" stroke-width="2" stroke-linecap="round" stroke-dasharray="6 6"/>
<path opacity="0.44" d="M241.803 909.919C229.292 898.175 210.412 873.056 203.972 859.768C199.073 845.911 194.581 817.029 194.675 802.06C195.088 791.759 196.185 781.272 197.838 770.615C199.385 759.615 201.352 748.345 203.56 736.742C205.488 724.706 207.497 712.235 209.461 699.27C210.945 685.754 212.237 671.63 213.262 656.867C213.667 641.505 213.755 625.474 213.511 608.813C212.681 591.62 211.601 573.919 210.353 555.83C208.783 537.513 207.324 519.1 206.114 500.833C205.091 482.864 204.714 465.469 205.251 448.925C206.54 433.325 209.14 419.005 213.24 406.236C218.573 394.935 225.662 385.422 234.614 377.848C244.885 371.813 256.948 367.607 270.716 365.161C285.41 363.773 301.389 363.664 318.378 364.516C335.448 365.489 352.479 366.668 369.093 367.701C384.924 367.866 399.869 367.35 413.719 365.997C426.282 363.197 437.591 359.432 447.616 354.726C460.117 345.191 478.537 322.027 485.409 309.795C496.898 287.663 515.689 267.229 523.392 266.249C532.056 267.897 551.53 279.452 562.064 288.85C569.508 295.903 577.018 303.892 584.565 312.673C592.438 321.606 600.313 331.095 608.145 341.009C616.349 350.793 624.538 360.808 632.695 370.899C641.301 380.671 649.923 390.405 658.556 399.959C667.713 409.056 676.95 417.913 686.209 426.46C696.058 434.492 705.982 442.191 715.915 449.568C726.438 456.454 736.666 462.918 746.583 468.999C756.923 474.76 766.839 480.284 776.274 485.647C790.524 493.497 816.111 509.582 827.199 518.254C837.563 527.679 854.391 549.448 860.929 562.044C864.973 571.145 868.365 580.888 871.093 591.259C873.799 602.159 875.905 613.678 877.443 625.767C878.936 638.333 879.902 651.406 880.337 664.87C880.699 678.64 880.5 692.683 879.747 706.869C878.795 721.133 877.224 735.354 874.982 749.362C872.403 763.179 869.076 776.583 864.932 789.44C860.325 801.851 854.835 813.556 848.432 824.409C841.496 834.708 833.625 844.103 824.874 852.545C815.63 860.423 805.578 867.431 794.757 873.559C783.66 879.37 772.002 884.483 759.879 889.009C747.792 893.575 735.736 897.678 723.857 901.456C712.301 905.631 701.067 909.647 690.186 913.596C674.828 920.413 646.76 934.861 633.878 942.377C621.696 950.444 597.843 965.553 585.731 972.201C573.221 978.422 546.083 987.548 531.282 990.339C520.88 991.81 510.045 992.591 498.804 992.684C487.16 992.621 475.131 991.924 462.818 990.651C450.14 989.21 437.215 987.236 424.155 984.747C410.805 982.148 397.436 979.082 384.082 975.59C370.606 971.986 357.249 967.963 344.19 963.559C331.076 959.008 318.325 954.069 306.079 948.736C293.911 943.214 282.339 937.293 271.429 930.963C260.757 924.378 250.851 917.365 241.815 909.933" stroke="#7620EE" stroke-opacity="0.2" stroke-width="2" stroke-linecap="round" stroke-dasharray="10 1"/>
<path opacity="0.33" d="M250.423 891.747C239.366 880.265 222.796 855.835 217.186 842.939C211.219 824.884 208.709 806.038 209.105 786.436C209.853 765.68 212.531 743.748 216.357 720.437C219.236 695.341 222.209 668.136 224.658 638.77C225.424 607.359 225.574 573.905 225.46 539.338C224.948 504.618 225.93 470.956 229.74 440.393C236.323 413.666 248.046 392.774 265.676 378.971C276.091 374.157 287.971 371.049 301.198 369.554C315.139 369.007 330.117 369.644 345.889 371.213C361.754 372.872 377.544 374.821 392.975 376.725C407.797 377.876 421.902 378.521 435.103 378.48C458.348 374.516 477.33 367.273 492.234 357.58C503.656 343.977 512.734 330.602 520.427 319.253C531.207 304.646 556.982 303.132 572.64 316.543C584.663 328.523 597.165 343.856 609.85 361.476C624.094 378.9 638.717 397.257 653.509 415.713C661.661 424.411 669.932 432.994 678.276 441.404C687.18 449.402 696.16 457.201 705.192 464.799C714.757 471.982 724.086 478.862 733.155 485.436C742.635 491.736 751.758 497.874 760.466 503.896C778.64 515.604 794.665 527.642 808.328 540.452C822.083 554.094 833.17 569.392 841.613 586.586C849.818 605.376 855.493 626.388 858.823 649.293C861.76 673.568 862.332 699.173 860.519 725.222C857.725 751.2 852.122 776.332 843.477 799.457C833.066 820.787 819.242 839.126 802.096 853.847C792.889 860.452 782.943 866.197 772.327 871.168C761.478 875.811 750.107 879.841 738.299 883.31C726.524 886.822 714.775 889.92 703.168 892.724C691.825 895.899 680.733 898.95 669.962 901.936C649.654 909.678 630.67 917.454 612.93 925.165C596.381 934.912 580.196 943.82 563.977 951.344C547.549 959.492 530.121 965.433 511.607 968.935C491.928 972.07 470.833 972.581 448.742 970.651C425.476 968.131 401.546 963.421 377.7 956.794C353.337 949.622 329.725 940.708 307.678 930.207C296.809 924.709 286.459 918.808 276.745 912.504C267.25 906.007 258.446 899.089 250.435 891.762" stroke="#7620EE" stroke-opacity="0.2" stroke-width="2" stroke-linecap="round" stroke-dasharray="10 3"/>
<path opacity="0.39" d="M258.37 872.788C245.105 857.845 235.436 841.907 229.138 825.129C223.864 807.489 221.583 788.849 221.764 769.241C222.275 748.473 224.44 726.276 227.624 702.532C230.174 677.162 232.975 649.777 235.649 620.504C237.337 589.738 238.971 557.544 240.975 524.985C243.132 492.874 247.034 462.421 253.681 435.466C262.791 412.27 276.241 394.688 294.474 383.746C315.949 377.534 341.665 377.048 370.513 381.037C399.641 385.43 427.709 390.09 453.19 393.251C475.567 392.075 494.334 388.176 509.472 382.01C521.631 372.042 531.31 361.856 539.231 352.95C549.541 340.398 570.599 336.958 582.716 347.28C592.139 356.753 602.126 369.52 612.478 384.743C624.378 399.895 636.811 416.366 649.67 433.454C664.441 449.421 679.814 465.394 695.528 481.088C713.105 495.496 729.886 509.232 745.53 522.511C762.156 535.379 777.025 548.66 789.889 562.637C802.9 577.244 813.574 593.288 821.872 610.905C829.9 629.706 835.505 650.269 838.742 672.288C841.42 695.137 841.629 718.847 839.327 742.582C835.944 765.908 829.716 788.136 820.502 808.253C809.687 826.568 795.722 842.021 778.708 854.118C760.389 864.388 739.588 871.866 716.888 876.882C694.312 882.078 671.977 886.176 650.518 889.87C630.388 895.62 611.319 901.525 593.366 907.503C576.484 915.515 560.029 922.989 543.72 929.452C527.455 936.751 510.559 942.266 492.944 945.68C474.547 948.925 455.129 949.79 434.984 948.316C413.985 946.344 392.514 942.146 371.163 935.935C349.475 929.202 328.491 920.63 308.934 910.362C289.839 899.51 272.762 886.953 258.381 872.803" stroke="#7620EE" stroke-opacity="0.2" stroke-width="2" stroke-linecap="round" stroke-dasharray="5 11"/>
<path opacity="0.56" d="M265.373 851.925C253.802 837.462 245.308 821.872 239.707 805.31C235.051 787.981 232.951 769.478 232.952 749.825C233.321 729.091 235.176 706.831 238.008 683.015C240.536 657.822 243.562 630.85 246.835 602.423C249.66 573.05 252.925 542.853 256.962 512.977C261.509 484.009 267.897 457.148 276.79 433.979C287.8 414.354 302.386 400.035 320.724 391.769C341.548 387.549 365.625 388.49 392.078 393.543C418.75 398.955 444.433 404.884 467.957 409.798C489.157 411.037 507.319 410.065 522.324 407.103C539.951 397.004 563.558 376.994 572.581 372.673C581.888 372.926 603.117 393.096 615.561 411.133C625.424 423.985 635.925 438.481 646.956 454.022C659.703 468.731 673.144 483.98 687.015 499.48C702.539 513.973 717.511 528.225 731.56 542.333C746.506 556.087 760.028 570.346 771.859 585.271C783.831 600.602 793.767 617.153 801.546 634.974C809.027 653.534 814.196 673.459 817.051 694.325C819.241 715.573 818.966 737.233 816.12 758.535C812.224 779.13 805.521 798.419 795.951 815.564C785.028 830.945 771.199 843.627 754.617 853.196C736.975 861.165 717.086 866.569 695.452 869.742C673.898 873.081 652.476 875.442 631.686 877.438C611.955 881.312 593.05 885.347 575.069 889.566C558.023 895.74 541.435 901.613 525.098 906.777C508.97 912.947 492.509 917.695 475.632 920.707C458.326 923.788 440.342 924.738 421.908 923.545C402.942 921.971 383.673 918.25 364.644 912.501C345.446 906.299 326.94 898.179 309.696 888.305C292.95 877.914 277.984 865.776 265.373 851.925Z" stroke="#7620EE" stroke-opacity="0.2" stroke-width="2" stroke-linecap="round" stroke-dasharray="4 2"/>
<path opacity="0.92" d="M271.627 828.419C261.588 814.422 254.179 799.187 249.273 782.863C245.207 765.864 243.345 747.563 243.329 728.029C243.73 707.568 245.536 685.591 248.342 662.19C251.128 637.744 254.644 611.874 258.722 585.04C262.771 557.725 267.599 530.201 273.447 503.541C280.005 478.095 288.344 455.053 298.897 435.694C311.162 419.581 326.287 408.359 344.327 402.558C364.157 400.149 386.47 402.313 410.51 408.215C434.712 414.422 457.994 421.349 479.462 427.63C499.231 430.884 516.478 432.4 531.04 432.223C548.868 426.722 573.132 413.54 581.888 410.397C590.273 410.165 608.066 425.694 618.358 440.591C626.579 451.336 635.42 463.902 644.804 477.834C655.725 491.195 667.293 505.494 679.33 520.556C692.833 534.836 705.899 549.266 718.242 563.855C731.417 578.103 743.383 592.955 753.896 608.458C764.569 624.146 773.456 640.869 780.382 658.495C786.983 676.522 791.428 695.472 793.631 714.915C795.172 734.36 794.295 753.812 790.932 772.562C786.573 790.416 779.577 806.821 769.925 821.083C759.109 833.668 745.661 843.726 729.759 850.973C713.035 856.796 694.281 860.329 673.88 861.822C653.564 863.477 633.208 864.242 613.301 864.684C594.213 866.739 575.727 868.989 557.965 871.433C541.02 875.718 524.456 879.862 508.238 883.531C492.303 888.312 476.242 892.002 460.061 894.305C443.667 896.868 426.921 897.61 410.018 896.428C392.799 895.042 375.518 891.639 358.577 886.275C341.626 880.544 325.359 872.915 310.261 863.441C295.659 853.578 282.634 841.899 271.627 828.419Z" stroke="#7620EE" stroke-opacity="0.2" stroke-width="2" stroke-linecap="round" stroke-dasharray="10 10"/>
<path opacity="0.17" d="M277.73 801.991C269.074 788.51 262.715 773.684 258.515 757.698C255.067 741.162 253.571 723.28 253.722 704.172C254.344 684.344 256.315 663.126 259.368 640.724C262.613 617.649 266.764 593.53 271.721 568.938C276.9 544.304 283.1 519.961 290.423 496.87C298.488 475.166 308.185 455.987 319.768 440.362C332.703 427.613 347.868 419.245 365.176 415.641C383.798 414.829 404.235 418.027 425.863 424.538C447.638 431.322 468.523 438.921 487.888 446.238C506.046 451.075 522.141 454.632 535.991 456.815C553.576 455.416 578.339 449.005 587.183 447.547C595.286 447.62 611.169 460.151 619.948 472.509C626.934 481.47 634.451 492.319 642.411 504.734C651.691 516.739 661.53 529.994 671.784 544.366C683.322 558.163 694.495 572.431 705.06 587.081C716.345 601.418 726.605 616.411 735.606 631.986C744.761 647.591 752.315 663.997 758.101 681.02C763.608 698.132 767.097 715.756 768.49 733.504C769.256 750.94 767.752 768.037 763.915 784.182C759.21 799.319 752.067 812.929 742.527 824.449C732.045 834.453 719.223 842.098 704.206 847.218C688.587 851.127 671.111 852.978 652.105 853.002C633.184 853.167 614.101 852.502 595.288 851.51C577.08 851.909 559.266 852.467 542.012 853.189C525.394 855.589 509.128 857.926 493.206 860.003C477.601 863.202 462.045 865.593 446.539 866.874C431.036 868.597 415.398 868.812 399.852 867.354C384.192 865.869 368.653 862.557 353.578 857.38C338.608 851.994 324.347 844.749 311.164 835.658C298.495 826.288 287.23 815.081 277.73 801.991Z" stroke="#7620EE" stroke-opacity="0.2" stroke-width="2" stroke-linecap="round" stroke-dasharray="10 10"/>
<path opacity="0.38" d="M284.471 772.971C277.121 760.049 271.774 745.785 268.31 730.325C265.536 714.473 264.507 697.323 265.001 679.059C265.982 660.289 268.311 640.357 271.755 619.572C275.509 598.428 280.327 576.647 286.082 554.85C292.215 533.315 299.427 512.473 307.786 493.141C316.842 475.222 327.343 459.816 339.351 447.721C352.384 438.069 367.097 432.269 383.378 430.582C400.58 431.123 419.03 435.118 438.3 442.029C457.681 449.171 476.231 457.191 493.482 465.156C509.917 471.205 524.693 476.339 537.602 480.424C554.567 482.551 579.445 482.59 588.498 483.133C596.664 484.165 611.651 495.343 619.484 505.913C625.593 513.513 632.034 522.945 638.802 533.996C646.686 544.743 654.978 556.919 663.533 570.405C673.199 583.472 682.509 597.229 691.251 611.486C700.632 625.47 709.111 640.106 716.456 655.249C723.957 670.291 730.039 685.914 734.518 701.857C738.747 717.663 741.182 733.649 741.66 749.407C741.639 764.695 739.541 779.351 735.31 792.886C730.389 805.418 723.276 816.382 714.017 825.347C704.071 832.973 692.038 838.498 678.091 841.717C663.703 843.971 647.657 844.367 630.207 843.099C612.794 841.974 595.153 840.075 577.625 837.816C560.534 836.76 543.67 835.732 527.185 834.868C511.213 835.451 495.495 836.032 480.138 836.43C465.061 837.935 450.119 838.838 435.397 838.906C420.775 839.525 406.236 838.913 391.932 836.911C377.693 835.021 363.724 831.532 350.304 826.353C337.112 821.103 324.622 814.103 313.196 805.326C302.253 796.379 292.575 785.615 284.471 772.971Z" stroke="#7620EE" stroke-opacity="0.2" stroke-width="2" stroke-linecap="round" stroke-dasharray="3 9"/>
<path opacity="0.79" d="M292.735 742.298C286.586 730.002 282.229 716.439 279.543 701.823C277.482 686.884 276.994 670.828 277.939 653.875C279.359 636.61 282.086 618.47 285.951 599.818C290.21 581.074 295.543 562.09 301.897 543.461C308.673 525.288 316.526 508.048 325.427 492.461C334.932 478.232 345.662 466.368 357.571 457.48C370.22 450.598 384.122 447.033 399.097 446.941C414.687 448.589 431.148 453.16 448.119 460.257C465.153 467.544 481.423 475.718 496.607 484.041C511.274 490.862 524.59 497.148 536.418 502.658C552.406 507.655 576.835 513.513 586.035 516.199C594.358 518.676 609.033 529.937 616.245 539.399C621.724 546.127 627.35 554.46 633.123 564.341C639.786 574.004 646.694 585.106 653.727 597.571C661.638 609.726 669.173 622.659 676.151 636.123C683.668 649.351 690.357 663.161 696.024 677.368C701.852 691.366 706.398 705.732 709.528 720.182C712.486 734.343 713.816 748.408 713.431 762.002C712.643 775.017 710.032 787.232 705.535 798.225C700.514 808.275 693.602 816.797 684.805 823.462C675.519 828.999 664.429 832.633 651.686 834.237C638.633 835.078 624.11 834.269 608.314 831.94C592.541 829.738 576.468 826.807 560.391 823.512C544.63 821.172 528.932 818.79 513.528 816.485C498.469 815.392 483.606 814.312 469.067 813.106C454.779 812.893 440.683 812.27 426.889 810.99C413.238 810.317 399.808 808.685 386.768 805.904C373.848 803.373 361.341 799.473 349.466 794.114C337.851 788.783 326.985 781.878 317.138 773.346C307.735 764.706 299.526 754.381 292.735 742.298Z" stroke="#7620EE" stroke-opacity="0.2" stroke-width="2" stroke-linecap="round" stroke-dasharray="1 2"/>
<path opacity="0.71" d="M303.254 711.345C298.231 699.78 294.815 687.158 292.933 673.631C291.553 659.932 291.632 645.329 293.033 630.087C294.888 614.703 297.973 598.762 302.185 582.65C306.762 566.628 312.443 550.707 319.101 535.392C326.137 520.638 334.185 506.973 343.183 494.944C352.62 484.12 363.07 475.445 374.43 469.38C386.271 464.888 399.029 463.175 412.514 464.368C426.38 466.839 440.813 471.768 455.559 478.844C470.347 486.078 484.438 494.163 497.621 502.529C510.51 509.802 522.318 516.78 532.933 523.266C547.655 530.462 571.048 541.205 580.179 545.972C588.543 550.133 603.042 562.476 609.804 571.436C617.284 581.451 633.159 607.967 641.63 624.335C647.975 635.469 653.866 647.311 659.186 659.628C664.986 671.76 669.961 684.341 674.036 697.163C678.258 709.757 681.349 722.505 683.192 735.115C684.923 747.377 685.248 759.337 684.096 770.654C681.156 786.291 666.763 810.742 655.301 818.536C646.791 822.264 636.767 824.3 625.307 824.586C613.668 824.276 600.723 822.484 586.646 819.37C572.588 816.326 558.207 812.575 543.744 808.449C529.481 805.064 515.202 801.55 501.096 798.047C487.233 795.518 473.507 792.933 460.063 790.273C446.829 788.464 433.816 786.35 421.126 783.751C408.61 781.73 396.387 778.968 384.644 775.32C373.07 771.948 361.981 767.5 351.566 761.83C341.423 756.258 332.049 749.325 323.664 741.01C315.682 732.643 308.807 722.768 303.254 711.345Z" stroke="#7620EE" stroke-opacity="0.2" stroke-width="2" stroke-linecap="round" stroke-dasharray="3 2"/>
<path opacity="0.64" d="M316.506 681.864C309.046 660.363 307.294 635.56 310.501 609.218C315.228 582.744 324.493 555.751 337.418 531.183C351.63 508.846 369.42 491.843 389.939 483.17C411.693 479.238 435.905 484.215 461.035 497.507C486.262 511.264 508.838 527.068 527.712 542.116C545.715 552.644 560.29 562.303 571.498 571.827C582.864 578.63 592.289 587.836 600.073 600.444C609.65 612.342 618.741 628.52 626.891 648.944C637.351 668.904 645.414 690.969 650.484 713.436C656.198 735.059 657.567 756.248 654.179 774.848C650.149 791.362 640.715 803.801 626.052 810.411C610.587 814.259 590.174 812.463 565.576 805.197C541.038 798.218 515.336 789.15 490.031 779.569C465.36 773.028 441.015 765.897 418.161 757.782C395.888 751.728 375.017 743.012 356.903 730.884C339.703 719.199 325.755 702.991 316.506 681.864Z" stroke="#7620EE" stroke-opacity="0.2" stroke-width="2" stroke-linecap="round" stroke-dasharray="5 4"/>
<path opacity="0.27" d="M332.626 655.625C326.973 636.197 326.385 614.716 330.17 592.724C335.185 570.917 344.247 549.628 356.531 531.217C369.756 514.768 385.953 503.229 404.193 498.641C423.147 497.454 443.816 503.377 464.946 516.047C486.106 529.044 505.15 544.187 521.288 559.158C537.068 571.006 550.207 582.365 560.588 593.436C571.28 602.282 580.178 612.579 587.292 625.009C595.805 636.805 603.36 651.681 609.512 669.63C617.415 687.316 622.887 706.272 625.588 724.98C628.907 743.004 628.543 759.994 624.25 774.194C619.685 786.7 610.76 795.392 597.651 798.969C584.098 800.581 566.529 797.349 545.475 789.36C524.457 781.605 502.343 771.724 480.47 761.106C458.984 752.701 437.76 743.573 417.934 733.682C398.581 725.455 380.688 715.272 365.471 702.619C351.048 690.456 339.673 674.862 332.626 655.625Z" stroke="#7620EE" stroke-opacity="0.2" stroke-width="2" stroke-linecap="round" stroke-dasharray="11 6"/>
<path opacity="0.73" d="M351.317 634.338C347.258 617.236 347.56 599.307 351.568 581.788C356.503 564.567 364.874 548.606 375.907 535.645C387.597 524.237 401.664 517.102 417.207 515.607C433.141 516.351 450.271 522.688 467.638 534.359C484.99 546.269 500.681 560.24 514.159 574.472C527.541 586.677 538.953 598.807 548.176 610.663C557.758 620.853 565.769 631.904 572.049 644.07C579.347 655.737 585.449 669.349 589.891 684.839C595.625 700.21 598.969 715.93 599.874 730.849C600.526 751.752 586.199 780.241 570.725 784.26C559.146 784.195 544.382 780.041 526.84 771.835C509.314 763.792 490.883 753.706 472.624 742.705C454.56 733.208 436.767 722.879 420.255 711.937C404.059 702.212 389.292 691.089 376.997 678.344C365.328 666.017 356.413 651.345 351.317 634.338Z" stroke="#7620EE" stroke-opacity="0.2" stroke-width="2" stroke-linecap="round" stroke-dasharray="4 9"/>
<path opacity="0.91" d="M371.934 619.286C369.245 604.781 370.125 590.441 373.985 577.183C378.478 564.232 385.735 552.955 395.102 544.509C404.854 537.128 416.452 533.336 429.117 533.891C441.942 535.848 455.649 542.069 469.447 552.415C483.269 562.908 495.806 575.291 506.698 588.19C517.639 599.899 527.109 611.861 534.909 623.609C543.037 634.303 549.846 645.446 555.099 657.01C561.052 668.202 565.761 680.424 568.782 693.456C572.679 706.457 574.404 719.023 574.094 730.364C573.045 746.117 559.013 765.254 545.878 766.378C536.26 765.184 524.257 760.64 510.16 752.697C496.049 744.883 481.268 735.156 466.689 724.472C452.181 714.716 437.969 704.055 424.873 692.898C412.007 682.573 400.421 671.234 390.96 659.015C381.967 647.091 375.354 633.766 371.934 619.286Z" stroke="#7620EE" stroke-opacity="0.2" stroke-width="2" stroke-linecap="round" stroke-dasharray="6 8"/>
<path opacity="0.1" d="M393.566 611.224C390.944 587.804 398.981 568.175 413.566 557.527C429.046 549.456 449.626 553.203 470.688 570.258C491.741 587.714 509.264 610.539 521.395 632.646C534.581 652.382 543.967 673.863 547.096 694.974C551.32 724.638 525.453 747.74 495.921 732.111C474.28 718.222 451.073 698.125 431.49 676.845C412.507 657.405 398.16 634.722 393.566 611.224Z" stroke="#7620EE" stroke-opacity="0.2" stroke-width="2" stroke-linecap="round" stroke-dasharray="2 10"/>
<path opacity="0.11" d="M415.241 610.278C417.124 586.263 449.197 572.292 471.524 587.983C486.53 601.726 499.215 620.069 508.119 638.279C517.656 655.422 524.23 673.432 525.845 689.514C527.279 711.408 505.991 724.045 484.626 710.334C469.172 698.571 453.057 681.681 439.801 663.844C426.92 646.823 417.574 627.955 415.241 610.278Z" stroke="#7620EE" stroke-opacity="0.2" stroke-width="2" stroke-linecap="round"/>
<path opacity="0.54" d="M436.011 615.854C435.887 592.633 453.033 587.168 472.078 605.7C491.068 624.629 505.383 656.12 505.926 677.886C508.601 699.961 496.182 705.092 476.704 687.718C457.158 670.703 438.12 639.382 436.011 615.854Z" stroke="#7620EE" stroke-opacity="0.2" stroke-width="2" stroke-linecap="round" stroke-dasharray="7 3"/>
</g>
<defs>
<clipPath id="clip0_140_1773">
<rect width="1461" height="1461" fill="white" transform="matrix(-1 0 0 -1 1242 1385)"/>
</clipPath>
</defs>
</svg>
